<?xml version="1.0" standalone="no"?><!DOCTYPE svg PUBLIC "-//W3C//DTD SVG 1.1//EN" "http://www.w3.org/Graphics/SVG/1.1/DTD/svg11.dtd"><svg xmlns:xlink="http://www.w3.org/1999/xlink" version="1.1" class="highcharts-root" style="font-family: Helvetica, Arial, sans-serif; font-size: 1rem;" xmlns="http://www.w3.org/2000/svg" width="600" height="500" viewBox="0 0 600 500" aria-label="Interactive chart" aria-hidden="false"><desc aria-hidden="true">Created with Highcharts 11.1.0</desc><defs aria-hidden="true"><filter id="highcharts-drop-shadow-3"><feDropShadow dx="1" dy="1" flood-color="#000000" flood-opacity="0.75" stdDeviation="2.5"></feDropShadow></filter><clipPath id="highcharts-xo5pegr-7179-"><rect x="0" y="0" width="580" height="315" fill="none"></rect></clipPath><clipPath id="highcharts-xo5pegr-7401-"><rect x="0" y="0" width="580" height="315" fill="none"></rect></clipPath><clipPath id="highcharts-xo5pegr-7891-"><rect x="0" y="0" width="580" height="40" fill="none"></rect></clipPath></defs><rect fill="#ffffff" class="highcharts-background" filter="none" x="0" y="0" width="600" height="500" rx="0" ry="0" aria-hidden="true"></rect><rect fill="none" class="highcharts-plot-background" x="10" y="71" width="580" height="315" filter="none" aria-hidden="true"></rect><g class="highcharts-grid highcharts-xaxis-grid" data-z-index="1" aria-hidden="true"><path fill="none" stroke="#e6e6e6" stroke-width="0" stroke-dasharray="none" data-z-index="1" class="highcharts-grid-line" d="M 33.5 71 L 33.5 386" opacity="1"></path><path fill="none" stroke="#e6e6e6" stroke-width="0" stroke-dasharray="none" data-z-index="1" class="highcharts-grid-line" d="M 127.5 71 L 127.5 386" opacity="1"></path><path fill="none" stroke="#e6e6e6" stroke-width="0" stroke-dasharray="none" data-z-index="1" class="highcharts-grid-line" d="M 220.5 71 L 220.5 386" opacity="1"></path><path fill="none" stroke="#e6e6e6" stroke-width="0" stroke-dasharray="none" data-z-index="1" class="highcharts-grid-line" d="M 313.5 71 L 313.5 386" opacity="1"></path><path fill="none" stroke="#e6e6e6" stroke-width="0" stroke-dasharray="none" data-z-index="1" class="highcharts-grid-line" d="M 407.5 71 L 407.5 386" opacity="1"></path><path fill="none" stroke="#e6e6e6" stroke-width="0" stroke-dasharray="none" data-z-index="1" class="highcharts-grid-line" d="M 500.5 71 L 500.5 386" opacity="1"></path></g><g class="highcharts-grid highcharts-xaxis-grid highcharts-navigator-xaxis" data-z-index="1" aria-hidden="true"><path fill="none" stroke="#e6e6e6" stroke-width="1" stroke-dasharray="none" data-z-index="1" class="highcharts-grid-line" d="M 127.5 432 L 127.5 472" opacity="1"></path><path fill="none" stroke="#e6e6e6" stroke-width="1" stroke-dasharray="none" data-z-index="1" class="highcharts-grid-line" d="M 313.5 432 L 313.5 472" opacity="1"></path><path fill="none" stroke="#e6e6e6" stroke-width="1" stroke-dasharray="none" data-z-index="1" class="highcharts-grid-line" d="M 500.5 432 L 500.5 472" opacity="1"></path></g><g class="highcharts-grid highcharts-yaxis-grid" data-z-index="1" aria-hidden="true"><path fill="none" stroke="#e6e6e6" stroke-width="1" stroke-dasharray="none" data-z-index="1" class="highcharts-grid-line" d="M 10 386.5 L 590 386.5" opacity="1"></path><path fill="none" stroke="#e6e6e6" stroke-width="1" stroke-dasharray="none" data-z-index="1" class="highcharts-grid-line" d="M 10 323.5 L 590 323.5" opacity="1"></path><path fill="none" stroke="#e6e6e6" stroke-width="1" stroke-dasharray="none" data-z-index="1" class="highcharts-grid-line" d="M 10 260.5 L 590 260.5" opacity="1"></path><path fill="none" stroke="#e6e6e6" stroke-width="1" stroke-dasharray="none" data-z-index="1" class="highcharts-grid-line" d="M 10 197.5 L 590 197.5" opacity="1"></path><path fill="none" stroke="#e6e6e6" stroke-width="1" stroke-dasharray="none" data-z-index="1" class="highcharts-grid-line" d="M 10 134.5 L 590 134.5" opacity="1"></path><path fill="none" stroke="#e6e6e6" stroke-width="1" stroke-dasharray="none" data-z-index="1" class="highcharts-grid-line" d="M 10 70.5 L 590 70.5" opacity="1"></path></g><g class="highcharts-grid highcharts-yaxis-grid highcharts-navigator-yaxis" data-z-index="1" aria-hidden="true"><path fill="none" stroke="#e6e6e6" stroke-width="0" stroke-dasharray="none" data-z-index="1" class="highcharts-grid-line" d="M 10 458.5 L 590 458.5" opacity="1"></path></g><rect fill="none" class="highcharts-plot-border" data-z-index="1" stroke="#cccccc" stroke-width="0" x="10" y="71" width="580" height="315" aria-hidden="true"></rect><g class="highcharts-axis highcharts-xaxis" data-z-index="2" aria-hidden="true"><path fill="none" class="highcharts-tick" stroke="#333333" stroke-width="1" d="M 33.5 386 L 33.5 396" opacity="1"></path><path fill="none" class="highcharts-tick" stroke="#333333" stroke-width="1" d="M 127.5 386 L 127.5 396" opacity="1"></path><path fill="none" class="highcharts-tick" stroke="#333333" stroke-width="1" d="M 220.5 386 L 220.5 396" opacity="1"></path><path fill="none" class="highcharts-tick" stroke="#333333" stroke-width="1" d="M 313.5 386 L 313.5 396" opacity="1"></path><path fill="none" class="highcharts-tick" stroke="#333333" stroke-width="1" d="M 407.5 386 L 407.5 396" opacity="1"></path><path fill="none" class="highcharts-tick" stroke="#333333" stroke-width="1" d="M 500.5 386 L 500.5 396" opacity="1"></path><path fill="none" class="highcharts-axis-line" stroke="#333333" stroke-width="1" data-z-index="7" d="M 10 386.5 L 590 386.5"></path></g><g class="highcharts-axis highcharts-xaxis highcharts-navigator-xaxis" data-z-index="2" aria-hidden="true"><path fill="none" class="highcharts-axis-line" stroke="#333333" stroke-width="0" data-z-index="7" d="M 10 472 L 590 472"></path></g><g class="highcharts-axis highcharts-yaxis" data-z-index="2" aria-hidden="true"><path fill="none" class="highcharts-axis-line" stroke="#333333" stroke-width="0" data-z-index="7" d="M 590 71 L 590 386"></path></g><g class="highcharts-axis highcharts-yaxis highcharts-navigator-yaxis" data-z-index="2" aria-hidden="true"><path fill="none" class="highcharts-axis-line" stroke="#333333" stroke-width="0" data-z-index="7" d="M 10 432 L 10 472"></path></g><g class="highcharts-scrollbar" data-z-index="3" transform="translate(10,476)" aria-hidden="true"><rect fill="rgb(255, 255, 255)" fill-opacity=" 0.001" class="highcharts-scrollbar-track" rx="5" ry="5" height="10" width="580" stroke="#cccccc" stroke-width="1" x="-0.5" y="-0.5"></rect><g transform="translate(0,0)"><rect fill="#cccccc" class="highcharts-scrollbar-thumb" height="9" width="580" rx="5" ry="5" stroke="#cccccc" stroke-width="0"></rect><path fill="none" d="M -3 2.5 L -3 6.666666666666667 M 0 2.5 L 0 6.666666666666667 M 3 2.5 L 3 6.666666666666667" class="highcharts-scrollbar-rifles" stroke="none" stroke-width="1" transform="translate(289.5,0)"></path></g><g></g><g transform="translate(580,0)"></g></g><g class="highcharts-series-group" data-z-index="3" filter="none" aria-hidden="false"><g class="highcharts-series highcharts-series-0 highcharts-line-series" data-z-index="0.1" opacity="1" transform="translate(10,71) scale(1 1)" clip-path="url(#highcharts-xo5pegr-7401-)" aria-hidden="false"><path fill="none" d="M 0 182.11475409836 L 3.7311196883978 120.89189189189 L 7.4622393767955 139.82926829268 L 11.193359065193 120.58371040724 L 14.934700999313 147.85714285714 L 18.66582068771 174.51724137931 L 22.396940376108 158.32584269663 L 26.128060064506 171 L 29.869401998625 193.375 L 33.600521687023 191.2027972028 L 37.331641375421 204.47368421053 L 41.062761063819 166.3381294964 L 44.804102997938 62.125 L 48.535222686336 70.64739884393 L 52.266342374733 149.14598540146 L 55.997462063131 152.95881006865 L 59.738803997251 176.72727272727 L 63.469923685648 159.57324840764 L 67.201043374046 151.94117647059 L 70.932163062444 147.96551724138 L 74.673504996563 165.20503597122 L 78.404624684961 160.61178509532 L 82.135744373359 149.29850746269 L 85.866864061756 165.41185647426 L 89.608205995876 143.52631578947 L 93.339325684274 204.904628331 L 97.070445372671 177.21582733813 L 100.80156506107 176.54237288136 L 104.54290699519 195.108033241 L 108.27402668359 106.17482517483 L 112.00514637198 118.91347342398001 L 115.73626606038 111.21357063404 L 119.46738574878 143.46534653465 L 123.19850543718 120.93905817174999 L 126.92962512558 142.8 L 130.66074481397 153.78260869565 L 134.40208674809 148.69852941176 L 138.13320643649 137.18935729095 L 141.86432612489 141.93103448276 L 145.59544581329 154.93582887701 L 149.3367877474 187.57948139797 L 153.0679074358 132.30708661417 L 156.7990271242 157.79256965944 L 160.5301468126 155.2389380531 L 164.27148874672 148.724685021 L 168.00260843512 163.85526315789 L 171.73372812351 164.82032897512 L 175.46484781191 155.22258326564 L 179.20618974603 88.69545104086001 L 182.93730943443 98.91020951114001 L 186.66842912283 148.85743380855 L 190.39954881122 108.18216630197 L 194.14089074534 124.85454545454999 L 197.87201043374 203.97029702970002 L 201.60313012214 163.01622718053 L 205.33424981054 135 L 209.07559174466 148.05502392345 L 212.80671143305 136.63758891801 L 216.53783112145 159.05703422053 L 220.26895080985 165.30094043887 L 224.01029274397 163.25504849738 L 227.74141243237 177.93217231897 L 231.47253212076 190.89160786668998 L 235.20365180916 210.53440746875 L 238.94499374328 263.550982226383 L 242.67611343168 239.801061007958 L 246.40723312008 126.95729948067 L 250.13835280847 122.81194186657001 L 253.87969474259 128.60545080019 L 257.61081443099 153.83805668016 L 261.34193411939 180.1133935908 L 265.07305380779 130.38149898717 L 268.81439574191 109.99703484061999 L 272.5455154303 117.00197606762 L 276.2766351187 133.13793103448 L 280.0077548071 76.91131221718999 L 283.74909674122 102.65089121081999 L 287.48021642962 96.24527027027 L 291.21133611801 132.48960480594 L 294.94245580641 152.46394984326 L 298.68379774053 168.6275862069 L 302.41491742893 181.4554631829 L 306.14603711733 172.61075794621 L 309.87715680572 170.53417214755 L 313.61849873984 148.62772607307 L 317.34961842824 159.5848309473 L 321.08073811664 159.40409079571 L 324.81185780504 156.55439961881 L 328.55319973916 165.01903251388 L 332.28431942755 161.10847975554 L 336.01543911595 190.00954504285 L 337.89633232873 179.4385842681 L 339.74655880435 166.75393673884 L 341.62745201713 168.51612365804 L 343.48790073847 160.91262095763 L 345.36879395125 146.6147318328 L 347.21902042687 144.22074764124 L 349.09991363965 140.12125727548 L 350.95014011526 139.10725680764 L 352.83103332805 137.06359614695 L 354.68125980366 134.78421786589 L 356.56215301644 140.49397260323 L 358.42260173778 138.93545623765 L 360.30349495056 137.30144407739 L 362.15372142618 138.77878954605 L 364.03461463896 142.25514050519 L 365.88484111458 157.0453268128 L 367.76573432736 153.39935613194 L 369.61596080298 133.0568362327 L 371.49685401576 135.11602555118 L 373.35730273709 140.10114912053 L 375.23819594988 144.0338635678 L 377.08842242549 160.92188681029 L 378.96931563827 172.36730197729 L 380.81954211389 152.31419578031 L 382.70043532667 114.33784926949 L 384.55066180229 104.84491827521 L 386.43155501507 112.4854639475 L 388.29200373641 109.48633787662001 L 390.17289694919 118.78995538395 L 392.0231234248 143.12490758553 L 393.90401663759 151.35245054971 L 395.7542431132 153.37303818015 L 397.63513632598 138.67634429198 L 399.4853628016 112.83499162938 L 401.36625601438 107.97278785379001 L 403.22670473572 108.7343732194 L 405.1075979485 106.91374278691 L 406.95782442412 118.38604478182 L 408.8387176369 135.56007349272 L 410.68894411252 140.75965528281 L 412.5698373253 140.39251396518 L 414.42006380091 138.14928041704 L 416.30095701369 140.58925046223 L 418.16140573503 133.91177208254 L 420.04229894781 132.24214415047 L 421.89252542343 133.20446117921 L 423.77341863621 129.52470440583 L 425.62364511183 132.44854008867 L 427.50453832461 111.34920899835001 L 429.35476480023 111.11975298433 L 431.23565801301 135.76838433139 L 433.09610673434 138.62095785296 L 434.97699994713 132.744896259 L 436.82722642274 131.21377509468 L 438.70811963552 140.76085662336 L 440.55834611114 133.44200901457 L 442.43923932392 135.65084057426 L 444.28946579954 157.35635275204 L 446.17035901232 157.93723882173 L 448.03080773366 152.48126905131 L 449.91170094644 164.39738816616 L 451.76192742206 159.32410889843 L 453.64282063484 149.57458222306 L 455.49304711045 157.3418223807 L 457.37394032323 162.71072984782 L 459.22416679885 167.5302625457 L 461.10506001163 175.02777800356 L 462.96550873297 178.88548358461 L 464.84640194575 184.16745413669 L 466.69662842137 180.43451291496 L 468.57752163415 178.60132242411 L 470.42774810977 182.94708568667 L 472.30864132255 184.50564904134 L 474.15886779816 167.70639159777 L 476.03976101094 156.20146582198 L 477.90020973228 159.71611445221 L 479.78110294506 157.41399692168 L 481.63132942068 153.02282312048 L 483.51222263346 146.90607253154 L 485.36244910908 140.05242567245 L 487.24334232186 138.12234176791 L 489.09356879748 144.40262282336 L 490.97446201026 150.13773512542 L 492.8349107316 150.37728579193 L 494.71580394438 141.21227144625 L 496.56603041999 127.13371170419 L 498.44692363277 137.00181953371 L 500.29715010839 144.71129609702 L 502.17804332117 143.85939125953 L 504.02826979679 144.79398469438 L 505.90916300957 157.92301794608 L 507.76961173091 159.29876140212 L 509.65050494369 159.69422405744 L 511.50073141931 163.03050014808 L 513.38162463209 156.79376856112 L 515.2318511077 154.51398417167 L 517.11274432049 150.04171880281 L 518.9629707961 149.56289216843 L 520.84386400888 148.16217757483 L 522.70431273022 143.95131410397 L 524.585205943 129.19870107433 L 526.43543241862 144.34458407039 L 528.3163256314 176.08865096182 L 530.16655210702 169.96491441639 L 532.0474453198 157.47423209687 L 533.89767179541 128.65401395457 L 535.7785650082 126.11755891499001 L 537.63901372953 140.93606720739 L 539.51990694231 143.4035329092 L 541.37013341793 147.72573172644 L 543.25102663071 149.40703515202 L 545.10125310633 149.77135944772 L 546.98214631911 151.65662144943 L 548.83237279473 152.44160576094 L 550.71326600751 148.98349571009 L 552.57371472885 142.87842180911 L 554.45460794163 149.46414001963 L 556.30483441724 155.13911944056 L 558.18572763003 163.66943640263 L 560.03595410564 165.77015699015 L 561.91684731842 162.73128814365 L 563.76707379404 150.70947009308 L 565.64796700682 99.56988364402 L 567.50841572816 38.40146540139 L 569.38930894094 55.329014118750024 L 571.23953541656 107.12765751053001 L 573.12042862934 133.09720459977 L 574.97065510495 173.66994071931 L 576.85154831774 209.29968382662 L 578.70177479335 212.18260394931002" class="highcharts-graph" data-z-index="1" stroke="black" stroke-width="1" stroke-linejoin="round" stroke-linecap="round" filter="none" aria-hidden="false" role="region" tabindex="-1" aria-label="M2 Growth Rate, series 1 of 4. Line with 221 data points. Y axis, values. X axis, Time." style="outline: none;"></path></g><g class="highcharts-markers highcharts-series-0 highcharts-line-series" data-z-index="0.1" opacity="1" transform="translate(10,71) scale(1 1)" clip-path="none" aria-hidden="true"></g><g class="highcharts-series highcharts-series-1 highcharts-line-series" data-z-index="0.1" opacity="1" transform="translate(10,71) scale(1 1)" clip-path="url(#highcharts-xo5pegr-7401-)" aria-hidden="false"><path fill="none" d="M 11.193359065193 179.37965808 L 14.934700999313 174.7905894 L 18.66582068771 216.79592696999998 L 22.396940376108 232.61216643 L 26.128060064506 225.44928378 L 29.869401998625 183.47254569 L 33.600521687023 287.61045327 L 37.331641375421 253.94555214 L 41.062761063819 58.65304157999998 L 44.804102997938 225.00219231 L 48.535222686336 138.09124602 L 52.266342374733 200.77311303 L 55.997462063131 237.00461967 L 59.738803997251 253.94555214 L 63.469923685648 210.72489795 L 67.201043374046 189 L 70.932163062444 158.99763348 L 74.673504996563 217.63851984000001 L 78.404624684961 218.99982006 L 82.135744373359 173.2501008 L 85.866864061756 227.41472187 L 89.608205995876 139.9086927 L 93.339325684274 272.49438825 L 97.070445372671 215.24947227 L 100.80156506107 179.87001606 L 104.54290699519 206.99989065 L 108.27402668359 170.47070397 L 112.00514637198 179.99967195 L 115.73626606038 82.52107353 L 119.46738574878 204.1812675 L 123.19850543718 173.44387242 L 126.92962512558 128.27686725 L 130.66074481397 216.69211368 L 134.40208674809 174.52042965 L 138.13320643649 189 L 141.86432612489 160.68546081 L 145.59544581329 202.54547313 L 149.3367877474 168.23238831 L 153.0679074358 121.97617425000001 L 156.7990271242 231.4073664 L 160.5301468126 195.49068462 L 164.27148874672 143.06430411 L 168.00260843512 176.14285714286 L 169.8835016479 182.5601597715 L 171.73372812351 179.52857785779 L 173.61462133629 180.50411255411 L 175.46484781191 183.79178800233 L 177.34574102469 151.34428442844 L 179.20618974603 120.35316240789999 L 181.08708295881 76.59402312258999 L 182.93730943443 69.60683761902001 L 184.81820264721 93.24839743589999 L 186.66842912283 69.23593995751 L 188.54932233561 87.78881309214 L 190.39954881122 98.22965759891 L 192.280442024 55.49085372600001 L 194.14089074534 141.63272234245 L 196.02178395812 260.773855429935 L 197.87201043374 263.935107711595 L 199.75290364652 231.50216206137 L 201.60313012214 212.39516082387001 L 203.48402333492 182.09136165539 L 205.33424981054 169.53450648429 L 207.21514302332 183.99286156598 L 209.07559174466 191.43837303637 L 210.95648495744 177.91124871001 L 212.80671143305 165.77297655607 L 214.68760464583 174.37056488821 L 216.53783112145 197.82887510652 L 218.41872433423 202.55472306951 L 220.26895080985 198.54584108177 L 222.14984402263 198.64181442186998 L 224.01029274397 193.85204374893 L 225.89118595675 190.83496532028 L 227.74141243237 185.93696450428 L 229.62230564515 196.31868760666998 L 231.47253212076 222.50550264961998 L 233.35342533354 244.42482093357802 L 235.20365180916 249.444183791585 L 237.08454502194 253.14989669850502 L 238.94499374328 254.38267282668698 L 240.82588695606 238.985156263504 L 242.67611343168 190.44658401396998 L 244.55700664446 158.34738835127 L 246.40723312008 174.68181818182 L 248.28812633286 170.0879811469 L 250.13835280847 177.30986001366 L 252.01924602126 187.45604569978002 L 253.87969474259 176.7761028245 L 255.76058795537 163.82417937437 L 257.61081443099 168.75531914894 L 259.49170764377 197.74525407812 L 261.34193411939 207.82374018951998 L 263.22282733217 201.63859754269998 L 265.07305380779 191.98404255319 L 266.95394702057 180.64138254614 L 268.81439574191 185.96215035372 L 270.69528895469 171.78191489362 L 272.5455154303 131.40957446809 L 274.42640864308 112.38818792211 L 276.2766351187 131.32708651956 L 278.15752833148 143.47405082438 L 280.0077548071 163.81760282555 L 281.88864801988 181.65876778825 L 283.74909674122 176.3136336456 L 285.629989954 174.61657789172 L 287.48021642962 174.78937345268 L 289.3611096424 163.87947852462 L 291.21133611801 91.17169570761001 L 293.0922293308 78.09369751277 L 294.94245580641 123.65993703293 L 296.82334901919 132.9140145025 L 298.68379774053 156.95739666681 L 300.56469095331 189.74652112312998 L 302.41491742893 203.68518407999 L 304.29581064171 191.63222910053 L 306.14603711733 161.9213596585 L 308.02693033011 132.74007660267 L 309.87715680572 149.86761294765 L 311.75805001851 174.36919124355 L 313.61849873984 178.95728579595 L 315.49939195263 183.43322824548 L 317.34961842824 183.48994677706 L 319.23051164102 183.87131118561 L 321.08073811664 192.11978521272 L 322.96163132942 192.90480219719 L 324.81185780504 187.42844458423 L 326.69275101782 181.93015260775 L 328.55319973916 174.13670032736 L 330.43409295194 166.84056572009 L 332.28431942755 168.36620586649 L 334.16521264034 169.08653138766 L 336.01543911595 176.78612189334 L 337.89633232873 185.356592937 L 339.74655880435 180.28904665314 L 341.62745201713 178.50361247602 L 343.48790073847 180.40903535195 L 345.36879395125 181.87888554414 L 347.21902042687 183.69809994558 L 349.09991363965 181.60771812081 L 350.95014011526 180.59531772575 L 352.83103332805 181.69517972897 L 354.68125980366 180.36057191245 L 356.56215301644 180.4012515793 L 358.42260173778 182.18066460436 L 360.30349495056 179.50294001247 L 362.15372142618 177.53276172277 L 364.03461463896 171.95614377994 L 365.88484111458 166.47619566045 L 367.76573432736 171.75227500252 L 369.61596080298 171.09447589303 L 371.49685401576 163.34940406411 L 373.35730273709 160.08090951592 L 375.23819594988 155.52987599918 L 377.08842242549 151.84346566072 L 378.96931563827 151.14101325985 L 380.81954211389 154.18503802617 L 382.70043532667 160.36631022816 L 384.55066180229 165.56440375982 L 386.43155501507 168.64720660599 L 388.29200373641 167.71242957144 L 390.17289694919 156.68553749869 L 392.0231234248 137.65913495901 L 393.90401663759 122.23474510726001 L 395.7542431132 114.22558943299 L 397.63513632598 125.72955382448 L 399.4853628016 141.77683295294 L 401.36625601438 151.27278582779 L 403.22670473572 155.78728008299 L 405.1075979485 147.28569953939 L 406.95782442412 147.13593811359 L 408.8387176369 145.35359673904 L 410.68894411252 134.1260446646 L 412.5698373253 122.38559778199999 L 414.42006380091 109.32115759480001 L 416.30095701369 99.12790866186 L 418.16140573503 110.00972453718 L 420.04229894781 123.91252025082 L 421.89252542343 127.25787497363001 L 423.77341863621 145.84701694773 L 425.62364511183 159.42879479723 L 427.50453832461 168.44833407359 L 429.35476480023 168.50530460675 L 431.23565801301 161.0485595757 L 433.09610673434 163.43052785263 L 434.97699994713 165.90844809623 L 436.82722642274 167.03430879976 L 438.70811963552 176.61728916735 L 440.55834611114 179.92531772715 L 442.43923932392 167.63316297264 L 444.28946579954 161.50747439703 L 446.17035901232 164.0550843304 L 448.03080773366 161.93369915789 L 449.91170094644 157.03794815518 L 451.76192742206 159.55421308884 L 453.64282063484 158.48019244209 L 455.49304711045 151.0946178347 L 457.37394032323 158.34792995363 L 459.22416679885 169.29574513976 L 461.10506001163 169.62371406786 L 462.96550873297 169.52711932066 L 464.84640194575 169.52026144625 L 466.69662842137 172.0355683919 L 468.57752163415 173.31778351082 L 470.42774810977 171.54238858087 L 472.30864132255 170.35310434835 L 474.15886779816 172.36608928521 L 476.03976101094 171.16741513383 L 477.90020973228 169.58037876888 L 479.78110294506 173.19454432339 L 481.63132942068 176.85511483156 L 483.51222263346 179.22991910658 L 485.36244910908 179.10734030097 L 487.24334232186 176.60436501699 L 489.09356879748 172.72591706892 L 490.97446201026 167.34197055651 L 492.8349107316 167.07693678979 L 494.71580394438 168.72809543535 L 496.56603041999 176.31182177856 L 498.44692363277 180.63510350593 L 500.29715010839 175.85847381302 L 502.17804332117 173.76894014007 L 504.02826979679 176.30517919475 L 505.90916300957 173.22467361658 L 507.76961173091 169.96378007194 L 509.65050494369 169.9241644887 L 511.50073141931 164.29125472746 L 513.38162463209 164.70651058444 L 515.2318511077 174.53487451878 L 517.11274432049 172.72100165577 L 518.9629707961 167.02447055851 L 520.84386400888 160.92052472076 L 522.70431273022 173.08745693492 L 524.585205943 194.97410528234002 L 526.43543241862 184.55647057869 L 528.3163256314 177.44657043122 L 530.16655210702 180.87855857205 L 532.0474453198 169.35554079016 L 533.89767179541 167.53088300619 L 535.7785650082 175.76796822253 L 537.63901372953 177.50667316196 L 539.51990694231 178.9284332641 L 541.37013341793 180.61610624577 L 543.25102663071 177.67764883758 L 545.10125310633 181.63806111731 L 546.98214631911 189.04712022040002 L 548.83237279473 185.91937543255 L 550.71326600751 182.86880394361 L 552.57371472885 178.04866046553 L 554.45460794163 175.81766515339 L 556.30483441724 175.77499819681 L 558.18572763003 172.56085832442 L 560.03595410564 175.20655189172 L 561.91684731842 177.83926050107 L 563.76707379404 176.3494876245 L 565.64796700682 182.74930959046 L 567.50841572816 180.81068519676 L 569.38930894094 163.5844289569 L 571.23953541656 148.90179413873 L 573.12042862934 135.61985530007 L 574.97065510495 142.60610639918 L 576.85154831774 161.54725156138 L 578.70177479335 166.72749416896" class="highcharts-graph" data-z-index="1" stroke="red" stroke-width="1" stroke-linejoin="round" stroke-linecap="round" filter="none" aria-hidden="false" role="region" tabindex="-1" aria-label="Inflation Rate, series 2 of 4. Line with 263 data points. Y axis, values. X axis, Time." style="outline: none;"></path></g><g class="highcharts-markers highcharts-series-1 highcharts-line-series" data-z-index="0.1" opacity="1" transform="translate(10,71) scale(1 1)" clip-path="none" aria-hidden="true"></g><g class="highcharts-series highcharts-series-2 highcharts-flags-series highcharts-color-0" data-z-index="0.1" opacity="1" transform="translate(10,71) scale(1 1)" clip-path="url(#highcharts-xo5pegr-7401-)" aria-hidden="true"></g><g class="highcharts-markers highcharts-series-2 highcharts-flags-series highcharts-color-0" data-z-index="0.1" opacity="1" transform="translate(10,71) scale(1 1)" clip-path="url(#highcharts-xo5pegr-7401-)" aria-hidden="false" role="region" tabindex="-1" aria-label="M2 Growth peaks, series 3 of 4 with 5 data points. Y axis, values. X axis, Time." style="outline: none;"><g class="highcharts-label highcharts-point" transform="translate(169,64)" filter="none" tabindex="-1" role="img" aria-label="First World War, 15.11. M2 Growth peaks." style="outline: none;"><path fill="#ffffff" class="highcharts-label-box" d="M 0.5 0.5 L 22.5 0.5 L 22.5 14.5 L 0.5 14.5 Z M 11.5 14.5 L 11.5 29.816823095822315 M 11.5 30.816823095822315 A 1 1 0 1 1 11.500999999833335 30.816822595822355 Z" stroke="#2caffe" stroke-width="1"></path><text x="3" data-z-index="1" y="11" style="font-size: 0.7em; font-weight: bold;">1916</text></g><g class="highcharts-label highcharts-point" transform="translate(270,60)" filter="none" tabindex="-1" role="img" aria-label="Second World War, 15.75. M2 Growth peaks." style="outline: none;"><path fill="#ffffff" class="highcharts-label-box" d="M 0.5 0.5 L 22.5 0.5 L 22.5 14.5 L 0.5 14.5 Z M 11.5 14.5 L 11.5 29.78110171400499 M 11.5 30.78110171400499 A 1 1 0 1 1 11.500999999833335 30.78110121400503 Z" stroke="#2caffe" stroke-width="1"></path><text x="3" data-z-index="1" y="11" style="font-size: 0.7em; font-weight: bold;">1943</text></g><g class="highcharts-label highcharts-point" transform="translate(486,106)" filter="none" tabindex="-1" role="img" aria-label="Early 2000 Recession, 8.44. M2 Growth peaks." style="outline: none;"><path fill="#ffffff" class="highcharts-label-box" d="M 0.5 0.5 L 22.5 0.5 L 22.5 14.5 L 0.5 14.5 Z M 11.5 14.5 L 11.5 29.821937075832608 M 11.5 30.821937075832608 A 1 1 0 1 1 11.500999999833335 30.82193657583265 Z" stroke="#2caffe" stroke-width="1"></path><text x="3" data-z-index="1" y="11" style="font-size: 0.7em; font-weight: bold;">2001</text></g><g class="highcharts-label highcharts-point" transform="translate(513,100)" filter="none" tabindex="-1" role="img" aria-label="Great Recession, 9.44. M2 Growth peaks." style="outline: none;"><path fill="#ffffff" class="highcharts-label-box" d="M 0.5 0.5 L 22.5 0.5 L 22.5 14.5 L 0.5 14.5 Z M 11.5 14.5 L 11.5 29.533416720651758 M 11.5 30.533416720651758 A 1 1 0 1 1 11.500999999833335 30.533416220651798 Z" stroke="#2caffe" stroke-width="1"></path><text x="3" data-z-index="1" y="11" style="font-size: 0.7em; font-weight: bold;">2009</text></g><g class="highcharts-label highcharts-point" transform="translate(558,42)" filter="none" tabindex="-1" role="img" aria-label="COVID-19 Recession, 18.54. M2 Growth peaks." style="outline: none;"><path fill="#ffffff" class="highcharts-label-box" d="M 0.5 0.5 L 22.5 0.5 L 22.5 14.5 L 0.5 14.5 Z M 11.5 14.5 L 11.5 30.21365478236892 M 11.5 31.21365478236892 A 1 1 0 1 1 11.500999999833335 31.21365428236896 Z" stroke="#2caffe" stroke-width="1"></path><text x="3" data-z-index="1" y="11" style="font-size: 0.7em; font-weight: bold;">2021</text></g></g><g class="highcharts-series highcharts-series-3 highcharts-areaspline-series highcharts-navigator-series" data-z-index="0.1" opacity="1" transform="translate(10,432) scale(1 1)" clip-path="url(#highcharts-xo5pegr-7891-)" aria-hidden="false"><path fill="black" d="M 1.8604487213381 24.610052129445002 C 1.8604487213381 24.610052129445002 3.5471192654082797 15.546021691682999 4.6715662947884 15.546021691682999 C 6.16401417014752 15.546021691682999 6.910238107827081 18.34969584088 8.4026859831862 18.34969584088 C 9.89513385854532 18.34969584088 10.64135779622488 15.500395494924 12.133805671584 15.500395494924 C 13.6303424452316 15.500395494924 14.3786108320554 17.939066826423897 15.875147605703 19.538220793494 C 17.3675954810622 21.1330054874303 18.113819418741798 23.48524214744 19.606267294101 23.48524214744 C 21.0987151694602 23.48524214744 21.8449391071398 21.088109357489 23.337386982499 21.088109357489 C 24.829834857858202 21.088109357489 25.5760587955378 21.9281311787559 27.068506670897 22.964515383449 C 28.565043444544603 24.003738996921907 29.313311831368402 26.277128902904 30.809848605016 26.277128902904 C 32.3022964803752 26.277128902904 33.04852041805479 25.955534786569 34.540968293414 25.955534786569 C 36.033416168772796 25.955534786569 36.7796401064522 27.920286505763002 38.272087981811 27.920286505763002 C 39.7645358571702 27.920286505763002 40.5107597948498 26.483498440465752 42.003207670209 22.274326545185 C 43.499744443857004 18.053622672108553 44.248012830681 6.8455970848700005 45.744549604329 6.8455970848700005 C 47.23699747968781 6.8455970848700005 47.983221417367204 6.8455970848700005 49.475669292726 8.107336241454998 C 50.9681171680852 9.369075398039996 51.7143411057648 19.164545830226 53.206788981124 19.72903363089 C 54.69923685648321 20.293521431554 55.4454607941628 19.72903363089 56.937908669522 20.293521431554 C 58.4344454431696 20.858009232218002 59.182713829993396 23.812436771872 60.679250603641 23.812436771872 C 62.1716984790002 23.812436771872 62.9179224166798 22.0067026327264 64.410370292039 21.272787481402 C 65.90281816739821 20.538872330077595 66.6490421050778 20.486565392381443 68.141489980437 20.14286101525 C 69.6339378557958 19.799156638118642 70.3801617934752 19.554265595745 71.872609668834 19.554265595745 C 73.36914644248199 19.554265595745 74.117414829306 22.106572313662 75.613951602954 22.106572313662 C 77.10639947831321 22.106572313662 77.8526234159928 21.897534160689464 79.345071291352 21.426542595237 C 80.8375191667108 20.95555102978466 81.5837431043902 19.7516144864 83.076190979749 19.7516144864 C 84.5686388551082 19.7516144864 85.31486279278779 22.137192040789 86.807310668147 22.137192040789 C 88.303847441795 22.137192040789 89.05211582861901 18.897042858531 90.548652602267 18.897042858531 C 92.0411004776258 18.897042858531 92.78732441530519 27.984087682058 94.279772290664 27.984087682058 C 95.77222016602319 27.984087682058 96.5184441037028 23.984471942696 98.010891979062 23.884767167802 C 99.50333985442121 23.785062392908 100.2495637921008 23.785062392908 101.74201166746 23.785062392908 C 103.23854844110801 23.785062392908 103.98681682793202 26.533704069107998 105.48335360158 26.533704069107998 C 106.97580147694 26.533704069107998 107.72202541462002 13.367163404591999 109.21447328998 13.367163404591999 C 110.70692116533601 13.367163404591999 111.45314510301401 15.253117299999001 112.94559297837 15.253117299999001 C 114.43804085373002 15.253117299999001 115.18426479140999 14.113148491933998 116.67671266677 14.113148491933998 C 118.16916054213 14.113148491933998 118.91538447981 18.888016374608 120.40783235517 18.888016374608 C 121.90028023053 18.888016374608 122.64650416821 15.55300464839 124.13895204357 15.55300464839 C 125.63139991892999 15.55300464839 126.37762385660999 17.81701598022489 127.87007173197 18.789511975689 C 129.362519607326 19.76200797115049 130.10874354500402 20.415484625704 131.60119142036 20.415484625704 C 133.097728194008 20.415484625704 133.845996580832 20.15478540228594 135.34253335448 19.662787876217 C 136.83498122984003 19.17213460568354 137.58120516752 17.958857634198 139.07365304288 17.958857634198 C 140.56610091824 17.958857634198 141.31232485592 18.1353896400428 142.80477273128 18.660861833997 C 144.29722060664 19.1863340279512 145.04344454432 19.236419265222775 146.53589241968 20.586218603969 C 148.03242919332803 21.939716023094775 148.78069758015198 25.419103728677 150.2772343538 25.419103728677 C 151.769682229156 25.419103728677 152.515906166834 17.236038601817 154.00835404219 17.236038601817 C 155.50080191755 17.236038601817 156.24702585523 21.009158408996 157.73947373059 21.009158408996 C 159.23192160595 21.009158408996 159.97814554362998 20.899226182252125 161.47059341899 20.631093846632 C 162.967130192638 20.36222690187332 163.715398579462 19.666660208049 165.21193535311 19.666660208049 C 166.70438322847 19.666660208049 167.45060716615 21.763860995543997 168.94305504151 21.906738764182 C 170.43550291686603 22.04961653282 171.18172685454402 22.04961653282 172.6741747299 22.04961653282 C 174.16662260526 22.04961653282 174.91284654294 22.04961653282 176.4052944183 20.628672524172 C 177.90183119194802 19.207728515524 178.65009957877197 10.779346150165 180.14663635242 10.779346150165 C 181.63908422778 10.779346150165 182.38530816546 10.779346150165 183.87775604082 12.291638753813 C 185.37020391617997 13.803931357461 186.11642785386 19.686313635015 187.60887572922 19.686313635015 C 189.10132360457598 19.686313635015 189.847547542254 13.664349789214 191.33999541761 13.664349789214 C 192.836532191258 13.664349789214 193.58480057808202 13.664349789214 195.08133735173 16.132691625296 C 196.57378522709 18.601033461378 197.32000916477 27.845760151317002 198.81245704013 27.845760151317002 C 200.30490491549 27.845760151317002 201.05112885316998 23.82472695432064 202.54357672853 21.782519683872 C 204.03602460388998 19.740312413423435 204.78224854157 17.634723799074 206.27469641693 17.634723799074 C 207.77123319057802 17.634723799074 208.51950157740202 19.567517039102 210.01603835105 19.567517039102 C 211.508486226406 19.567517039102 212.254710164084 17.87716845557 213.74715803944 17.87716845557 C 215.2396059148 17.87716845557 215.98582985247998 20.3476415932524 217.47827772784 21.196362091674 C 218.97072560320004 22.0450825900956 219.71694954087997 22.120770947678 221.20939741624 22.120770947678 C 222.705934189888 22.120770947678 223.45420257671202 21.817877124002 224.95073935036 21.817877124002 C 226.44318722572 21.817877124002 227.18941116340002 23.172504643935714 228.68185903876 23.990821874757 C 230.17430691411602 24.80913910557612 230.920530851794 24.944112619586907 232.41297872715 25.909463278103 C 233.90542660251003 26.874813936621706 234.65165054019 26.66907763693273 236.14409841555 28.817575167344 C 237.640635189198 30.97195899235821 238.388903576022 36.6666666666667 239.88544034967 36.6666666666667 C 241.37788822502998 36.6666666666667 242.12411216271 36.6666666666667 243.61656003807 33.1504963822351 C 245.10900791343002 29.634326097803495 245.85523185111 17.057723093025995 247.34767972647 16.444003867308 C 248.840127601826 15.830284641590001 249.586351539504 15.830284641590001 251.07879941486 15.830284641590001 C 252.57533618850798 15.830284641590001 253.323604575332 15.830284641590001 254.82014134898 16.688012284879 C 256.31258922434 17.545739928168 257.05881316202 18.898545908994198 258.55126103738 20.423693686849 C 260.04370891274004 21.9488414647038 260.78993285042 24.313751174152998 262.28238072578 24.313751174152998 C 263.77482860114 24.313751174152998 264.52105253882 19.024257768511347 266.01350041418 16.950955803779 C 267.51003718782795 14.871973559692147 268.25830557465196 13.933040652105 269.7548423483 13.933040652105 C 271.247290223656 13.933040652105 271.993514161334 14.284919708853929 273.48596203669 14.970120563236001 C 274.97840991205004 15.655321417619929 275.72463384972997 17.35904492402 277.21708172509 17.35904492402 C 278.70952960044997 17.35904492402 279.45575353813 9.034707152067998 280.94820141349 9.034707152067998 C 282.444738187138 9.034707152067998 283.193006573962 12.845445805000999 284.68954334761 12.845445805000999 C 286.18199122297 12.845445805000999 286.92821516065004 11.897095122178001 288.42066303601 11.897095122178001 C 289.91311091136606 11.897095122178001 290.659334849044 15.59842790370542 292.1517827244 17.263060377441 C 293.64423059975996 18.927692851181018 294.39045453744 19.151677359559432 295.8829024128 20.220257490867 C 297.379439186448 21.291765238972232 298.127707573272 21.753668388534038 299.62424434692 22.613280075973 C 301.11669222228 23.470543097599638 301.86291615996004 24.512444263531002 303.35536403532 24.512444263531002 C 304.84781191068 24.512444263531002 305.59403584836 23.510425762896002 307.08648372372 23.202987720843 C 308.57893159907997 22.89554967879 309.32515553676 23.202987720843 310.81760341212 22.89554967879 C 312.31414018576396 22.588111636737 313.062408572586 19.652305458474 314.55894534623 19.652305458474 C 316.05139322159005 19.652305458474 316.79761715927 21.274502273691 318.29006503463 21.274502273691 C 319.78251290999 21.274502273691 320.52873684767 21.274502273691 322.02118472303 21.247743736499 C 323.51363259839 21.220985199307002 324.25985653606995 20.825847623923 325.75230441143 20.825847623923 C 327.248841185078 20.825847623923 327.997109571902 22.079034545284 329.49364634555 22.079034545284 C 330.986094220906 22.079034545284 331.732318158584 21.500078123571 333.22476603394 21.500078123571 C 334.71721390929997 21.500078123571 335.46343784698 25.778874083231997 336.95588572234 25.778874083231997 C 337.708243007452 25.778874083231997 338.084421650008 24.908102991546198 338.83677893512 24.213845811675 C 339.57686952536795 23.5309080423434 339.946914820492 22.335886710225 340.68700541074 22.335886710225 C 341.439362695852 22.335886710225 341.815541338408 22.596778071671 342.56789862352 22.596778071671 C 343.31207811205604 22.596778071671 343.68416785632405 22.11603675089503 344.42834734486 21.471081274325 C 345.180704629972 20.819038374936632 345.556883272528 19.7087109317 346.30924055764 19.354282131775 C 347.049331147888 18.99985333185 347.419376443012 19.190544496381836 348.15946703326 18.99985333185 C 348.911824318372 18.80600154028223 349.28800296092794 18.543047273748996 350.04036024604 18.392924741526 C 350.78045083628797 18.242802209303 351.150496131412 18.33259527096771 351.89058672166 18.242802209303 C 352.642944006772 18.15152086484851 353.019122649328 18.069295802910194 353.77147993444 17.940238726228 C 354.51157052468403 17.813285841013794 354.881615819806 17.602777304562 355.62170641005 17.602777304562 C 356.374063695162 17.602777304562 356.750242337718 18.44810515867 357.50259962283 18.44810515867 C 358.246779111366 18.44810515867 358.618868855634 18.311381234697134 359.36304834417 18.217367175076 C 360.115405629282 18.122319993920733 360.491584271838 17.975452056729 361.24394155695 17.975452056729 C 361.98403214719804 17.975452056729 362.35407744232197 18.048699566902467 363.09416803257 18.19417270801 C 363.846525317682 18.342057006152068 364.222703960238 18.19417270801 364.97506124535 18.708845654853 C 365.715151835598 19.223518601696 366.085197130722 20.898529280232 366.82528772097 20.898529280232 C 367.577645006082 20.898529280232 367.953823648638 20.898529280232 368.70618093375 20.358744173239 C 369.446271523998 19.818959066246 369.81631681912205 17.347038857574 370.55640740937 17.347038857574 C 371.308764694482 17.347038857574 371.684943337038 17.44217978841993 372.43730062215 17.651901354804 C 373.18148011068604 17.859343338945134 373.553569854954 18.127333900306304 374.29774934349 18.389947733887 C 375.050106628602 18.655447433770306 375.426285271158 18.389947733887 376.17864255627 18.972185188464 C 376.918733146514 19.554422643041 377.288778441636 20.64039678916635 378.02886903188 21.472453081647 C 378.781226316992 22.31830036240315 379.157404959548 23.166944121556 379.90976224466 23.166944121556 C 380.64985283490796 23.166944121556 381.01989813003195 21.902213220799926 381.75998872028 20.198086436855 C 382.512346005392 18.465714457600725 382.888524647948 15.992812874451227 383.64088193306 14.575697213558001 C 384.380972523308 13.181686699306029 384.751017818432 13.170270998991999 385.49110840868 13.170270998991999 C 386.243465693792 13.170270998991999 386.619644336348 14.301451999665002 387.37200162146 14.301451999665002 C 388.11618110999603 14.301451999665002 388.488270854264 13.857432085968 389.2324503428 13.857432085968 C 389.98480762791206 13.857432085968 390.360986270468 14.230607405511527 391.11334355558 15.234830483046998 C 391.853434145828 16.22268035823393 392.223479440952 17.881365225799257 392.9635700312 18.837614467774 C 393.715927316312 19.809713144696058 394.092105958868 19.756552753949997 394.84446324398 20.055700280289 C 395.584553834224 20.354847806628 395.95459912934604 20.354847806628 396.69468971959 20.354847806628 C 397.44704700470203 20.354847806628 397.823225647258 19.389201098422372 398.57558293237 18.179005712092 C 399.315673522618 16.988541772274772 399.685718817742 15.073047623610002 400.42580940799 14.353199491259002 C 401.178166693102 13.633351358908001 401.554345335658 13.633351358908001 402.30670262077 13.633351358908001 C 403.050882109306 13.633351358908001 403.42297185357404 13.746103894251998 404.16715134211 13.746103894251998 C 404.919508627222 13.746103894251998 405.29568726977794 13.476559984325 406.04804455489 13.476559984325 C 406.78813514513797 13.476559984325 407.158180440262 14.333786742509542 407.89827103051 15.175031612822998 C 408.650628315622 16.03021976827754 409.026806958178 17.049715933930543 409.77916424329 17.717642548745 C 410.51925483353796 18.374679055710942 410.88930012866206 18.487439417274 411.62939071891 18.487439417274 C 412.38174800402203 18.487439417274 412.757926646578 18.487439417274 413.51028393169 18.433084231026 C 414.250374521934 18.378729044778 414.6204198170561 18.100974028618 415.3605104073 18.100974028618 C 416.11286769241207 18.100974028618 416.48904633496807 18.462211023423 417.24140362008 18.462211023423 C 417.98558310861597 18.462211023423 418.35767285288404 17.720799935324997 419.10185234142 17.473611910286 C 419.854209626532 17.226423885247 420.23038826908794 17.226423885247 420.9827455542 17.226423885247 C 421.722836144448 17.226423885247 422.092881439572 17.368894696395 422.83297202982 17.368894696395 C 423.585329314932 17.368894696395 423.961507957488 16.824107566302 424.7138652426 16.824107566302 C 425.453955832848 16.824107566302 425.82400112797205 17.256980755649 426.56409171822 17.256980755649 C 427.316449003332 17.256980755649 427.692627645888 14.167200629298002 428.444984931 14.133229720062001 C 429.185075521248 14.099258810826 429.5551208163721 14.099258810826 430.29521140662 14.099258810826 C 431.04756869173195 14.099258810826 431.42374733428795 17.326160076686 432.1761046194 17.748482919714 C 432.920284107936 18.170805762742 433.29237385220404 18.170805762742 434.03655334074 18.170805762742 C 434.788910625852 18.170805762742 435.165089268408 17.521985234756304 435.91744655352 17.300856217388 C 436.657537143764 17.083332564433906 437.02758243888604 17.074174086936 437.76767302913 17.074174086936 C 438.5200303142419 17.074174086936 438.896208956798 18.487617275462 439.64856624191 18.487617275462 C 440.388656832158 18.487617275462 440.75870212728205 17.404063597888 441.49879271753 17.404063597888 C 442.251150002642 17.404063597888 442.627328645198 17.404063597888 443.37968593031 17.731080593948 C 444.11977652055805 18.058097590008 444.489821815682 20.858576551003 445.22991240593 20.944576597828 C 445.982269691042 21.030576644653 446.35844833359806 21.030576644653 447.11080561871 21.030576644653 C 447.854985107246 21.030576644653 448.227074851514 20.22282159557 448.97125434005 20.22282159557 C 449.723611625162 20.22282159557 450.099790267718 21.987000244925 450.85214755283 21.987000244925 C 451.59223814307796 21.987000244925 451.962283438202 21.67119760770554 452.70237402845 21.235902435303 C 453.45473131356204 20.793392425789936 453.83090995611803 19.792487290136 454.58326724123 19.792487290136 C 455.323357831474 19.792487290136 455.69340312659597 20.556661600140806 456.43349371684 20.942425379748 C 457.18585100195594 21.33458303415841 457.56202964451404 21.43313208286607 458.31438692963 21.73729087518 C 459.054477519874 22.03649055674727 459.424522814996 22.089111938014167 460.16461340524 22.450821564451 C 460.916970690352 22.818526378067364 461.293149332908 23.22276210215384 462.04550661802 23.560826975313 C 462.789686106556 23.89521723028624 463.16177585082403 23.862812829020825 463.90595533936 24.131959384782 C 464.658312624472 24.404063595001627 465.034491267028 24.913953890265 465.78684855214 24.913953890265 C 466.52693914238796 24.913953890265 466.89698443751206 24.524751088227333 467.63707502776 24.361292815027 C 468.3894323128719 24.195125288680135 468.7656109554279 24.089889391397 469.51796824054 24.089889391397 C 470.25805883078795 24.089889391397 470.62810412591205 24.559888724323514 471.36819471616 24.733278626521 C 472.1205520012721 24.909542394500313 472.4967306438281 24.964023566839 473.24908792894 24.964023566839 C 473.98917851918395 24.964023566839 474.359223814306 23.308094596923805 475.09931440455 22.476897429437 C 475.851671689666 21.63192351331101 476.22785033222397 20.773595857807 476.98020761734 20.773595857807 C 477.7243871058719 20.773595857807 478.09647685013795 21.293938765903 478.84065633867 21.293938765903 C 479.593013623782 21.293938765903 479.969192266338 21.152927789886977 480.72154955145 20.953110803667 C 481.461640141698 20.75655170309138 481.83168543682194 20.611580390742965 482.57177602707 20.302998548914 C 483.32413331218197 19.989302090922966 483.700311954738 19.78462451500766 484.45266923985 19.397415054117 C 485.192759830098 19.01651879095726 485.5628051252221 18.640682404052214 486.30289571547 18.382734238788 C 487.05525300058196 18.120510689569816 487.43143164313796 18.096985767911 488.18378892825 18.096985767911 C 488.923879518498 18.096985767911 489.293924813622 18.673928854509192 490.03401540387 19.026779910046 C 490.786372688982 19.38547932561839 491.162551331538 19.840396525506 491.91490861665 19.875861945684 C 492.659088105186 19.911327365862 493.03117784945397 19.911327365862 493.77535733799 19.911327365862 C 494.52771462310193 19.911327365862 494.903893265658 19.248347052995907 495.65625055077 18.554449134465 C 496.396341141014 17.871864768955508 496.76638643613603 16.470121655761 497.50647702638 16.470121655761 C 498.25883431149606 16.470121655761 498.63501295405405 17.40634341346734 499.38737023917 17.931092713079 C 500.127460829414 18.44728631758414 500.497506124536 19.072478916053 501.23759671478 19.072478916053 C 501.989953999892 19.072478916053 502.36613264244806 18.946354604011 503.11848992756 18.946354604011 C 503.858580517808 18.946354604011 504.228625812932 18.946354604011 504.96871640318 19.084720943563 C 505.721073688292 19.223087283115 506.097252330848 20.824792750275 506.84960961596 21.028471247338 C 507.59378910449595 21.232149744401 507.96587884876396 21.17999100075729 508.7100583373 21.232149744401 C 509.46241562241204 21.28488166105169 509.83859426496804 21.232149744401 510.59095155008 21.290697898074 C 511.3310421403279 21.349246051747002 511.701087435452 21.784632793381 512.4411780257 21.784632793381 C 513.193535310812 21.784632793381 513.569713953368 21.115532439814817 514.32207123848 20.861286139876 C 515.0621618287239 20.611185160045615 515.432207123846 20.722049228788684 516.17229771409 20.523764593958 C 516.924654999206 20.322193473465482 517.300833641764 19.932536922854 518.05319092688 19.861646751568 C 518.793281517124 19.790756580282 519.163326812246 19.8459522851984 519.90341740249 19.790756580282 C 520.655774687602 19.7346460294276 521.031953330158 19.750447646564837 521.78431061527 19.583381112141 C 522.528490103806 19.418130518308434 522.900579848074 19.51840306438488 523.64475933661 18.959963759641 C 524.3971166217219 18.395387759241682 524.773295264278 16.775842849283 525.52565254939 16.775842849283 C 526.265743139638 16.775842849283 526.635788434762 17.641189644995784 527.37587902501 19.018187286236 C 528.128236310122 20.418008092796985 528.5044149526781 23.717888968786 529.25677223779 23.717888968786 C 529.9968628280379 23.717888968786 530.3669081231619 23.357913095651977 531.10699871341 22.811271204765 C 531.859355998522 22.255568951047177 532.235534641078 22.195296250833703 532.98789192619 20.962028607274 C 533.7279825164339 19.74886858834091 534.098027811556 17.070723624203005 534.8381184018 16.695202048533 C 535.5904756869161 16.319680472863 535.9666543294741 16.319680472863 536.71901161459 16.319680472863 C 537.463191103122 16.319680472863 537.835280847388 18.148249441128996 538.57946033592 18.513557161469 C 539.331817621036 18.878864881809 539.707996263594 18.67617083572478 540.46035354871 18.878864881809 C 541.200444138954 19.078254133661982 541.570489434076 19.342463054798287 542.31058002432 19.518765406312 C 543.062937309432 19.697989896249087 543.439115951988 19.713743858624998 544.1914732371 19.767681985436 C 544.931563827348 19.821620112247 545.301609122472 19.767681985436 546.04169971272 19.821620112247 C 546.7940569978321 19.875558239058 547.170235640388 20.02101698594235 547.9225929255 20.100732710887 C 548.662683515748 20.17914872292515 549.032728810872 20.216949454704 549.77281940112 20.216949454704 C 550.525176686232 20.216949454704 550.901355328788 19.98968985184442 551.6537126139 19.704977070068 C 552.397892102436 19.42335899244082 552.769981846704 18.801122306195 553.51416133524 18.801122306195 C 554.2665186203519 18.801122306195 554.6426972629081 19.410113784507992 555.39505454802 19.776136347737 C 556.135145138264 20.13619115178199 556.505190433386 20.19915469820415 557.24528102363 20.61631572438 C 557.997638308746 21.04039102171135 558.373816951304 21.568215964603 559.12617423642 21.879227156505 C 559.866264826664 22.190238348407 560.2363101217859 22.190238348407 560.97640071203 22.190238348407 C 561.728757997142 22.190238348407 562.104936639698 22.189946072472804 562.85729392481 21.740334526071 C 563.597384515058 21.298053602707203 563.967429810182 21.740334526071 564.70752040043 19.960507173993 C 565.4598776855421 18.180679821915003 565.836056328098 15.732909897794537 566.58841361321 12.389303354976 C 567.3325931017459 9.082040361530538 567.704682846014 3.3333333333330017 568.44886233455 3.3333333333330017 C 569.201219619662 3.3333333333330017 569.577398262218 3.787747771120565 570.32975554733 5.839452963831 C 571.069846137578 7.857706441448165 571.439891432702 11.224443928918605 572.17998202295 13.508230009152001 C 572.932339308062 15.829868897339006 573.308517950618 15.366507129371477 574.06087523573 17.353015384882 C 574.800965825974 19.307134918829878 575.1710111210961 21.12199299327871 575.91110171134 23.359799482798 C 576.663458996456 25.63469668763151 577.039637639014 28.207958970531998 577.79199492413 28.634774620764 C 578.675196954478 29.061590270996 580 29.061590270996 580 29.061590270996 L 580 40 C 580 40 578.675196954478 40 577.79199492413 40 C 577.039637639014 40 576.663458996456 40 575.91110171134 40 C 575.1710111210961 40 574.800965825974 40 574.06087523573 40 C 573.308517950618 40 572.932339308062 40 572.17998202295 40 C 571.439891432702 40 571.069846137578 40 570.32975554733 40 C 569.577398262218 40 569.201219619662 40 568.44886233455 40 C 567.704682846014 40 567.3325931017459 40 566.58841361321 40 C 565.836056328098 40 565.4598776855421 40 564.70752040043 40 C 563.967429810182 40 563.597384515058 40 562.85729392481 40 C 562.104936639698 40 561.728757997142 40 560.97640071203 40 C 560.2363101217859 40 559.866264826664 40 559.12617423642 40 C 558.373816951304 40 557.997638308746 40 557.24528102363 40 C 556.505190433386 40 556.135145138264 40 555.39505454802 40 C 554.6426972629081 40 554.2665186203519 40 553.51416133524 40 C 552.769981846704 40 552.397892102436 40 551.6537126139 40 C 550.901355328788 40 550.525176686232 40 549.77281940112 40 C 549.032728810872 40 548.662683515748 40 547.9225929255 40 C 547.170235640388 40 546.7940569978321 40 546.04169971272 40 C 545.301609122472 40 544.931563827348 40 544.1914732371 40 C 543.439115951988 40 543.062937309432 40 542.31058002432 40 C 541.570489434076 40 541.200444138954 40 540.46035354871 40 C 539.707996263594 40 539.331817621036 40 538.57946033592 40 C 537.835280847388 40 537.463191103122 40 536.71901161459 40 C 535.9666543294741 40 535.5904756869161 40 534.8381184018 40 C 534.098027811556 40 533.7279825164339 40 532.98789192619 40 C 532.235534641078 40 531.859355998522 40 531.10699871341 40 C 530.3669081231619 40 529.9968628280379 40 529.25677223779 40 C 528.5044149526781 40 528.128236310122 40 527.37587902501 40 C 526.635788434762 40 526.265743139638 40 525.52565254939 40 C 524.773295264278 40 524.3971166217219 40 523.64475933661 40 C 522.900579848074 40 522.528490103806 40 521.78431061527 40 C 521.031953330158 40 520.655774687602 40 519.90341740249 40 C 519.163326812246 40 518.793281517124 40 518.05319092688 40 C 517.300833641764 40 516.924654999206 40 516.17229771409 40 C 515.432207123846 40 515.0621618287239 40 514.32207123848 40 C 513.569713953368 40 513.193535310812 40 512.4411780257 40 C 511.701087435452 40 511.3310421403279 40 510.59095155008 40 C 509.83859426496804 40 509.46241562241204 40 508.7100583373 40 C 507.96587884876396 40 507.59378910449595 40 506.84960961596 40 C 506.097252330848 40 505.721073688292 40 504.96871640318 40 C 504.228625812932 40 503.858580517808 40 503.11848992756 40 C 502.36613264244806 40 501.989953999892 40 501.23759671478 40 C 500.497506124536 40 500.127460829414 40 499.38737023917 40 C 498.63501295405405 40 498.25883431149606 40 497.50647702638 40 C 496.76638643613603 40 496.396341141014 40 495.65625055077 40 C 494.903893265658 40 494.52771462310193 40 493.77535733799 40 C 493.03117784945397 40 492.659088105186 40 491.91490861665 40 C 491.162551331538 40 490.786372688982 40 490.03401540387 40 C 489.293924813622 40 488.923879518498 40 488.18378892825 40 C 487.43143164313796 40 487.05525300058196 40 486.30289571547 40 C 485.5628051252221 40 485.192759830098 40 484.45266923985 40 C 483.700311954738 40 483.32413331218197 40 482.57177602707 40 C 481.83168543682194 40 481.461640141698 40 480.72154955145 40 C 479.969192266338 40 479.593013623782 40 478.84065633867 40 C 478.09647685013795 40 477.7243871058719 40 476.98020761734 40 C 476.22785033222397 40 475.851671689666 40 475.09931440455 40 C 474.359223814306 40 473.98917851918395 40 473.24908792894 40 C 472.4967306438281 40 472.1205520012721 40 471.36819471616 40 C 470.62810412591205 40 470.25805883078795 40 469.51796824054 40 C 468.7656109554279 40 468.3894323128719 40 467.63707502776 40 C 466.89698443751206 40 466.52693914238796 40 465.78684855214 40 C 465.034491267028 40 464.658312624472 40 463.90595533936 40 C 463.16177585082403 40 462.789686106556 40 462.04550661802 40 C 461.293149332908 40 460.916970690352 40 460.16461340524 40 C 459.424522814996 40 459.054477519874 40 458.31438692963 40 C 457.56202964451404 40 457.18585100195594 40 456.43349371684 40 C 455.69340312659597 40 455.323357831474 40 454.58326724123 40 C 453.83090995611803 40 453.45473131356204 40 452.70237402845 40 C 451.962283438202 40 451.59223814307796 40 450.85214755283 40 C 450.099790267718 40 449.723611625162 40 448.97125434005 40 C 448.227074851514 40 447.854985107246 40 447.11080561871 40 C 446.35844833359806 40 445.982269691042 40 445.22991240593 40 C 444.489821815682 40 444.11977652055805 40 443.37968593031 40 C 442.627328645198 40 442.251150002642 40 441.49879271753 40 C 440.75870212728205 40 440.388656832158 40 439.64856624191 40 C 438.896208956798 40 438.5200303142419 40 437.76767302913 40 C 437.02758243888604 40 436.657537143764 40 435.91744655352 40 C 435.165089268408 40 434.788910625852 40 434.03655334074 40 C 433.29237385220404 40 432.920284107936 40 432.1761046194 40 C 431.42374733428795 40 431.04756869173195 40 430.29521140662 40 C 429.5551208163721 40 429.185075521248 40 428.444984931 40 C 427.692627645888 40 427.316449003332 40 426.56409171822 40 C 425.82400112797205 40 425.453955832848 40 424.7138652426 40 C 423.961507957488 40 423.585329314932 40 422.83297202982 40 C 422.092881439572 40 421.722836144448 40 420.9827455542 40 C 420.23038826908794 40 419.854209626532 40 419.10185234142 40 C 418.35767285288404 40 417.98558310861597 40 417.24140362008 40 C 416.48904633496807 40 416.11286769241207 40 415.3605104073 40 C 414.6204198170561 40 414.250374521934 40 413.51028393169 40 C 412.757926646578 40 412.38174800402203 40 411.62939071891 40 C 410.88930012866206 40 410.51925483353796 40 409.77916424329 40 C 409.026806958178 40 408.650628315622 40 407.89827103051 40 C 407.158180440262 40 406.78813514513797 40 406.04804455489 40 C 405.29568726977794 40 404.919508627222 40 404.16715134211 40 C 403.42297185357404 40 403.050882109306 40 402.30670262077 40 C 401.554345335658 40 401.178166693102 40 400.42580940799 40 C 399.685718817742 40 399.315673522618 40 398.57558293237 40 C 397.823225647258 40 397.44704700470203 40 396.69468971959 40 C 395.95459912934604 40 395.584553834224 40 394.84446324398 40 C 394.092105958868 40 393.715927316312 40 392.9635700312 40 C 392.223479440952 40 391.853434145828 40 391.11334355558 40 C 390.360986270468 40 389.98480762791206 40 389.2324503428 40 C 388.488270854264 40 388.11618110999603 40 387.37200162146 40 C 386.619644336348 40 386.243465693792 40 385.49110840868 40 C 384.751017818432 40 384.380972523308 40 383.64088193306 40 C 382.888524647948 40 382.512346005392 40 381.75998872028 40 C 381.01989813003195 40 380.64985283490796 40 379.90976224466 40 C 379.157404959548 40 378.781226316992 40 378.02886903188 40 C 377.288778441636 40 376.918733146514 40 376.17864255627 40 C 375.426285271158 40 375.050106628602 40 374.29774934349 40 C 373.553569854954 40 373.18148011068604 40 372.43730062215 40 C 371.684943337038 40 371.308764694482 40 370.55640740937 40 C 369.81631681912205 40 369.446271523998 40 368.70618093375 40 C 367.953823648638 40 367.577645006082 40 366.82528772097 40 C 366.085197130722 40 365.715151835598 40 364.97506124535 40 C 364.222703960238 40 363.846525317682 40 363.09416803257 40 C 362.35407744232197 40 361.98403214719804 40 361.24394155695 40 C 360.491584271838 40 360.115405629282 40 359.36304834417 40 C 358.618868855634 40 358.246779111366 40 357.50259962283 40 C 356.750242337718 40 356.374063695162 40 355.62170641005 40 C 354.881615819806 40 354.51157052468403 40 353.77147993444 40 C 353.019122649328 40 352.642944006772 40 351.89058672166 40 C 351.150496131412 40 350.78045083628797 40 350.04036024604 40 C 349.28800296092794 40 348.911824318372 40 348.15946703326 40 C 347.419376443012 40 347.049331147888 40 346.30924055764 40 C 345.556883272528 40 345.180704629972 40 344.42834734486 40 C 343.68416785632405 40 343.31207811205604 40 342.56789862352 40 C 341.815541338408 40 341.439362695852 40 340.68700541074 40 C 339.946914820492 40 339.57686952536795 40 338.83677893512 40 C 338.084421650008 40 337.708243007452 40 336.95588572234 40 C 335.46343784698 40 334.71721390929997 40 333.22476603394 40 C 331.732318158584 40 330.986094220906 40 329.49364634555 40 C 327.997109571902 40 327.248841185078 40 325.75230441143 40 C 324.25985653606995 40 323.51363259839 40 322.02118472303 40 C 320.52873684767 40 319.78251290999 40 318.29006503463 40 C 316.79761715927 40 316.05139322159005 40 314.55894534623 40 C 313.062408572586 40 312.31414018576396 40 310.81760341212 40 C 309.32515553676 40 308.57893159907997 40 307.08648372372 40 C 305.59403584836 40 304.84781191068 40 303.35536403532 40 C 301.86291615996004 40 301.11669222228 40 299.62424434692 40 C 298.127707573272 40 297.379439186448 40 295.8829024128 40 C 294.39045453744 40 293.64423059975996 40 292.1517827244 40 C 290.659334849044 40 289.91311091136606 40 288.42066303601 40 C 286.92821516065004 40 286.18199122297 40 284.68954334761 40 C 283.193006573962 40 282.444738187138 40 280.94820141349 40 C 279.45575353813 40 278.70952960044997 40 277.21708172509 40 C 275.72463384972997 40 274.97840991205004 40 273.48596203669 40 C 271.993514161334 40 271.247290223656 40 269.7548423483 40 C 268.25830557465196 40 267.51003718782795 40 266.01350041418 40 C 264.52105253882 40 263.77482860114 40 262.28238072578 40 C 260.78993285042 40 260.04370891274004 40 258.55126103738 40 C 257.05881316202 40 256.31258922434 40 254.82014134898 40 C 253.323604575332 40 252.57533618850798 40 251.07879941486 40 C 249.586351539504 40 248.840127601826 40 247.34767972647 40 C 245.85523185111 40 245.10900791343002 40 243.61656003807 40 C 242.12411216271 40 241.37788822502998 40 239.88544034967 40 C 238.388903576022 40 237.640635189198 40 236.14409841555 40 C 234.65165054019 40 233.90542660251003 40 232.41297872715 40 C 230.920530851794 40 230.17430691411602 40 228.68185903876 40 C 227.18941116340002 40 226.44318722572 40 224.95073935036 40 C 223.45420257671202 40 222.705934189888 40 221.20939741624 40 C 219.71694954087997 40 218.97072560320004 40 217.47827772784 40 C 215.98582985247998 40 215.2396059148 40 213.74715803944 40 C 212.254710164084 40 211.508486226406 40 210.01603835105 40 C 208.51950157740202 40 207.77123319057802 40 206.27469641693 40 C 204.78224854157 40 204.03602460388998 40 202.54357672853 40 C 201.05112885316998 40 200.30490491549 40 198.81245704013 40 C 197.32000916477 40 196.57378522709 40 195.08133735173 40 C 193.58480057808202 40 192.836532191258 40 191.33999541761 40 C 189.847547542254 40 189.10132360457598 40 187.60887572922 40 C 186.11642785386 40 185.37020391617997 40 183.87775604082 40 C 182.38530816546 40 181.63908422778 40 180.14663635242 40 C 178.65009957877197 40 177.90183119194802 40 176.4052944183 40 C 174.91284654294 40 174.16662260526 40 172.6741747299 40 C 171.18172685454402 40 170.43550291686603 40 168.94305504151 40 C 167.45060716615 40 166.70438322847 40 165.21193535311 40 C 163.715398579462 40 162.967130192638 40 161.47059341899 40 C 159.97814554362998 40 159.23192160595 40 157.73947373059 40 C 156.24702585523 40 155.50080191755 40 154.00835404219 40 C 152.515906166834 40 151.769682229156 40 150.2772343538 40 C 148.78069758015198 40 148.03242919332803 40 146.53589241968 40 C 145.04344454432 40 144.29722060664 40 142.80477273128 40 C 141.31232485592 40 140.56610091824 40 139.07365304288 40 C 137.58120516752 40 136.83498122984003 40 135.34253335448 40 C 133.845996580832 40 133.097728194008 40 131.60119142036 40 C 130.10874354500402 40 129.362519607326 40 127.87007173197 40 C 126.37762385660999 40 125.63139991892999 40 124.13895204357 40 C 122.64650416821 40 121.90028023053 40 120.40783235517 40 C 118.91538447981 40 118.16916054213 40 116.67671266677 40 C 115.18426479140999 40 114.43804085373002 40 112.94559297837 40 C 111.45314510301401 40 110.70692116533601 40 109.21447328998 40 C 107.72202541462002 40 106.97580147694 40 105.48335360158 40 C 103.98681682793202 40 103.23854844110801 40 101.74201166746 40 C 100.2495637921008 40 99.50333985442121 40 98.010891979062 40 C 96.5184441037028 40 95.77222016602319 40 94.279772290664 40 C 92.78732441530519 40 92.0411004776258 40 90.548652602267 40 C 89.05211582861901 40 88.303847441795 40 86.807310668147 40 C 85.31486279278779 40 84.5686388551082 40 83.076190979749 40 C 81.5837431043902 40 80.8375191667108 40 79.345071291352 40 C 77.8526234159928 40 77.10639947831321 40 75.613951602954 40 C 74.117414829306 40 73.36914644248199 40 71.872609668834 40 C 70.3801617934752 40 69.6339378557958 40 68.141489980437 40 C 66.6490421050778 40 65.90281816739821 40 64.410370292039 40 C 62.9179224166798 40 62.1716984790002 40 60.679250603641 40 C 59.182713829993396 40 58.4344454431696 40 56.937908669522 40 C 55.4454607941628 40 54.69923685648321 40 53.206788981124 40 C 51.7143411057648 40 50.9681171680852 40 49.475669292726 40 C 47.983221417367204 40 47.23699747968781 40 45.744549604329 40 C 44.248012830681 40 43.499744443857004 40 42.003207670209 40 C 40.5107597948498 40 39.7645358571702 40 38.272087981811 40 C 36.7796401064522 40 36.033416168772796 40 34.540968293414 40 C 33.04852041805479 40 32.3022964803752 40 30.809848605016 40 C 29.313311831368402 40 28.565043444544603 40 27.068506670897 40 C 25.5760587955378 40 24.829834857858202 40 23.337386982499 40 C 21.8449391071398 40 21.0987151694602 40 19.606267294101 40 C 18.113819418741798 40 17.3675954810622 40 15.875147605703 40 C 14.3786108320554 40 13.6303424452316 40 12.133805671584 40 C 10.64135779622488 40 9.89513385854532 40 8.4026859831862 40 C 6.910238107827081 40 6.16401417014752 40 4.6715662947884 40 C 3.5471192654082797 40 1.8604487213381 40 1.8604487213381 40 Z" class="highcharts-area" data-z-index="0" fill-opacity="0.05" aria-hidden="true"></path><path fill="none" d="M 1.8604487213381 24.610052129445002 C 1.8604487213381 24.610052129445002 3.5471192654082797 15.546021691682999 4.6715662947884 15.546021691682999 C 6.16401417014752 15.546021691682999 6.910238107827081 18.34969584088 8.4026859831862 18.34969584088 C 9.89513385854532 18.34969584088 10.64135779622488 15.500395494924 12.133805671584 15.500395494924 C 13.6303424452316 15.500395494924 14.3786108320554 17.939066826423897 15.875147605703 19.538220793494 C 17.3675954810622 21.1330054874303 18.113819418741798 23.48524214744 19.606267294101 23.48524214744 C 21.0987151694602 23.48524214744 21.8449391071398 21.088109357489 23.337386982499 21.088109357489 C 24.829834857858202 21.088109357489 25.5760587955378 21.9281311787559 27.068506670897 22.964515383449 C 28.565043444544603 24.003738996921907 29.313311831368402 26.277128902904 30.809848605016 26.277128902904 C 32.3022964803752 26.277128902904 33.04852041805479 25.955534786569 34.540968293414 25.955534786569 C 36.033416168772796 25.955534786569 36.7796401064522 27.920286505763002 38.272087981811 27.920286505763002 C 39.7645358571702 27.920286505763002 40.5107597948498 26.483498440465752 42.003207670209 22.274326545185 C 43.499744443857004 18.053622672108553 44.248012830681 6.8455970848700005 45.744549604329 6.8455970848700005 C 47.23699747968781 6.8455970848700005 47.983221417367204 6.8455970848700005 49.475669292726 8.107336241454998 C 50.9681171680852 9.369075398039996 51.7143411057648 19.164545830226 53.206788981124 19.72903363089 C 54.69923685648321 20.293521431554 55.4454607941628 19.72903363089 56.937908669522 20.293521431554 C 58.4344454431696 20.858009232218002 59.182713829993396 23.812436771872 60.679250603641 23.812436771872 C 62.1716984790002 23.812436771872 62.9179224166798 22.0067026327264 64.410370292039 21.272787481402 C 65.90281816739821 20.538872330077595 66.6490421050778 20.486565392381443 68.141489980437 20.14286101525 C 69.6339378557958 19.799156638118642 70.3801617934752 19.554265595745 71.872609668834 19.554265595745 C 73.36914644248199 19.554265595745 74.117414829306 22.106572313662 75.613951602954 22.106572313662 C 77.10639947831321 22.106572313662 77.8526234159928 21.897534160689464 79.345071291352 21.426542595237 C 80.8375191667108 20.95555102978466 81.5837431043902 19.7516144864 83.076190979749 19.7516144864 C 84.5686388551082 19.7516144864 85.31486279278779 22.137192040789 86.807310668147 22.137192040789 C 88.303847441795 22.137192040789 89.05211582861901 18.897042858531 90.548652602267 18.897042858531 C 92.0411004776258 18.897042858531 92.78732441530519 27.984087682058 94.279772290664 27.984087682058 C 95.77222016602319 27.984087682058 96.5184441037028 23.984471942696 98.010891979062 23.884767167802 C 99.50333985442121 23.785062392908 100.2495637921008 23.785062392908 101.74201166746 23.785062392908 C 103.23854844110801 23.785062392908 103.98681682793202 26.533704069107998 105.48335360158 26.533704069107998 C 106.97580147694 26.533704069107998 107.72202541462002 13.367163404591999 109.21447328998 13.367163404591999 C 110.70692116533601 13.367163404591999 111.45314510301401 15.253117299999001 112.94559297837 15.253117299999001 C 114.43804085373002 15.253117299999001 115.18426479140999 14.113148491933998 116.67671266677 14.113148491933998 C 118.16916054213 14.113148491933998 118.91538447981 18.888016374608 120.40783235517 18.888016374608 C 121.90028023053 18.888016374608 122.64650416821 15.55300464839 124.13895204357 15.55300464839 C 125.63139991892999 15.55300464839 126.37762385660999 17.81701598022489 127.87007173197 18.789511975689 C 129.362519607326 19.76200797115049 130.10874354500402 20.415484625704 131.60119142036 20.415484625704 C 133.097728194008 20.415484625704 133.845996580832 20.15478540228594 135.34253335448 19.662787876217 C 136.83498122984003 19.17213460568354 137.58120516752 17.958857634198 139.07365304288 17.958857634198 C 140.56610091824 17.958857634198 141.31232485592 18.1353896400428 142.80477273128 18.660861833997 C 144.29722060664 19.1863340279512 145.04344454432 19.236419265222775 146.53589241968 20.586218603969 C 148.03242919332803 21.939716023094775 148.78069758015198 25.419103728677 150.2772343538 25.419103728677 C 151.769682229156 25.419103728677 152.515906166834 17.236038601817 154.00835404219 17.236038601817 C 155.50080191755 17.236038601817 156.24702585523 21.009158408996 157.73947373059 21.009158408996 C 159.23192160595 21.009158408996 159.97814554362998 20.899226182252125 161.47059341899 20.631093846632 C 162.967130192638 20.36222690187332 163.715398579462 19.666660208049 165.21193535311 19.666660208049 C 166.70438322847 19.666660208049 167.45060716615 21.763860995543997 168.94305504151 21.906738764182 C 170.43550291686603 22.04961653282 171.18172685454402 22.04961653282 172.6741747299 22.04961653282 C 174.16662260526 22.04961653282 174.91284654294 22.04961653282 176.4052944183 20.628672524172 C 177.90183119194802 19.207728515524 178.65009957877197 10.779346150165 180.14663635242 10.779346150165 C 181.63908422778 10.779346150165 182.38530816546 10.779346150165 183.87775604082 12.291638753813 C 185.37020391617997 13.803931357461 186.11642785386 19.686313635015 187.60887572922 19.686313635015 C 189.10132360457598 19.686313635015 189.847547542254 13.664349789214 191.33999541761 13.664349789214 C 192.836532191258 13.664349789214 193.58480057808202 13.664349789214 195.08133735173 16.132691625296 C 196.57378522709 18.601033461378 197.32000916477 27.845760151317002 198.81245704013 27.845760151317002 C 200.30490491549 27.845760151317002 201.05112885316998 23.82472695432064 202.54357672853 21.782519683872 C 204.03602460388998 19.740312413423435 204.78224854157 17.634723799074 206.27469641693 17.634723799074 C 207.77123319057802 17.634723799074 208.51950157740202 19.567517039102 210.01603835105 19.567517039102 C 211.508486226406 19.567517039102 212.254710164084 17.87716845557 213.74715803944 17.87716845557 C 215.2396059148 17.87716845557 215.98582985247998 20.3476415932524 217.47827772784 21.196362091674 C 218.97072560320004 22.0450825900956 219.71694954087997 22.120770947678 221.20939741624 22.120770947678 C 222.705934189888 22.120770947678 223.45420257671202 21.817877124002 224.95073935036 21.817877124002 C 226.44318722572 21.817877124002 227.18941116340002 23.172504643935714 228.68185903876 23.990821874757 C 230.17430691411602 24.80913910557612 230.920530851794 24.944112619586907 232.41297872715 25.909463278103 C 233.90542660251003 26.874813936621706 234.65165054019 26.66907763693273 236.14409841555 28.817575167344 C 237.640635189198 30.97195899235821 238.388903576022 36.6666666666667 239.88544034967 36.6666666666667 C 241.37788822502998 36.6666666666667 242.12411216271 36.6666666666667 243.61656003807 33.1504963822351 C 245.10900791343002 29.634326097803495 245.85523185111 17.057723093025995 247.34767972647 16.444003867308 C 248.840127601826 15.830284641590001 249.586351539504 15.830284641590001 251.07879941486 15.830284641590001 C 252.57533618850798 15.830284641590001 253.323604575332 15.830284641590001 254.82014134898 16.688012284879 C 256.31258922434 17.545739928168 257.05881316202 18.898545908994198 258.55126103738 20.423693686849 C 260.04370891274004 21.9488414647038 260.78993285042 24.313751174152998 262.28238072578 24.313751174152998 C 263.77482860114 24.313751174152998 264.52105253882 19.024257768511347 266.01350041418 16.950955803779 C 267.51003718782795 14.871973559692147 268.25830557465196 13.933040652105 269.7548423483 13.933040652105 C 271.247290223656 13.933040652105 271.993514161334 14.284919708853929 273.48596203669 14.970120563236001 C 274.97840991205004 15.655321417619929 275.72463384972997 17.35904492402 277.21708172509 17.35904492402 C 278.70952960044997 17.35904492402 279.45575353813 9.034707152067998 280.94820141349 9.034707152067998 C 282.444738187138 9.034707152067998 283.193006573962 12.845445805000999 284.68954334761 12.845445805000999 C 286.18199122297 12.845445805000999 286.92821516065004 11.897095122178001 288.42066303601 11.897095122178001 C 289.91311091136606 11.897095122178001 290.659334849044 15.59842790370542 292.1517827244 17.263060377441 C 293.64423059975996 18.927692851181018 294.39045453744 19.151677359559432 295.8829024128 20.220257490867 C 297.379439186448 21.291765238972232 298.127707573272 21.753668388534038 299.62424434692 22.613280075973 C 301.11669222228 23.470543097599638 301.86291615996004 24.512444263531002 303.35536403532 24.512444263531002 C 304.84781191068 24.512444263531002 305.59403584836 23.510425762896002 307.08648372372 23.202987720843 C 308.57893159907997 22.89554967879 309.32515553676 23.202987720843 310.81760341212 22.89554967879 C 312.31414018576396 22.588111636737 313.062408572586 19.652305458474 314.55894534623 19.652305458474 C 316.05139322159005 19.652305458474 316.79761715927 21.274502273691 318.29006503463 21.274502273691 C 319.78251290999 21.274502273691 320.52873684767 21.274502273691 322.02118472303 21.247743736499 C 323.51363259839 21.220985199307002 324.25985653606995 20.825847623923 325.75230441143 20.825847623923 C 327.248841185078 20.825847623923 327.997109571902 22.079034545284 329.49364634555 22.079034545284 C 330.986094220906 22.079034545284 331.732318158584 21.500078123571 333.22476603394 21.500078123571 C 334.71721390929997 21.500078123571 335.46343784698 25.778874083231997 336.95588572234 25.778874083231997 C 337.708243007452 25.778874083231997 338.084421650008 24.908102991546198 338.83677893512 24.213845811675 C 339.57686952536795 23.5309080423434 339.946914820492 22.335886710225 340.68700541074 22.335886710225 C 341.439362695852 22.335886710225 341.815541338408 22.596778071671 342.56789862352 22.596778071671 C 343.31207811205604 22.596778071671 343.68416785632405 22.11603675089503 344.42834734486 21.471081274325 C 345.180704629972 20.819038374936632 345.556883272528 19.7087109317 346.30924055764 19.354282131775 C 347.049331147888 18.99985333185 347.419376443012 19.190544496381836 348.15946703326 18.99985333185 C 348.911824318372 18.80600154028223 349.28800296092794 18.543047273748996 350.04036024604 18.392924741526 C 350.78045083628797 18.242802209303 351.150496131412 18.33259527096771 351.89058672166 18.242802209303 C 352.642944006772 18.15152086484851 353.019122649328 18.069295802910194 353.77147993444 17.940238726228 C 354.51157052468403 17.813285841013794 354.881615819806 17.602777304562 355.62170641005 17.602777304562 C 356.374063695162 17.602777304562 356.750242337718 18.44810515867 357.50259962283 18.44810515867 C 358.246779111366 18.44810515867 358.618868855634 18.311381234697134 359.36304834417 18.217367175076 C 360.115405629282 18.122319993920733 360.491584271838 17.975452056729 361.24394155695 17.975452056729 C 361.98403214719804 17.975452056729 362.35407744232197 18.048699566902467 363.09416803257 18.19417270801 C 363.846525317682 18.342057006152068 364.222703960238 18.19417270801 364.97506124535 18.708845654853 C 365.715151835598 19.223518601696 366.085197130722 20.898529280232 366.82528772097 20.898529280232 C 367.577645006082 20.898529280232 367.953823648638 20.898529280232 368.70618093375 20.358744173239 C 369.446271523998 19.818959066246 369.81631681912205 17.347038857574 370.55640740937 17.347038857574 C 371.308764694482 17.347038857574 371.684943337038 17.44217978841993 372.43730062215 17.651901354804 C 373.18148011068604 17.859343338945134 373.553569854954 18.127333900306304 374.29774934349 18.389947733887 C 375.050106628602 18.655447433770306 375.426285271158 18.389947733887 376.17864255627 18.972185188464 C 376.918733146514 19.554422643041 377.288778441636 20.64039678916635 378.02886903188 21.472453081647 C 378.781226316992 22.31830036240315 379.157404959548 23.166944121556 379.90976224466 23.166944121556 C 380.64985283490796 23.166944121556 381.01989813003195 21.902213220799926 381.75998872028 20.198086436855 C 382.512346005392 18.465714457600725 382.888524647948 15.992812874451227 383.64088193306 14.575697213558001 C 384.380972523308 13.181686699306029 384.751017818432 13.170270998991999 385.49110840868 13.170270998991999 C 386.243465693792 13.170270998991999 386.619644336348 14.301451999665002 387.37200162146 14.301451999665002 C 388.11618110999603 14.301451999665002 388.488270854264 13.857432085968 389.2324503428 13.857432085968 C 389.98480762791206 13.857432085968 390.360986270468 14.230607405511527 391.11334355558 15.234830483046998 C 391.853434145828 16.22268035823393 392.223479440952 17.881365225799257 392.9635700312 18.837614467774 C 393.715927316312 19.809713144696058 394.092105958868 19.756552753949997 394.84446324398 20.055700280289 C 395.584553834224 20.354847806628 395.95459912934604 20.354847806628 396.69468971959 20.354847806628 C 397.44704700470203 20.354847806628 397.823225647258 19.389201098422372 398.57558293237 18.179005712092 C 399.315673522618 16.988541772274772 399.685718817742 15.073047623610002 400.42580940799 14.353199491259002 C 401.178166693102 13.633351358908001 401.554345335658 13.633351358908001 402.30670262077 13.633351358908001 C 403.050882109306 13.633351358908001 403.42297185357404 13.746103894251998 404.16715134211 13.746103894251998 C 404.919508627222 13.746103894251998 405.29568726977794 13.476559984325 406.04804455489 13.476559984325 C 406.78813514513797 13.476559984325 407.158180440262 14.333786742509542 407.89827103051 15.175031612822998 C 408.650628315622 16.03021976827754 409.026806958178 17.049715933930543 409.77916424329 17.717642548745 C 410.51925483353796 18.374679055710942 410.88930012866206 18.487439417274 411.62939071891 18.487439417274 C 412.38174800402203 18.487439417274 412.757926646578 18.487439417274 413.51028393169 18.433084231026 C 414.250374521934 18.378729044778 414.6204198170561 18.100974028618 415.3605104073 18.100974028618 C 416.11286769241207 18.100974028618 416.48904633496807 18.462211023423 417.24140362008 18.462211023423 C 417.98558310861597 18.462211023423 418.35767285288404 17.720799935324997 419.10185234142 17.473611910286 C 419.854209626532 17.226423885247 420.23038826908794 17.226423885247 420.9827455542 17.226423885247 C 421.722836144448 17.226423885247 422.092881439572 17.368894696395 422.83297202982 17.368894696395 C 423.585329314932 17.368894696395 423.961507957488 16.824107566302 424.7138652426 16.824107566302 C 425.453955832848 16.824107566302 425.82400112797205 17.256980755649 426.56409171822 17.256980755649 C 427.316449003332 17.256980755649 427.692627645888 14.167200629298002 428.444984931 14.133229720062001 C 429.185075521248 14.099258810826 429.5551208163721 14.099258810826 430.29521140662 14.099258810826 C 431.04756869173195 14.099258810826 431.42374733428795 17.326160076686 432.1761046194 17.748482919714 C 432.920284107936 18.170805762742 433.29237385220404 18.170805762742 434.03655334074 18.170805762742 C 434.788910625852 18.170805762742 435.165089268408 17.521985234756304 435.91744655352 17.300856217388 C 436.657537143764 17.083332564433906 437.02758243888604 17.074174086936 437.76767302913 17.074174086936 C 438.5200303142419 17.074174086936 438.896208956798 18.487617275462 439.64856624191 18.487617275462 C 440.388656832158 18.487617275462 440.75870212728205 17.404063597888 441.49879271753 17.404063597888 C 442.251150002642 17.404063597888 442.627328645198 17.404063597888 443.37968593031 17.731080593948 C 444.11977652055805 18.058097590008 444.489821815682 20.858576551003 445.22991240593 20.944576597828 C 445.982269691042 21.030576644653 446.35844833359806 21.030576644653 447.11080561871 21.030576644653 C 447.854985107246 21.030576644653 448.227074851514 20.22282159557 448.97125434005 20.22282159557 C 449.723611625162 20.22282159557 450.099790267718 21.987000244925 450.85214755283 21.987000244925 C 451.59223814307796 21.987000244925 451.962283438202 21.67119760770554 452.70237402845 21.235902435303 C 453.45473131356204 20.793392425789936 453.83090995611803 19.792487290136 454.58326724123 19.792487290136 C 455.323357831474 19.792487290136 455.69340312659597 20.556661600140806 456.43349371684 20.942425379748 C 457.18585100195594 21.33458303415841 457.56202964451404 21.43313208286607 458.31438692963 21.73729087518 C 459.054477519874 22.03649055674727 459.424522814996 22.089111938014167 460.16461340524 22.450821564451 C 460.916970690352 22.818526378067364 461.293149332908 23.22276210215384 462.04550661802 23.560826975313 C 462.789686106556 23.89521723028624 463.16177585082403 23.862812829020825 463.90595533936 24.131959384782 C 464.658312624472 24.404063595001627 465.034491267028 24.913953890265 465.78684855214 24.913953890265 C 466.52693914238796 24.913953890265 466.89698443751206 24.524751088227333 467.63707502776 24.361292815027 C 468.3894323128719 24.195125288680135 468.7656109554279 24.089889391397 469.51796824054 24.089889391397 C 470.25805883078795 24.089889391397 470.62810412591205 24.559888724323514 471.36819471616 24.733278626521 C 472.1205520012721 24.909542394500313 472.4967306438281 24.964023566839 473.24908792894 24.964023566839 C 473.98917851918395 24.964023566839 474.359223814306 23.308094596923805 475.09931440455 22.476897429437 C 475.851671689666 21.63192351331101 476.22785033222397 20.773595857807 476.98020761734 20.773595857807 C 477.7243871058719 20.773595857807 478.09647685013795 21.293938765903 478.84065633867 21.293938765903 C 479.593013623782 21.293938765903 479.969192266338 21.152927789886977 480.72154955145 20.953110803667 C 481.461640141698 20.75655170309138 481.83168543682194 20.611580390742965 482.57177602707 20.302998548914 C 483.32413331218197 19.989302090922966 483.700311954738 19.78462451500766 484.45266923985 19.397415054117 C 485.192759830098 19.01651879095726 485.5628051252221 18.640682404052214 486.30289571547 18.382734238788 C 487.05525300058196 18.120510689569816 487.43143164313796 18.096985767911 488.18378892825 18.096985767911 C 488.923879518498 18.096985767911 489.293924813622 18.673928854509192 490.03401540387 19.026779910046 C 490.786372688982 19.38547932561839 491.162551331538 19.840396525506 491.91490861665 19.875861945684 C 492.659088105186 19.911327365862 493.03117784945397 19.911327365862 493.77535733799 19.911327365862 C 494.52771462310193 19.911327365862 494.903893265658 19.248347052995907 495.65625055077 18.554449134465 C 496.396341141014 17.871864768955508 496.76638643613603 16.470121655761 497.50647702638 16.470121655761 C 498.25883431149606 16.470121655761 498.63501295405405 17.40634341346734 499.38737023917 17.931092713079 C 500.127460829414 18.44728631758414 500.497506124536 19.072478916053 501.23759671478 19.072478916053 C 501.989953999892 19.072478916053 502.36613264244806 18.946354604011 503.11848992756 18.946354604011 C 503.858580517808 18.946354604011 504.228625812932 18.946354604011 504.96871640318 19.084720943563 C 505.721073688292 19.223087283115 506.097252330848 20.824792750275 506.84960961596 21.028471247338 C 507.59378910449595 21.232149744401 507.96587884876396 21.17999100075729 508.7100583373 21.232149744401 C 509.46241562241204 21.28488166105169 509.83859426496804 21.232149744401 510.59095155008 21.290697898074 C 511.3310421403279 21.349246051747002 511.701087435452 21.784632793381 512.4411780257 21.784632793381 C 513.193535310812 21.784632793381 513.569713953368 21.115532439814817 514.32207123848 20.861286139876 C 515.0621618287239 20.611185160045615 515.432207123846 20.722049228788684 516.17229771409 20.523764593958 C 516.924654999206 20.322193473465482 517.300833641764 19.932536922854 518.05319092688 19.861646751568 C 518.793281517124 19.790756580282 519.163326812246 19.8459522851984 519.90341740249 19.790756580282 C 520.655774687602 19.7346460294276 521.031953330158 19.750447646564837 521.78431061527 19.583381112141 C 522.528490103806 19.418130518308434 522.900579848074 19.51840306438488 523.64475933661 18.959963759641 C 524.3971166217219 18.395387759241682 524.773295264278 16.775842849283 525.52565254939 16.775842849283 C 526.265743139638 16.775842849283 526.635788434762 17.641189644995784 527.37587902501 19.018187286236 C 528.128236310122 20.418008092796985 528.5044149526781 23.717888968786 529.25677223779 23.717888968786 C 529.9968628280379 23.717888968786 530.3669081231619 23.357913095651977 531.10699871341 22.811271204765 C 531.859355998522 22.255568951047177 532.235534641078 22.195296250833703 532.98789192619 20.962028607274 C 533.7279825164339 19.74886858834091 534.098027811556 17.070723624203005 534.8381184018 16.695202048533 C 535.5904756869161 16.319680472863 535.9666543294741 16.319680472863 536.71901161459 16.319680472863 C 537.463191103122 16.319680472863 537.835280847388 18.148249441128996 538.57946033592 18.513557161469 C 539.331817621036 18.878864881809 539.707996263594 18.67617083572478 540.46035354871 18.878864881809 C 541.200444138954 19.078254133661982 541.570489434076 19.342463054798287 542.31058002432 19.518765406312 C 543.062937309432 19.697989896249087 543.439115951988 19.713743858624998 544.1914732371 19.767681985436 C 544.931563827348 19.821620112247 545.301609122472 19.767681985436 546.04169971272 19.821620112247 C 546.7940569978321 19.875558239058 547.170235640388 20.02101698594235 547.9225929255 20.100732710887 C 548.662683515748 20.17914872292515 549.032728810872 20.216949454704 549.77281940112 20.216949454704 C 550.525176686232 20.216949454704 550.901355328788 19.98968985184442 551.6537126139 19.704977070068 C 552.397892102436 19.42335899244082 552.769981846704 18.801122306195 553.51416133524 18.801122306195 C 554.2665186203519 18.801122306195 554.6426972629081 19.410113784507992 555.39505454802 19.776136347737 C 556.135145138264 20.13619115178199 556.505190433386 20.19915469820415 557.24528102363 20.61631572438 C 557.997638308746 21.04039102171135 558.373816951304 21.568215964603 559.12617423642 21.879227156505 C 559.866264826664 22.190238348407 560.2363101217859 22.190238348407 560.97640071203 22.190238348407 C 561.728757997142 22.190238348407 562.104936639698 22.189946072472804 562.85729392481 21.740334526071 C 563.597384515058 21.298053602707203 563.967429810182 21.740334526071 564.70752040043 19.960507173993 C 565.4598776855421 18.180679821915003 565.836056328098 15.732909897794537 566.58841361321 12.389303354976 C 567.3325931017459 9.082040361530538 567.704682846014 3.3333333333330017 568.44886233455 3.3333333333330017 C 569.201219619662 3.3333333333330017 569.577398262218 3.787747771120565 570.32975554733 5.839452963831 C 571.069846137578 7.857706441448165 571.439891432702 11.224443928918605 572.17998202295 13.508230009152001 C 572.932339308062 15.829868897339006 573.308517950618 15.366507129371477 574.06087523573 17.353015384882 C 574.800965825974 19.307134918829878 575.1710111210961 21.12199299327871 575.91110171134 23.359799482798 C 576.663458996456 25.63469668763151 577.039637639014 28.207958970531998 577.79199492413 28.634774620764 C 578.675196954478 29.061590270996 580 29.061590270996 580 29.061590270996" class="highcharts-graph" data-z-index="1" stroke="black" stroke-width="1" stroke-linejoin="round" stroke-linecap="round" filter="none" aria-hidden="false" role="region" tabindex="-1" aria-label="Navigator 1, series 4 of 4 with 221 data points. Y axis, navigator-y-axis. X axis, navigator-x-axis." style="outline: none;"></path></g><g class="highcharts-markers highcharts-series-3 highcharts-areaspline-series highcharts-navigator-series" data-z-index="0.1" opacity="1" transform="translate(10,432) scale(1 1)" clip-path="none" aria-hidden="true"></g></g><text x="300" text-anchor="middle" class="highcharts-title" data-z-index="4" style="font-size: 1em; color: rgb(51, 51, 51); font-weight: bold; fill: rgb(51, 51, 51);" y="17" aria-hidden="true">M2 yearly growth vs. inflation</text><text x="300" text-anchor="middle" class="highcharts-subtitle" data-z-index="4" style="color: rgb(102, 102, 102); font-size: 0.8em; fill: rgb(102, 102, 102);" y="32" aria-hidden="true"></text><text x="10" text-anchor="start" class="highcharts-caption" data-z-index="4" style="color: rgb(102, 102, 102); font-size: 0.8em; fill: rgb(102, 102, 102);" y="494" aria-hidden="true"></text><g class="highcharts-data-labels highcharts-series-3 highcharts-areaspline-series highcharts-navigator-series" data-z-index="6" opacity="1" transform="translate(10,432) scale(1 1)" aria-hidden="true"></g><g class="highcharts-axis-labels highcharts-xaxis-labels" data-z-index="7" aria-hidden="true"><text x="34.277833588889" style="color: rgb(51, 51, 51); cursor: default; font-size: 0.8em; fill: rgb(51, 51, 51);" text-anchor="middle" transform="translate(0,0)" y="410" opacity="1">1875</text><text x="127.61715927316" style="color: rgb(51, 51, 51); cursor: default; font-size: 0.8em; fill: rgb(51, 51, 51);" text-anchor="middle" transform="translate(0,0)" y="410" opacity="1">1900</text><text x="220.95648495744" style="color: rgb(51, 51, 51); cursor: default; font-size: 0.8em; fill: rgb(51, 51, 51);" text-anchor="middle" transform="translate(0,0)" y="410" opacity="1">1925</text><text x="314.29581064171" style="color: rgb(51, 51, 51); cursor: default; font-size: 0.8em; fill: rgb(51, 51, 51);" text-anchor="middle" transform="translate(0,0)" y="410" opacity="1">1950</text><text x="407.63513632598" style="color: rgb(51, 51, 51); cursor: default; font-size: 0.8em; fill: rgb(51, 51, 51);" text-anchor="middle" transform="translate(0,0)" y="410" opacity="1">1975</text><text x="500.97446201026" style="color: rgb(51, 51, 51); cursor: default; font-size: 0.8em; fill: rgb(51, 51, 51);" text-anchor="middle" transform="translate(0,0)" y="410" opacity="1">2000</text></g><g class="highcharts-axis-labels highcharts-xaxis-labels highcharts-navigator-xaxis" data-z-index="7" aria-hidden="true"><text x="130.61715927315998" style="color: rgb(0, 0, 0); cursor: default; font-size: 0.7em; opacity: 0.6; fill: rgb(0, 0, 0);" text-anchor="start" transform="translate(0,0)" y="468" opacity="1"><tspan class="highcharts-text-outline" fill="#FFFFFF" stroke="#FFFFFF" stroke-width="4px" stroke-linejoin="round" style="">1900<tspan x="130.61715927315998" dy="0"></tspan></tspan>1900</text><text x="317.29581064171" style="color: rgb(0, 0, 0); cursor: default; font-size: 0.7em; opacity: 0.6; fill: rgb(0, 0, 0);" text-anchor="start" transform="translate(0,0)" y="468" opacity="1"><tspan class="highcharts-text-outline" fill="#FFFFFF" stroke="#FFFFFF" stroke-width="4px" stroke-linejoin="round">1950<tspan x="317.29581064171" dy="0"></tspan></tspan>1950</text><text x="503.97446201026" style="color: rgb(0, 0, 0); cursor: default; font-size: 0.7em; opacity: 0.6; fill: rgb(0, 0, 0);" text-anchor="start" transform="translate(0,0)" y="468" opacity="1"><tspan class="highcharts-text-outline" fill="#FFFFFF" stroke="#FFFFFF" stroke-width="4px" stroke-linejoin="round">2000<tspan x="503.97446201026" dy="0"></tspan></tspan>2000</text></g><g class="highcharts-axis-labels highcharts-yaxis-labels" data-z-index="7" aria-hidden="true"><text x="590" style="color: rgb(51, 51, 51); cursor: default; font-size: 0.8em; fill: rgb(51, 51, 51);" text-anchor="end" transform="translate(0,0)" y="384" opacity="1">-20 %</text><text x="590" style="color: rgb(51, 51, 51); cursor: default; font-size: 0.8em; fill: rgb(51, 51, 51);" text-anchor="end" transform="translate(0,0)" y="321" opacity="1">-10 %</text><text x="590" style="color: rgb(51, 51, 51); cursor: default; font-size: 0.8em; fill: rgb(51, 51, 51);" text-anchor="end" transform="translate(0,0)" y="258" opacity="1">0 %</text><text x="590" style="color: rgb(51, 51, 51); cursor: default; font-size: 0.8em; fill: rgb(51, 51, 51);" text-anchor="end" transform="translate(0,0)" y="195" opacity="1">10 %</text><text x="590" style="color: rgb(51, 51, 51); cursor: default; font-size: 0.8em; fill: rgb(51, 51, 51);" text-anchor="end" transform="translate(0,0)" y="132" opacity="1">20 %</text><text x="0" style="color: rgb(51, 51, 51); cursor: default; font-size: 0.8em; fill: rgb(51, 51, 51);" text-anchor="end" transform="translate(0,0)" visibility="hidden">30 %</text></g><g class="highcharts-axis-labels highcharts-yaxis-labels highcharts-navigator-yaxis" data-z-index="7" aria-hidden="true"></g><g class="highcharts-range-selector-group" data-z-index="7" transform="translate(0,26)" aria-hidden="false"><g class="highcharts-range-selector-buttons" transform="translate(0,10)" aria-hidden="false"><g class="highcharts-label" transform="translate(10,0)" aria-hidden="true"><text x="0" data-z-index="1" y="14.5" style="color: rgb(102, 102, 102); font-size: 0.8em; fill: rgb(102, 102, 102);">Zoom</text></g><g class="highcharts-no-tooltip highcharts-button highcharts-button-normal" data-z-index="7" style="cursor: pointer;" transform="translate(36,0)" aria-hidden="false" tabindex="-1" role="button"><rect fill="#f7f7f7" class="highcharts-button-box" x="0" y="0" width="32" height="22" rx="2" ry="2" stroke-width="0" stroke="#cccccc"></rect><text x="9.546875" data-z-index="1" y="14.5" style="color: rgb(51, 51, 51); font-size: 0.8em; font-weight: normal; fill: rgb(51, 51, 51);">30y</text></g><g class="highcharts-no-tooltip highcharts-button highcharts-button-normal" data-z-index="7" style="cursor: pointer;" transform="translate(73,0)" aria-hidden="false" tabindex="-1" role="button"><rect fill="#f7f7f7" class="highcharts-button-box" x="0" y="0" width="32" height="22" rx="2" ry="2" stroke-width="0" stroke="#cccccc"></rect><text x="9.546875" data-z-index="1" y="14.5" style="color: rgb(51, 51, 51); font-size: 0.8em; font-weight: normal; fill: rgb(51, 51, 51);">50y</text></g><g class="highcharts-no-tooltip highcharts-button highcharts-button-normal" data-z-index="7" style="cursor: pointer;" transform="translate(110,0)" aria-hidden="false" tabindex="-1" role="button"><rect fill="#f7f7f7" class="highcharts-button-box" x="0" y="0" width="32" height="22" rx="2" ry="2" stroke-width="0" stroke="#cccccc"></rect><text x="9.546875" data-z-index="1" y="14.5" style="color: rgb(51, 51, 51); font-size: 0.8em; font-weight: normal; fill: rgb(51, 51, 51);">80y</text></g><g class="highcharts-no-tooltip highcharts-button highcharts-button-normal" data-z-index="7" style="cursor: pointer;" transform="translate(147,0)" aria-hidden="false" tabindex="-1" role="button"><rect fill="#f7f7f7" class="highcharts-button-box" x="0" y="0" width="32" height="22" rx="2" ry="2" stroke-width="0" stroke="#cccccc"></rect><text x="7.619791030883789" data-z-index="1" y="14.5" style="color: rgb(51, 51, 51); font-size: 0.8em; font-weight: normal; fill: rgb(51, 51, 51);">110y</text></g><g class="highcharts-no-tooltip highcharts-button highcharts-button-pressed" data-z-index="7" style="cursor: pointer;" transform="translate(184,0)" aria-hidden="false" tabindex="-1" role="button"><rect fill="#e6e9ff" class="highcharts-button-box" x="0" y="0" width="32" height="22" rx="2" ry="2" stroke-width="0" stroke="#cccccc"></rect><text x="10.552083015441895" data-z-index="1" y="14.5" style="color: rgb(0, 0, 0); font-size: 0.8em; font-weight: bold; fill: rgb(0, 0, 0);">All</text></g></g><g class="highcharts-input-group" transform="translate(480,10)" aria-hidden="true"><g class="highcharts-label highcharts-range-label" transform="translate(0,0)"><text x="0" data-z-index="1" y="9" style="color: rgb(102, 102, 102); font-family: Helvetica, Arial, sans-serif; font-size: 0.8em; fill: rgb(102, 102, 102);"></text></g><g class="highcharts-label highcharts-range-input" transform="translate(0,0)" style="cursor: pointer;"><rect fill="none" class="highcharts-label-box" x="0.5" y="0.5" width="41" height="21" stroke="none" stroke-width="1"></rect><text x="2" data-z-index="1" y="14" style="color: rgb(51, 78, 255); font-family: Helvetica, Arial, sans-serif; font-size: 0.8em; fill: rgb(51, 78, 255);">1 Jul 1868</text></g><g class="highcharts-label highcharts-range-label" transform="translate(46,0)"><text x="2" data-z-index="1" y="14" style="color: rgb(102, 102, 102); font-family: Helvetica, Arial, sans-serif; font-size: 0.8em; fill: rgb(102, 102, 102);"></text></g><g class="highcharts-label highcharts-range-input" transform="translate(63,0)" style="cursor: pointer;"><rect fill="none" class="highcharts-label-box" x="0.5" y="0.5" width="45" height="21" stroke="none" stroke-width="1"></rect><text x="2" data-z-index="1" y="14" style="color: rgb(51, 78, 255); font-family: Helvetica, Arial, sans-serif; font-size: 0.8em; fill: rgb(51, 78, 255);">5 Nov 2023</text></g></g></g><g class="highcharts-navigator" data-z-index="8" aria-hidden="true"><rect fill="rgb(0,0,0)" fill-opacity="0" class="highcharts-navigator-mask-outside" x="10" y="432" width="0" height="40"></rect><rect fill="rgb(102,122,255)" fill-opacity="0.3" class="highcharts-navigator-mask-inside" style="cursor: ew-resize;" x="10" y="432" width="580" height="40"></rect><rect fill="rgb(0,0,0)" fill-opacity="0" class="highcharts-navigator-mask-outside" x="590" y="432" width="0" height="40"></rect><path fill="none" class="highcharts-navigator-outline" stroke-width="1" stroke="#999999" d="M 10 431.5 L 9.5 431.5 L 9.5 472 M 589.5 472 L 589.5 431.5 L 590 432.5 M 9 431.5 L 590 431.5"></path><path fill="#f2f2f2" d="M -4.5 0.5 L 3.5 0.5 L 3.5 15.5 L -4.5 15.5 L -4.5 0.5 M -1.5 4 L -1.5 12 M 0.5 4 L 0.5 12" data-z-index="6" class="highcharts-navigator-handle highcharts-navigator-handle-right" stroke="#999999" stroke-width="1" style="cursor: ew-resize;" transform="translate(590,444)"></path><path fill="#f2f2f2" d="M -4.5 0.5 L 3.5 0.5 L 3.5 15.5 L -4.5 15.5 L -4.5 0.5 M -1.5 4 L -1.5 12 M 0.5 4 L 0.5 12" data-z-index="7" class="highcharts-navigator-handle highcharts-navigator-handle-left" stroke="#999999" stroke-width="1" style="cursor: ew-resize;" transform="translate(10,444)"></path></g><text x="590" class="highcharts-credits" text-anchor="end" data-z-index="8" y="495" style="cursor: pointer; color: rgb(153, 153, 153); font-size: 0.6em; fill: rgb(153, 153, 153);" aria-label="Chart credits: Longtermtrends.net" aria-hidden="false">Longtermtrends.net</text></svg>