<?xml version="1.0" standalone="no"?><!DOCTYPE svg PUBLIC "-//W3C//DTD SVG 1.1//EN" "http://www.w3.org/Graphics/SVG/1.1/DTD/svg11.dtd"><svg xmlns:xlink="http://www.w3.org/1999/xlink" version="1.1" class="highcharts-root" style="font-family: &quot;Lucida Grande&quot;, &quot;Lucida Sans Unicode&quot;, Arial, Helvetica, sans-serif; font-size: 12px;" xmlns="http://www.w3.org/2000/svg" width="600" height="500" viewBox="0 0 600 500" aria-label="Interactive chart" aria-hidden="false"><desc aria-hidden="true">Created with Highcharts 10.3.1</desc><defs aria-hidden="true"><clipPath id="highcharts-1szrzm7-20545-"><rect x="0" y="0" width="580" height="299" fill="none"></rect></clipPath><clipPath id="highcharts-1szrzm7-20767-"><rect x="0" y="0" width="580" height="299" fill="none"></rect></clipPath><clipPath id="highcharts-1szrzm7-21256-"><rect x="0" y="0" width="552" height="40" fill="none"></rect></clipPath></defs><rect fill="#ffffff" class="highcharts-background" x="0" y="0" width="600" height="500" rx="0" ry="0" aria-hidden="true"></rect><rect fill="none" class="highcharts-plot-background" x="10" y="85" width="580" height="299" aria-hidden="true"></rect><g class="highcharts-grid highcharts-xaxis-grid" data-z-index="1" aria-hidden="true"><path fill="none" stroke-dasharray="none" data-z-index="1" class="highcharts-grid-line" d="M 33.5 85 L 33.5 384" opacity="1"></path><path fill="none" stroke-dasharray="none" data-z-index="1" class="highcharts-grid-line" d="M 127.5 85 L 127.5 384" opacity="1"></path><path fill="none" stroke-dasharray="none" data-z-index="1" class="highcharts-grid-line" d="M 220.5 85 L 220.5 384" opacity="1"></path><path fill="none" stroke-dasharray="none" data-z-index="1" class="highcharts-grid-line" d="M 314.5 85 L 314.5 384" opacity="1"></path><path fill="none" stroke-dasharray="none" data-z-index="1" class="highcharts-grid-line" d="M 408.5 85 L 408.5 384" opacity="1"></path><path fill="none" stroke-dasharray="none" data-z-index="1" class="highcharts-grid-line" d="M 501.5 85 L 501.5 384" opacity="1"></path></g><g class="highcharts-grid highcharts-xaxis-grid highcharts-navigator-xaxis" data-z-index="1" aria-hidden="true"><path fill="none" stroke="#e6e6e6" stroke-width="1" stroke-dasharray="none" data-z-index="1" class="highcharts-grid-line" d="M 135.5 431 L 135.5 471" opacity="1"></path><path fill="none" stroke="#e6e6e6" stroke-width="1" stroke-dasharray="none" data-z-index="1" class="highcharts-grid-line" d="M 313.5 431 L 313.5 471" opacity="1"></path><path fill="none" stroke="#e6e6e6" stroke-width="1" stroke-dasharray="none" data-z-index="1" class="highcharts-grid-line" d="M 491.5 431 L 491.5 471" opacity="1"></path></g><g class="highcharts-grid highcharts-yaxis-grid" data-z-index="1" aria-hidden="true"><path fill="none" stroke="#e6e6e6" stroke-width="1" stroke-dasharray="none" data-z-index="1" class="highcharts-grid-line" d="M 10 384.5 L 590 384.5" opacity="1"></path><path fill="none" stroke="#e6e6e6" stroke-width="1" stroke-dasharray="none" data-z-index="1" class="highcharts-grid-line" d="M 10 324.5 L 590 324.5" opacity="1"></path><path fill="none" stroke="#e6e6e6" stroke-width="1" stroke-dasharray="none" data-z-index="1" class="highcharts-grid-line" d="M 10 264.5 L 590 264.5" opacity="1"></path><path fill="none" stroke="#e6e6e6" stroke-width="1" stroke-dasharray="none" data-z-index="1" class="highcharts-grid-line" d="M 10 205.5 L 590 205.5" opacity="1"></path><path fill="none" stroke="#e6e6e6" stroke-width="1" stroke-dasharray="none" data-z-index="1" class="highcharts-grid-line" d="M 10 145.5 L 590 145.5" opacity="1"></path><path fill="none" stroke="#e6e6e6" stroke-width="1" stroke-dasharray="none" data-z-index="1" class="highcharts-grid-line" d="M 10 84.5 L 590 84.5" opacity="1"></path></g><g class="highcharts-grid highcharts-yaxis-grid highcharts-navigator-yaxis" data-z-index="1" aria-hidden="true"><path fill="none" stroke-dasharray="none" data-z-index="1" class="highcharts-grid-line" d="M 24 457.5 L 576 457.5" opacity="1"></path></g><rect fill="none" class="highcharts-plot-border" data-z-index="1" x="10" y="85" width="580" height="299" aria-hidden="true"></rect><g class="highcharts-axis highcharts-xaxis" data-z-index="2" aria-hidden="true"><path fill="none" class="highcharts-tick" stroke="#ccd6eb" stroke-width="1" d="M 33.5 384 L 33.5 394" opacity="1"></path><path fill="none" class="highcharts-tick" stroke="#ccd6eb" stroke-width="1" d="M 127.5 384 L 127.5 394" opacity="1"></path><path fill="none" class="highcharts-tick" stroke="#ccd6eb" stroke-width="1" d="M 220.5 384 L 220.5 394" opacity="1"></path><path fill="none" class="highcharts-tick" stroke="#ccd6eb" stroke-width="1" d="M 314.5 384 L 314.5 394" opacity="1"></path><path fill="none" class="highcharts-tick" stroke="#ccd6eb" stroke-width="1" d="M 408.5 384 L 408.5 394" opacity="1"></path><path fill="none" class="highcharts-tick" stroke="#ccd6eb" stroke-width="1" d="M 501.5 384 L 501.5 394" opacity="1"></path><path fill="none" class="highcharts-axis-line" stroke="#ccd6eb" stroke-width="1" data-z-index="7" d="M 10 384.5 L 590 384.5"></path></g><g class="highcharts-axis highcharts-xaxis highcharts-navigator-xaxis" data-z-index="2" aria-hidden="true"><path fill="none" class="highcharts-axis-line" data-z-index="7" d="M 24 471 L 576 471"></path></g><g class="highcharts-axis highcharts-yaxis" data-z-index="2" aria-hidden="true"><path fill="none" class="highcharts-axis-line" data-z-index="7" d="M 590 85 L 590 384"></path></g><g class="highcharts-axis highcharts-yaxis highcharts-navigator-yaxis" data-z-index="2" aria-hidden="true"><path fill="none" class="highcharts-axis-line" data-z-index="7" d="M 10 431 L 10 471"></path></g><g class="highcharts-scrollbar" data-z-index="3" transform="translate(10,472)" aria-hidden="true"><rect fill="#f2f2f2" class="highcharts-scrollbar-track" x="0" rx="0" ry="0" height="14" width="580" stroke="#f2f2f2" stroke-width="1" y="-0.5"></rect><g transform="translate(14,-0.5)"><rect fill="#cccccc" class="highcharts-scrollbar-thumb" height="14" width="552" rx="0" ry="0" stroke="#cccccc" stroke-width="1"></rect><path fill="none" d="M -3 3.5 L -3 9.333333333333334 M 0 3.5 L 0 9.333333333333334 M 3 3.5 L 3 9.333333333333334" class="highcharts-scrollbar-rifles" stroke="#333333" stroke-width="1" transform="translate(275.5,0)"></path></g><g><rect fill="#e6e6e6" class="highcharts-scrollbar-button" stroke="#cccccc" stroke-width="1" x="-0.5" y="-0.5" width="14" height="14" rx="0" ry="0"></rect><path fill="#333333" d="M 8 4 L 8 10 L 5 7" class="highcharts-scrollbar-arrow"></path></g><g transform="translate(566,0)"><rect fill="#e6e6e6" class="highcharts-scrollbar-button" stroke="#cccccc" stroke-width="1" x="-0.5" y="-0.5" width="14" height="14" rx="0" ry="0"></rect><path fill="#333333" d="M 6 4 L 6 10 L 9 7" class="highcharts-scrollbar-arrow"></path></g></g><g class="highcharts-series-group" data-z-index="3" aria-hidden="false"><g class="highcharts-series highcharts-series-0 highcharts-line-series" data-z-index="0.1" opacity="1" transform="translate(10,85) scale(1 1)" clip-path="url(#highcharts-1szrzm7-20767-)" aria-hidden="false"><path fill="none" d="M 0 172.86448087432 L 3.7394238072528 114.75135135135 L 7.4788476145055 132.72682926829 L 11.218271421758 114.45882352941001 L 14.967940225743 140.34693877551 L 18.707364032996 165.65287356322 L 22.446787840249 150.28389513109 L 26.186211647501 162.31428571429 L 29.935880451486 183.55277777778 L 33.675304258739 181.49090909091 L 37.414728065992 194.08771929825 L 41.154151873245 157.88920863309 L 44.90382067723 58.96944444444 L 48.643244484482 67.05895953756999 L 52.382668291735 141.5703163017 L 56.122092098988 145.18947368421 L 59.871760902973 167.75064935065 L 63.611184710226 151.46794055202 L 67.350608517478 144.22352941176 L 71.090032324731 140.44980842912 L 74.839701128716 156.81366906475 L 78.579124935969 152.45372616984 L 82.318548743222 141.71509121061 L 86.057972550474 157.00998439938 L 89.807641354459 136.23609022556 L 93.547065161712 194.49677419354998 L 97.286488968965 168.21438848921 L 101.02591277622 167.57514124294 L 104.7755815802 185.19778393352 L 108.51500538746 100.78181818182 L 112.25442919471 112.87342398022 L 115.99385300196 105.56462736373999 L 119.73327680921 136.17821782178 L 123.47270061647 114.79612188365999 L 127.21212442372 135.54666666667 L 130.95154823097 145.97142857143 L 134.70121703496 141.14558823529 L 138.44064084221 130.2210089841 L 142.18006464946 134.72183908046 L 145.91948845671 147.0660724896 L 149.6691572607 178.05163472379002 L 153.40858106795 125.58672665917001 L 157.14800487521 149.77770897833 L 160.88742868246 147.35378564405 L 164.63709748644 141.17041530565 L 168.3765212937 155.53245614035 L 172.11594510095 156.44850274146 L 175.8553689082 147.33826157595 L 179.60503771219 84.19028527371 L 183.34446151944 93.88619886931 L 187.08388532669 141.29642129764 L 190.82330913394 102.68719912473 L 194.57297793793 118.51272727272999 L 198.31240174518 193.60990099010002 L 202.05182555243 154.73603786342 L 205.79124935969 128.14285714286 L 209.54091816367 140.53476874003 L 213.28034197093 129.69726694122 L 217.01976577818 150.97794676806 L 220.75918958543 156.90470219436 L 224.50885838942 154.9627285737 L 228.24828219667 168.89434769325 L 231.98770600392 181.19552619727 L 235.72712981117 199.840596295738 L 239.47679861516 250.164265668852 L 243.21622242241 227.620689655173 L 246.95564622966 120.50867474514001 L 250.69507003692 116.57387497811001 L 254.4447388409 122.07311044209001 L 258.18416264815 146.02406015038 L 261.92358645541 170.96477677349 L 265.66301026266 123.75894665766 L 269.41267906665 104.40988386459 L 273.1521028739 111.05901855308 L 276.89152668115 126.37536945813 L 280.6309504884 73.00470588235001 L 284.38061929239 97.436877689 L 288.12004309964 91.35662162162001 L 291.85946690689 125.75997408563 L 295.59889071415 144.7197492163 L 299.34855951813 160.06237547893 L 303.08798332538 172.23867775139001 L 306.82740713264 163.84322738386 L 310.56683093989 161.87211895911 L 314.31649974388 141.07838125666 L 318.05592355113 151.4789347722 L 321.79534735838 151.30737507275 L 325.53477116563 148.60243011436 L 329.28443996962 156.63711340206 L 333.02386377687 152.92519189494 L 336.76328758412 180.35826656448 L 338.64836698285 170.32424347988 L 340.50271139138 158.28389550766 L 342.3877907901 159.95657451985 L 344.25238019536 152.73928148041 L 346.13745959409 139.16763434288 L 347.99180400261 136.89524934835 L 349.87688340134 133.00398706466 L 351.73122780987 132.04149138249 L 353.61630720859 130.10163570774 L 355.47065161712 127.93803537112001 L 357.35573101584 133.35777082021 L 359.2203204211 131.87841719065 L 361.10539981983 130.32740247346 L 362.95974422836 131.72970817229 L 364.84482362708 135.02948257477 L 366.69916803561 149.0684213239 L 368.58424743433 145.60764280461 L 370.43859184286 126.29839375738999 L 372.32367124159 128.25298933271 L 374.18826064685 132.98490027632 L 376.07334004557 136.71785779927 L 377.9276844541 152.7480766866 L 379.81276385283 163.61213743241 L 381.66710826135 144.57760170893 L 383.55218766008 108.53021248120001 L 385.40653206861 99.51946210885 L 387.29161146733 106.77191657239001 L 389.15620087259 103.92512706384 L 391.04128027132 112.75617987238999 L 392.89562467984 135.85507100976 L 394.78070407857 143.66470702972 L 396.6350484871 145.58266163766 L 398.52012788582 131.63246648667 L 400.37447229435 107.10369046726001 L 402.25955169307 102.48845577233001 L 404.12414109833 103.21135743682001 L 406.00922049706 101.48320347075 L 407.86356490559 112.37278536433001 L 409.74864430431 128.67448245817 L 411.60298871284 133.60995850654 L 413.48806811156 133.26146563679 L 415.34241252009 131.13217411014 L 417.22749191882 133.44820916891 L 419.09208132408 127.10990429422 L 420.9771607228 125.52508286029001 L 422.83150513133 126.43852029391999 L 424.71658453005 122.94567180108999 L 426.57092893858 125.72099519527 L 428.45600833731 105.69337616032999 L 430.31035274584 105.47557505497 L 432.19543214456 128.87221242885 L 434.06002154982 131.57989332709 L 435.94510094855 126.00229835377999 L 437.79944535707 124.54894842319999 L 439.6845247558 133.61109882661 L 441.53886916433 126.66400220748 L 443.42394856305 128.76063914827 L 445.27829297158 149.36364912019 L 447.1633723703 149.91502986571 L 449.02796177556 144.73618871854 L 450.91304117429 156.04704464026 L 452.76738558282 151.23145574803 L 454.65246498154 141.97714312601 L 456.50680939007 149.34985679946 L 458.39188878879 154.44605785555 L 460.24623319732 159.02078889258 L 462.13131259605 166.13747816846 L 463.99590200131 169.79923679936 L 465.88098140003 174.81291678372 L 467.73532580856 171.26958527483 L 469.62040520728 169.52950922162 L 471.47474961581 173.65453530258 L 473.35982901454 175.13393353447 L 475.21417342307 159.18797170709 L 477.09925282179 148.26742311356 L 478.96384222705 151.60354990861 L 480.84892162578 149.418365332 L 482.7032660343 145.25023527944 L 484.58834543303 139.4441767839 L 486.44268984156 132.93865167004 L 488.32776924028 131.10660377335 L 490.18211364881 137.06788642599 L 492.06719304753 142.51169143651 L 493.93178245279 142.73907445012 L 495.81686185152 134.03958464263 L 497.67120626005 120.67612634778999 L 499.55628565877 130.04299695422 L 501.4106300673 137.36088105717 L 503.29570946602 136.55224757651 L 505.15005387455 137.43936959879 L 507.03513327328 149.90153132025 L 508.89972267854 151.2073957436 L 510.78480207726 151.5827714069 L 512.63914648579 154.74958585484 L 514.52422588451 148.82964063421 L 516.37857029304 146.66565481692 L 518.26364969177 142.42055213347 L 520.11799410029 141.96604685194 L 522.00307349902 140.63647966627 L 523.86766290428 136.63950132408 L 525.752742303 122.63622736897 L 527.60708671153 137.01279567316 L 529.49216611026 167.14446551614 L 531.34651051879 161.33177590635 L 533.23158991751 149.47554094275 L 535.08593432604 122.11920689656 L 536.97101372476 119.71158766850999 L 538.83560313002 133.77740982543 L 540.72068252875 136.11954393603 L 542.57502693728 140.22220249589 L 544.460106336 141.81810638239 L 546.31445074453 142.16392531704 L 548.19953014325 143.95342797898 L 550.05387455178 144.6985400715 L 551.93895395051 141.41608005497 L 553.80354335577 135.62110514579 L 555.68862275449 141.8723106853 L 557.54296716302 147.25903718326 L 559.42804656174 155.3560682044 L 561.28239097027 157.35008552398 L 563.167470369 154.46557192048 L 565.02181477752 143.05438589788 L 566.90689417625 94.51236574464 L 568.77148358151 36.45076582278 L 570.65656298023 52.51939057714 L 572.51090738876 101.68723006298 L 574.39598678749 126.33736916005 L 576.25033119602 164.84048658828 L 578.13541059474 198.41785318832 L 579.98975500327 198.98091937791" class="highcharts-graph" data-z-index="1" stroke="black" stroke-width="2" stroke-linejoin="round" stroke-linecap="round" aria-hidden="false" role="region" tabindex="-1" aria-label="M2 Growth Rate, series 1 of 4. Line with 221 data points. Y axis, values. X axis, Time." style="outline: none;"></path></g><g class="highcharts-markers highcharts-series-0 highcharts-line-series" data-z-index="0.1" opacity="1" transform="translate(10,85) scale(1 1)" clip-path="none" aria-hidden="true"></g><g class="highcharts-series highcharts-series-1 highcharts-line-series" data-z-index="0.1" opacity="1" transform="translate(10,85) scale(1 1)" clip-path="url(#highcharts-1szrzm7-20767-)" aria-hidden="false"><path fill="none" d="M 11.218271421758 170.268310368 L 14.967940225743 165.91233724 L 18.707364032996 205.784070362 L 22.446787840249 220.796945278 L 26.186211647501 213.99789158800002 L 29.935880451486 174.153305274 L 33.675304258739 273.001668342 L 37.414728065992 241.046730444 L 41.154151873245 55.67383946800001 L 44.90382067723 213.573509526 L 48.643244484482 131.077087492 L 52.382668291735 190.575113638 L 56.122092098988 224.966289782 L 59.871760902973 241.046730444 L 63.611184710226 200.02141107 L 67.350608517478 179.4 L 71.090032324731 150.921563208 L 74.839701128716 206.58386486400002 L 78.579124935969 207.876019676 L 82.318548743222 164.45009568 L 86.057972550474 215.863497902 L 89.807641354459 132.80221942 L 93.547065161712 258.65340345 L 97.286488968965 204.316165742 L 101.02591277622 170.733761276 L 104.7755815802 196.48561049 L 108.51500538746 161.811874562 L 112.25442919471 170.85683147 L 115.99385300196 78.32952693799999 L 119.73327680921 193.8101555 L 123.47270061647 164.634024932 L 127.21212442372 121.76121685000001 L 130.95154823097 205.68553012799998 L 134.70121703496 165.65589989 L 138.44064084221 179.4 L 142.18006464946 152.523659626 L 145.91948845671 192.257449098 L 149.6691572607 159.687251126 L 153.40858106795 115.78055905 L 157.14800487521 219.65334144000002 L 160.88742868246 185.560999052 L 164.63709748644 135.797545806 L 168.3765212937 167.19591836735 L 170.26160069242 173.28726276723 L 172.11594510095 170.4096659666 L 174.00102449967 171.33564969422 L 175.8553689082 174.45633210379998 L 177.74044830693 143.65695569557 L 179.60503771219 114.23998590464001 L 181.49011711091 72.70353305922 L 183.34446151944 66.07125221614999 L 185.22954091816 88.51197089946999 L 187.08388532669 65.71919380093999 L 188.96896472542 83.32969877635 L 190.82330913394 93.24021467325 L 192.70838853267 52.67227067959999 L 194.57297793793 134.43867930284 L 196.45805733665 247.528199281113 L 198.31240174518 250.528880018308 L 200.19748114391 219.74332208365 L 202.05182555243 201.606835194725 L 203.93690495116 172.84227661891998 L 205.79124935969 160.92322996445 L 207.67632875841 174.64719240708 L 209.54091816367 181.71451916785 L 211.4259975624 168.87448687077 L 213.28034197093 157.35276187386 L 215.16542136965 165.51364730659 L 217.01976577818 187.78042430746 L 218.9048451769 192.26622919931 L 220.75918958543 188.46097296333 L 222.64426898416 188.55207146711 L 224.50885838942 184.00559073311 L 226.39393778814 181.14176073258 L 228.24828219667 176.49254725961998 L 230.13336159539 186.34694474411 L 231.98770600392 211.20363584837 L 233.87278540265 232.00959193377702 L 235.72712981117 236.774003027568 L 237.6122092099 240.29148924715201 L 239.47679861516 241.461648175172 L 241.36187801388 226.84622769139 L 243.21622242241 180.77310673073 L 245.10130182114 150.30434640326 L 246.95564622966 165.80909090909 L 248.84072562839 161.44859162832 L 250.69507003692 168.30364490185 L 252.58014943564 177.93446877534 L 254.4447388409 167.79699918897 L 256.32981823963 155.50295121567 L 258.18416264815 160.18362039851 L 260.06924204688 187.70105069637998 L 261.92358645541 197.26761370371 L 263.80866585413 191.39663703259998 L 265.66301026266 182.23247213779 L 267.54808966139 171.46594724221 L 269.41267906665 176.51645382782 L 271.29775846537 163.05648429585 L 273.1521028739 124.73480243161 L 275.03718227262 106.67958155145999 L 276.89152668115 124.65650434713999 L 278.77660607988 136.18647998886 L 280.6309504884 155.49670871377 L 282.51602988713 172.43165577361 L 284.38061929239 167.35802050805 L 286.26569869111 165.7471644115 L 288.12004309964 165.91118305508 L 290.00512249837 155.55544152019 L 291.85946690689 86.54075243356999 L 293.74454630562 74.12703351212 L 295.59889071415 117.37879737411001 L 297.48397011287 126.16282646427999 L 299.34855951813 148.98495747103 L 301.23363891686 180.10860258988998 L 303.08798332538 193.33926996799 L 304.97306272411 181.89852857479002 L 306.82740713264 153.69678265997 L 308.71248653136 125.99772350539001 L 310.56683093989 142.25528975031 L 312.45191033861 165.51234343435 L 314.31649974388 169.86739191425 L 316.2015791426 174.11598490603 L 318.05592355113 174.16982249632 L 319.94100294985 174.53181601428 L 321.79534735838 182.36131993208 L 323.68042675711 183.10646303797 L 325.53477116563 177.90826962122 L 327.41985056436 172.68925596735 L 329.28443996962 165.29166158057 L 331.16951936834 158.36612428669 L 333.02386377687 159.81427160026 L 334.9089431756 160.49800915844 L 336.76328758412 167.80650935272 L 338.64836698285 175.94165488305998 L 340.50271139138 171.13150777552 L 342.3877907901 169.43676231851 L 344.25238019536 171.24540181026 L 346.13745959409 172.64059294507 L 347.99180400261 174.36740280549 L 349.87688340134 172.38319910515 L 351.73122780987 171.42222222222 L 353.61630720859 172.46621821893 L 355.47065161712 171.19940000578998 L 357.35573101584 171.23801340385 L 359.2203204211 172.92704354509 L 361.10539981983 170.38533036104 L 362.95974422836 168.51522461939 L 364.84482362708 163.22186346095 L 366.69916803561 158.02026191261 L 368.58424743433 163.02834992303 L 370.43859184286 162.4039628318 L 372.32367124159 155.05229147673 L 374.18826064685 151.94981569924 L 376.07334004557 147.6299457897 L 377.9276844541 144.13078169065 L 379.81276385283 143.46400941173 L 381.66710826135 146.35341704706 L 383.55218766008 152.22071986736 L 385.40653206861 157.15478325138 L 387.29161146733 160.08099928632 L 389.15620087259 159.19370299003 L 391.04128027132 148.72690702256 L 392.89562467984 130.66692492935 L 394.78070407857 116.02599614943 L 396.6350484871 108.42365473164 L 398.52012788582 119.34329077307001 L 400.37447229435 134.5754700093 L 402.25955169307 143.58908876987 L 404.12414109833 147.87427538036 L 406.00922049706 139.80452115008 L 407.86356490559 139.66236665385 L 409.74864430431 137.97055690468 L 411.60298871284 127.31329318957 L 413.48806811156 116.16918646609 L 415.34241252009 103.76833689156999 L 417.22749191882 94.09284028537999 L 419.09208132408 104.42192900513001 L 420.9771607228 117.61855096823001 L 422.83150513133 120.79398291147999 L 424.71658453005 138.43891449959 L 426.57092893858 151.33082426785 L 428.45600833731 159.89222821588 L 430.31035274584 159.94630500768 L 432.19543214456 152.86831527979 L 434.06002154982 155.12929469186 L 435.94510094855 157.48135231991 L 437.79944535707 158.55002644803 L 439.6845247558 167.64625225726 L 441.53886916433 170.78625396958 L 443.42394856305 159.11846263117 L 445.27829297158 153.30392014194 L 447.1633723703 155.722127666 L 449.02796177556 153.70849539114 L 450.91304117429 149.06141745523 L 452.76738558282 151.44987210655 L 454.65246498154 150.43040488947 L 456.50680939007 143.41997057961 L 458.39188878879 150.30486049567 L 460.24623319732 160.69659618028 L 462.13131259605 161.00790636918 L 463.99590200131 160.91621802184 L 465.88098140003 160.9097084839 L 467.73532580856 163.29725380692 L 469.62040520728 164.51434053884 L 471.47474961581 162.82912439899 L 473.35982901454 161.70024825447 L 475.21417342307 163.61098633739 L 477.09925282179 162.47319722227 L 478.96384222705 160.96677222824 L 480.84892162578 164.39736111967 L 482.7032660343 167.87199788773 L 484.58834543303 170.1261771837 L 486.44268984156 170.00982460314 L 488.32776924028 167.63398457168 L 490.18211364881 163.95253715431 L 492.06719304753 158.84206094094 L 493.93178245279 158.59048920682 L 495.81686185152 160.15777947673 L 497.67120626005 167.35630067235 L 499.55628565877 171.45998713737 L 501.4106300673 166.92597990506 L 503.29570946602 164.94258127581 L 505.15005387455 167.34999548962 L 507.03513327328 164.42596003605 L 508.89972267854 161.3306991794 L 510.78480207726 161.29309581625 L 512.63914648579 155.94630210638 L 514.52422588451 156.34046560237 L 516.37857029304 165.66961105116 L 518.26364969177 163.94787141293 L 520.11799410029 158.54068792696 L 522.00307349902 152.74678378257 L 523.86766290428 164.29571309061 L 525.752742303 185.07065866483 L 527.60708671153 175.1821736604 L 529.49216611026 168.43341129821 L 531.34651051879 171.69107623188 L 533.23158991751 160.7533545913 L 535.08593432604 159.02137783762 L 536.97101372476 166.84007142393 L 538.83560313002 168.49046119182 L 540.72068252875 169.84000490782 L 542.57502693728 171.44195481742 L 544.460106336 168.65275238869 L 546.31445074453 172.41200087008002 L 548.19953014325 179.44472681238 L 550.05387455178 176.47585160106001 L 551.93895395051 173.58022977505 L 553.80354335577 169.00491898157 L 555.68862275449 166.88724406624 L 557.54296716302 166.84674432014 L 559.42804656174 163.79586234603 L 561.28239097027 166.30717147818 L 563.167470369 168.80615520578 L 565.02181477752 167.39205333246 L 566.90689417625 173.46680497635 L 568.77148358151 171.62665039311 L 570.65656298023 155.27537859718 L 572.51090738876 141.3385284047 L 574.39598678749 128.73122772927 L 576.25033119602 135.36262162969 L 578.13541059474 153.3416768789" class="highcharts-graph" data-z-index="1" stroke="red" stroke-width="2" stroke-linejoin="round" stroke-linecap="round" aria-hidden="false" role="region" tabindex="-1" aria-label="Inflation Rate, series 2 of 4. Line with 262 data points. Y axis, values. X axis, Time." style="outline: none;"></path></g><g class="highcharts-markers highcharts-series-1 highcharts-line-series" data-z-index="0.1" opacity="1" transform="translate(10,85) scale(1 1)" clip-path="none" aria-hidden="true"></g><g class="highcharts-series highcharts-series-2 highcharts-flags-series highcharts-color-0" data-z-index="0.1" opacity="1" transform="translate(10,85) scale(1 1)" clip-path="url(#highcharts-1szrzm7-20767-)" aria-hidden="true"></g><g class="highcharts-markers highcharts-series-2 highcharts-flags-series highcharts-color-0" data-z-index="0.1" opacity="1" transform="translate(10,85) scale(1 1)" clip-path="url(#highcharts-1szrzm7-20767-)" aria-hidden="false" role="region" tabindex="-1" aria-label="M2 Growth peaks, series 3 of 4 with 5 data points. Y axis, values. X axis, Time." style="outline: none;"><g class="highcharts-label highcharts-point" transform="translate(163,59)" tabindex="-1" role="img" aria-label="First World War, 15.11. M2 Growth peaks." style="outline: none;"><path fill="#ffffff" class="highcharts-label-box" d="M 0.5 0.5 L 35.5 0.5 L 35.5 20.5 L 0.5 20.5 Z M 18 20.5 L 17.5 30.051524144928635 M 17.5 31.051524144928635 A 1 1 0 1 1 17.500999999833333 31.051523644928675 Z" stroke="#7cb5ec" stroke-width="1"></path><text x="3" data-z-index="1" y="14" style="font-size: 11px; font-weight: bold;">1916</text></g><g class="highcharts-label highcharts-point" transform="translate(264,55)" tabindex="-1" role="img" aria-label="Second World War, 15.75. M2 Growth peaks." style="outline: none;"><path fill="#ffffff" class="highcharts-label-box" d="M 0.5 0.5 L 35.5 0.5 L 35.5 20.5 L 0.5 20.5 Z M 18 20.5 L 18.5 30.220791785675004 M 18.5 31.220791785675004 A 1 1 0 1 1 18.500999999833333 31.220791285675045 Z" stroke="#7cb5ec" stroke-width="1"></path><text x="3" data-z-index="1" y="14" style="font-size: 11px; font-weight: bold;">1943</text></g><g class="highcharts-label highcharts-point" transform="translate(476,99)" tabindex="-1" role="img" aria-label="Early 2000 Recession, 8.44. M2 Growth peaks." style="outline: none;"><path fill="#ffffff" class="highcharts-label-box" d="M 0.5 0.5 L 35.5 0.5 L 35.5 20.5 L 0.5 20.5 Z M 18 20.5 L 22.5 29.923045033885984 M 22.5 30.923045033885984 A 1 1 0 1 1 22.500999999833333 30.923044533886024 Z" stroke="#7cb5ec" stroke-width="1"></path><text x="3" data-z-index="1" y="14" style="font-size: 11px; font-weight: bold;">2001</text></g><g class="highcharts-label highcharts-point" transform="translate(510,93)" tabindex="-1" role="img" aria-label="Great Recession, 9.44. M2 Growth peaks." style="outline: none;"><path fill="#ffffff" class="highcharts-label-box" d="M 0.5 0.5 L 35.5 0.5 L 35.5 20.5 L 0.5 20.5 Z M 18 20.5 L 15.5 29.953941585637182 M 15.5 30.953941585637182 A 1 1 0 1 1 15.500999999833335 30.953941085637222 Z" stroke="#7cb5ec" stroke-width="1"></path><text x="3" data-z-index="1" y="14" style="font-size: 11px; font-weight: bold;">2009</text></g><g class="highcharts-label highcharts-point" transform="translate(545,39)" tabindex="-1" role="img" aria-label="COVID-19 Recession, 18.54. M2 Growth peaks." style="outline: none;"><path fill="#ffffff" class="highcharts-label-box" d="M 0.5 0.5 L 35.5 0.5 L 35.5 20.5 L 0.5 20.5 Z M 18 20.5 L 25.5 29.546476376391723 M 25.5 30.546476376391723 A 1 1 0 1 1 25.500999999833333 30.546475876391764 Z" stroke="#7cb5ec" stroke-width="1"></path><text x="3" data-z-index="1" y="14" style="font-size: 11px; font-weight: bold;">2021</text></g></g><g class="highcharts-series highcharts-series-3 highcharts-areaspline-series highcharts-navigator-series" data-z-index="0.1" opacity="1" transform="translate(24,431) scale(1 1)" clip-path="url(#highcharts-1szrzm7-21256-)" aria-hidden="false"><path fill="rgb(0,0,0)" fill-opacity="0.05" d="M 1.7745747443167 24.610060532721 C 1.7745747443167 24.610060532721 3.38339250702136 15.546036412450999 4.4559376821578 15.546036412450999 C 5.8794976418843605 15.546036412450999 6.591277621747641 18.349708607529 8.0148375814742 18.349708607529 C 9.438397541200919 18.349708607529 10.15017752106428 15.500410247491999 11.573737480791 15.500410247491999 C 13.0011976047906 15.500410247491999 13.714927666790402 17.93907987927486 15.14238779079 19.538232731759 C 16.565947750516802 21.13301631415486 17.2777277303802 23.485251334692 18.701287690107 23.485251334692 C 20.124847649833402 23.485251334692 20.8366276296966 21.088120215506 22.260187589423 21.088120215506 C 23.683747549149402 21.088120215506 24.3955275290126 21.928141451290017 25.819087488739 22.964524933639 C 27.246547612739 24.00374782278922 27.960277674739 26.277136144254 29.387737798739 26.277136144254 C 30.8112977584654 26.277136144254 31.523077738328602 25.955542252064 32.946637698055 25.955542252064 C 34.370197657781794 25.955542252064 35.081977637645196 27.920292601855998 36.505537597372 27.920292601855998 C 37.929097557098395 27.920292601855998 38.640877536961604 26.4835055379778 40.064437496688 22.274336576426 C 41.491897620688 18.0536356451154 42.205627682688004 6.8456178697 43.633087806688 6.8456178697 C 45.0566477664144 6.8456178697 45.768427746277595 6.8456178697 47.191987706004 8.107356146872998 C 48.6155476657304 9.369094424045997 49.3273276455936 19.164558028938 50.75088760532 19.729045436162 C 52.174447565046805 20.293532843386 52.886227544910206 19.729045436162 54.309787504637 20.293532843386 C 55.7372476286366 20.85802025061 56.4509776906364 23.812445731075 57.878437814636 23.812445731075 C 59.3019977743628 23.812445731075 60.013777754226204 22.006712850497905 61.437337713953 21.272798210701 C 62.86089767367939 20.538883570904307 63.57267765354261 20.4865766696656 64.996237613269 20.142872532091 C 66.4197975729954 19.7991683945164 67.1315775528586 19.554277522828 68.555137512585 19.554277522828 C 69.982597636585 19.554277522828 70.69632769858501 22.106582461826 72.123787822585 22.106582461826 C 73.5473477823114 22.106582461826 74.2591277621746 21.897544454549333 75.682687721901 21.426553217371 C 77.1062476816278 20.955561980192535 77.8180276614912 19.751626275934 79.241587621218 19.751626275934 C 80.6651475809444 19.751626275934 81.3769275608076 22.137202167611 82.800487520534 22.137202167611 C 84.227947644534 22.137202167611 84.94167770653401 18.897055243688 86.369137830534 18.897055243688 C 87.7926977902604 18.897055243688 88.5044777701236 27.984093733683 89.92803772985 27.984093733683 C 91.3515976895764 27.984093733683 92.06337766943959 23.984480781991998 93.486937629166 23.884776076591 C 94.91049758889281 23.78507137119 95.6222775687562 23.78507137119 97.045837528483 23.78507137119 C 98.4732976524818 23.78507137119 99.1870277144812 26.533711131628 100.61448783848 26.533711131628 C 102.038047798208 26.533711131628 102.74982777807199 13.36717964399 104.1733877378 13.36717964399 C 105.59694769752801 13.36717964399 106.308727677392 15.253132224916001 107.73228763712 15.253132224916001 C 109.155847596844 15.253132224916001 109.86762757670598 14.113164211392 111.29118753643 14.113164211392 C 112.714747496158 14.113164211392 113.42652747602202 18.888028766056 114.85008743575 18.888028766056 C 116.27364739547401 18.888028766056 116.98542737533599 15.553019364290002 118.40898733506 15.553019364290002 C 119.83254729478799 15.553019364290002 120.544327274652 17.817029118145005 121.96788723438 18.789524435793 C 123.39144719410801 19.762019753441002 124.103227173972 20.41549595253 125.5267871337 20.41549595253 C 126.95424725769999 20.41549595253 127.6679773197 20.154796910815673 129.0954374437 19.662799727661 C 130.518997403424 19.17214679910607 131.230777383286 17.958870673256 132.65433734301 17.958870673256 C 134.077897302738 17.958870673256 134.78967728260199 18.1354025560602 136.21323724233 18.660874383768 C 137.636797202058 19.1863462114758 138.34857718192202 19.236431413837934 139.77213714165 20.586229811795 C 141.19959726565 21.939726287553533 141.91332732765 25.419111568056998 143.34078745165 25.419111568056998 C 144.764347411374 25.419111568056998 145.476127391236 17.236052144669 146.89968735096 17.236052144669 C 148.323247310688 17.236052144669 149.035027290552 21.00916932204 150.45858725028 21.00916932204 C 151.882147210004 21.00916932204 152.593927189866 20.899237171916404 154.01748714959 20.631105023181 C 155.44494727359 20.3622382658184 156.15867733559 19.666672056795 157.58613745959 19.666672056795 C 159.009697419318 19.666672056795 159.721477399182 21.763871382571 161.14503735891 21.906749051626 C 162.568597318638 22.049626720681 163.28037729850203 22.049626720681 164.70393725823 22.049626720681 C 166.12749721795402 22.049626720681 166.839277197816 22.049626720681 168.26283715754 20.628683702409 C 169.69029728154 19.207740684136997 170.40402734354 10.779364193233 171.83148746754 10.779364193233 C 173.255047427268 10.779364193233 173.966827407132 10.779364193233 175.39038736686 12.291655742836 C 176.813947326588 13.803947292438998 177.52572730645198 19.686325470062 178.94928726618 19.686325470062 C 180.37284722590397 19.686325470062 181.084627205766 13.664365821478 182.50818716549 13.664365821478 C 183.93564728949 13.664365821478 184.64937735149002 13.664365821478 186.07683747549 16.132705937163 C 187.500397435218 18.601046052847998 188.21217741508198 27.845766299355 189.63573737481 27.845766299355 C 191.059297334534 27.845766299355 191.771077314396 23.82473590495352 193.19463727412 21.782530057895 C 194.618197233848 19.740324210830725 195.329977213712 17.634737064048 196.75353717344 17.634737064048 C 198.18099729744 17.634737064048 198.89472735944 19.567528956948 200.32218748344 19.567528956948 C 201.745747443168 19.567528956948 202.457527423032 17.877181551564 203.88108738276 17.877181551564 C 205.30464734248397 17.877181551564 206.016427322346 20.347652967365995 207.43998728207 21.196372874241 C 208.86354724179802 22.045092781118395 209.57532722166198 22.120781085945 210.99888718139 22.120781085945 C 212.42634730538998 22.120781085945 213.14007736739 21.817887473382 214.56753749139 21.817887473382 C 215.991097451118 21.817887473382 216.70287743098203 23.172514049161258 218.12643739071 23.990830709628 C 219.549997350434 24.809147370092457 220.26177733029598 24.94412079002876 221.68533729002 25.90947077571 C 223.108897249748 26.874820761393956 223.82067722961202 26.669084605099368 225.24423718934 28.817580638041 C 226.67169731334002 30.971962961482053 227.38542737534 36.6666666666667 228.81288749934 36.6666666666667 C 230.23644745906398 36.6666666666667 230.948227438926 36.6666666666667 232.37178739865 33.1504988329521 C 233.79534735837802 29.634330999237505 234.507127338242 17.057736760160005 235.93068729797 16.444017962195 C 237.35424725769798 15.830299164229999 238.066027237562 15.830299164229999 239.48958719729 15.830299164229999 C 240.91704732129 15.830299164229999 241.63077738329002 15.830299164229999 243.05823750729 16.688026209696 C 244.481797467014 17.545753255162005 245.193577446876 18.898558293106145 246.6171374066 20.423705007954 C 248.040697366328 21.948851722806143 248.75247734619202 24.313759783946 250.17603730592 24.313759783946 C 251.59959726564801 24.313759783946 252.311377245512 19.024270065001684 253.73493720524 16.950969545329 C 255.16239732924 14.871988750261679 255.87612739123998 13.933056497096 257.30358751524 13.933056497096 C 258.727147474964 13.933056497096 259.438927454826 14.284935308589558 260.86248741455 14.970135685397 C 262.286047374278 15.655336062206358 262.99782735414203 17.359058381138 264.42138731387 17.359058381138 C 265.844947273594 17.359058381138 266.556727253456 9.034726411123 267.98028721318 9.034726411123 C 269.40774733718 9.034726411123 270.12147739918 12.845462408027998 271.54893752318 12.845462408027998 C 272.97249748290795 12.845462408027998 273.684277462772 11.897112386191 275.1078374225 11.897112386191 C 276.53139738222796 11.897112386191 277.243177362092 15.598442587942273 278.66673732182 17.263073901459 C 280.090297281544 18.927705214971073 280.802077261406 19.151689567240858 282.22563722113 20.220268953763 C 283.65309734513005 21.29177595504486 284.36682740713 21.753678782666316 285.79428753113 22.613289870969 C 287.217847490858 23.47055229509672 287.92962747072204 24.512452734839002 289.35318743045 24.512452734839002 C 290.776747390178 24.512452734839002 291.488527370042 23.510434932596 292.91208732977 23.202997104822 C 294.335647289494 22.895559277048 295.047427269356 23.202997104822 296.47098722908 22.895559277048 C 297.89844735308 22.588121449274002 298.61217741508 19.652317317224 300.03963753908 19.652317317224 C 301.463197498808 19.652317317224 302.174977478672 21.274513001795 303.5985374384 21.274513001795 C 305.022097398124 21.274513001795 305.733877377986 21.274513001795 307.15743733771 21.247754483253 C 308.580997297438 21.220995964711 309.292777277302 20.825858664732 310.71633723703 20.825858664732 C 312.14379736103 20.825858664732 312.85752742303004 22.079044712641 314.28498754703 22.079044712641 C 315.708547506758 22.079044712641 316.420327486622 21.500088694452 317.84388744635 21.500088694452 C 319.267447406074 21.500088694452 319.979227385936 25.778881671857 321.40278734566 25.778881671857 C 322.120417571936 25.778881671857 322.479232685074 24.908111187088476 323.19686291135 24.213854491101 C 323.902792644802 23.53091719776968 324.25575751152803 22.33589669856 324.96168724498 22.33589669856 C 325.679317471252 22.33589669856 326.038132584388 22.596787878168 326.75576281066 22.596787878168 C 327.465592708388 22.596787878168 327.820507657252 22.11604689246352 328.53033755498 21.471091865417 C 329.247967781252 20.81904942049312 329.606782894388 19.708722751134996 330.32441312066 19.354294198242 C 331.030342854112 18.999865645349 331.383307720838 19.190556676971056 332.08923745429 18.999865645349 C 332.80686768056603 18.806013988892257 333.165682793704 18.543059905634998 333.88331301998 18.392937478045 C 334.58924275343196 18.242815050455 334.942207620158 18.332608049535224 335.64813735361 18.242815050455 C 336.365767579882 18.151533769622024 336.724582693018 18.06930876499279 337.44221291929 17.940251778262 C 338.148142652746 17.81329898153159 338.501107519474 17.602790591802 339.20703725293 17.602790591802 C 339.92466747920196 17.602790591802 340.283482592338 18.44811785673 341.00111281861 18.44811785673 C 341.710942716338 18.44811785673 342.06585766520203 18.311394028050845 342.77568756293 18.217380033956 C 343.493317789202 18.122332919047246 343.852132902338 17.975465084221 344.56976312861 17.975465084221 C 345.275692862062 17.975465084221 345.62865772878797 18.048712543341832 346.33458746224 18.194185583056 C 347.05221768851595 18.342069778125435 347.41103280165396 18.194185583056 348.12866302793 18.70885817118 C 348.83459276138194 19.223530759304 349.18755762810804 20.898540270383 349.89348736156 20.898540270383 C 350.611117587832 20.898540270383 350.969932700968 20.898540270383 351.68756292724 20.358755539612 C 352.39349266069604 19.818970808841005 352.746457527424 17.347052323059 353.45238726088 17.347052323059 C 354.170017487152 17.347052323059 354.528832600288 17.442193187593727 355.24646282656 17.651914607805 C 355.956292724288 17.859356447362526 356.311207673152 18.12734682193798 357.02103757088 18.389960472481 C 357.738667797152 18.655459987314778 358.097482910288 18.389960472481 358.81511313656 18.972197521247 C 359.52104287001197 19.554434570013 359.874007736738 20.640407959233308 360.57993747019 21.472463671782 C 361.297567696466 22.318310362996908 361.656382809604 23.166953530656 362.37401303588 23.166953530656 C 363.079942769332 23.166953530656 363.432907636058 21.90222351139655 364.13883736951 20.198097915205 C 364.856467595782 18.465727143384946 365.21528270891804 15.99282728381069 365.93291293519 14.575712610627 C 366.638842668646 13.181703067977091 366.99180753537405 13.170287375621001 367.69773726883 13.170287375621001 C 368.415367495102 13.170287375621001 368.774182608238 14.301467587878001 369.49181283451 14.301467587878001 C 370.201642732234 14.301467587878001 370.556557681096 13.857447983657 371.26638757882 13.857447983657 C 371.98401780509596 13.857447983657 372.342832918234 14.23062304309859 373.06046314451 15.234845420709998 C 373.766392877962 16.222694607376187 374.119357744688 17.88137831886888 374.82528747814 18.837626894351 C 375.54291770441193 19.80972489373648 375.901732817548 19.756564540041 376.61936304382 20.055711857879 C 377.325292777276 20.354859175717 377.678257644004 20.354859175717 378.38418737746 20.354859175717 C 379.101817603732 20.354859175717 379.46063271686796 19.389213140554588 380.17826294314 18.17901859771 C 380.884192676592 16.98855548762979 381.23715754331795 15.073062674033 381.94308727677 14.353215043405001 C 382.660717503046 13.633367412777002 383.019532616184 13.633367412777002 383.73716284246 13.633367412777002 C 384.446992740184 13.633367412777002 384.80190768904606 13.746119869533999 385.51173758677 13.746119869533999 C 386.229367813046 13.746119869533999 386.588182926184 13.476576147475999 387.30581315246 13.476576147475999 C 388.011742885912 13.476576147475999 388.364707752638 14.333802308186737 389.07063748609 15.175046592164001 C 389.78826771236197 16.030234151566738 390.147082825498 17.049729606646892 390.86471305177 17.717655755926 C 391.570642785226 18.374691804948494 391.923607651954 18.487452087918 392.62953738541 18.487452087918 C 393.34716761168204 18.487452087918 393.705982724818 18.487452087918 394.42361295109 18.433096939554 C 395.12954268454195 18.378741791190002 395.482507551268 18.100986968622 396.18843728472 18.100986968622 C 396.90606751099597 18.100986968622 397.26488262413403 18.462223711651 397.98251285041 18.462223711651 C 398.692342748134 18.462223711651 399.04725769699604 17.720813140304 399.75708759472 17.473625287552 C 400.474717820992 17.2264374348 400.833532934128 17.2264374348 401.5511631604 17.2264374348 C 402.257092893856 17.2264374348 402.610057760584 17.368908146647 403.31598749404 17.368908146647 C 404.033617720312 17.368908146647 404.39243283344797 16.824121396263 405.11006305972 16.824121396263 C 405.815992793172 16.824121396263 406.16895765989796 17.256994283904 406.87488739335 17.256994283904 C 407.59251761962594 17.256994283904 407.95133273276394 14.167216311083 408.66896295904 14.133245425523999 C 409.374892692492 14.099274539964998 409.727857559218 14.099274539964998 410.43378729267 14.099274539964998 C 411.1514175189421 14.099274539964998 411.5102326320781 17.326173556723 412.22786285835 17.748496105399 C 412.93769275607804 18.170818654075 413.29260770494204 18.170818654075 414.00243760267 18.170818654075 C 414.72006782894204 18.170818654075 415.07888294207794 17.521998578306803 415.79651316835 17.300869715063 C 416.502442901806 17.0833462137188 416.85540776853395 17.074187742605 417.56133750199 17.074187742605 C 418.278967728262 17.074187742605 418.637782841398 18.487629945982 419.35541306767 18.487629945982 C 420.061342801122 18.487629945982 420.414307667848 17.404077023628 421.1202374013 17.404077023628 C 421.837867627576 17.404077023628 422.196682740714 17.404077023628 422.91431296699 17.731093791763 C 423.620242700442 18.058110559898005 423.973207567168 20.858587569001003 424.67913730062 20.944587555885 C 425.396767526892 21.030587542769 425.755582640028 21.030587542769 426.4732128663 21.030587542769 C 427.18304276402796 21.030587542769 427.53795771289197 20.222833056679 428.24778761062 20.222833056679 C 428.965417836892 20.222833056679 429.324232950028 21.987010476428 430.0418631763 21.987010476428 C 430.747792909756 21.987010476428 431.100757776484 21.671208059320023 431.80668750994 21.235913190311 C 432.524317736212 20.793403489221223 432.88313284934804 19.792499051181 433.60076307562 19.792499051181 C 434.30669280907205 19.792499051181 434.65965767579803 20.556672828567834 435.36558740925 20.942436339304 C 436.08321763552595 21.334593720386234 436.44203274866396 21.433142700407384 437.15966297494 21.737301280727 C 437.865592708392 22.036500753756982 438.21855757511804 22.089122098346877 438.92448730857 22.450831472678 C 439.642117534842 22.818536030009277 440.00093264797795 23.22277147235029 440.71856287425 23.560836109883 C 441.428392771978 23.89522613179149 441.783307720842 23.862821753110477 442.49313761857 24.131968121280998 C 443.21076784484205 24.404072141848076 443.56958295797796 24.913962081727 444.28721318425 24.913962081727 C 444.99314291770196 24.913962081727 445.346107784428 24.52475955095678 446.05203751788 24.361301391685 C 446.769667744156 24.19513398115358 447.12848285729405 24.089898157219 447.84611308357 24.089898157219 C 448.55204281702197 24.089898157219 448.90500768374807 24.559897162563868 449.6109374172 24.733286943911 C 450.32856764347196 24.90955058903747 450.687382756608 24.964031723403 451.40501298288 24.964031723403 C 452.110942716336 24.964031723403 452.463907583064 23.308103907649624 453.16983731652 22.476907319489 C 453.887467542792 21.63193399230242 454.246282655928 20.773606935035 454.9639128822 20.773606935035 C 455.67374277992803 20.773606935035 456.0286577287919 21.29394948046 456.73848762652 21.29394948046 C 457.456117852792 21.29394948046 457.814932965928 21.152938602726948 458.5325631922 20.953121755776 C 459.23849292565194 20.75656279219935 459.59145779237804 20.611591580891798 460.29738752583 20.303009954141 C 461.015017752106 19.989313714790196 461.373832865244 19.78463628153521 462.09146309152 19.397427090522 C 462.797392824972 19.016531092842808 463.150357691698 18.64069496788796 463.85628742515 18.38274698241 C 464.573917651422 18.120523615957158 464.932732764558 18.096998710695 465.65036299083 18.096998710695 C 466.35629272428594 18.096998710695 466.709257591014 18.673941395172438 467.41518732447 19.026792204778 C 468.13281755074206 19.385491370342038 468.491632663878 19.840408253159996 469.20926289015 19.875873648619 C 469.91909278787796 19.911339044078 470.27400773674196 19.911339044078 470.98383763447 19.911339044078 C 471.701467860742 19.911339044078 472.06028297387803 19.248359193298846 472.77791320015 18.554461758405 C 473.483842933602 17.871877868645644 473.836807800328 16.470135732445 474.54273753378 16.470135732445 C 475.260367760052 16.470135732445 475.61918287318804 17.406356837621964 476.33681309946 17.931105771488 C 477.04274283291596 18.447299016217563 477.39570769964405 19.072491178934 478.1016374331 19.072491178934 C 478.81926765937203 19.072491178934 479.17808277250805 18.946366954798 479.89571299878 18.946366954798 C 480.601642732232 18.946366954798 480.954607598958 18.946366954798 481.66053733241 19.084733197911 C 482.37816755868596 19.223099441024 482.73698267182397 20.824803791819 483.4546128981 21.028482146921 C 484.1644427958239 21.232160502023 484.51935774468603 21.180001794733194 485.22918764241 21.232160502023 C 485.94681786868597 21.28489238192079 486.30563298182403 21.232160502023 487.0232632081 21.29070861489 C 487.729192941552 21.349256727757002 488.08215780827805 21.784643165932 488.78808754173 21.784643165932 C 489.50571776800206 21.784643165932 489.86453288113796 21.115543278717187 490.58216310741 20.861297155985 C 491.288092840866 20.61119635046999 491.641057707594 20.72206034194473 492.34698744105 20.523775845314 C 493.064617667322 20.32220486531473 493.42343278045803 19.932548586285996 494.14106300673 19.86165846441 C 494.84699274018203 19.790768342534 495.199957606908 19.845964008979728 495.90588734036 19.790768342534 C 496.62351756663594 19.73465783078773 496.98233267977395 19.750459436911804 497.69996290605 19.58339301893 C 498.40979280377394 19.418142540275404 498.76470775263607 19.51841501646031 499.47453765036 18.959976100943 C 500.192167876636 18.395400494041912 500.550982989774 16.775856712884 501.26861321605 16.775856712884 C 501.97454294950205 16.775856712884 502.327507816228 17.64120290546525 503.03343754968 19.018199586957 C 503.75106777595204 20.41801941786645 504.10988288908794 23.717897993887 504.82751311536 23.717897993887 C 505.533442848816 23.717897993887 505.886407715544 23.35792237165074 506.592337449 22.811280861764 C 507.30996767527193 22.25557899536274 507.66878278840807 22.195306337156428 508.38641301468 20.962039553167 C 509.09234274813207 19.748880379786424 509.44530761485805 17.070737282276 510.15123734831 16.695215968339 C 510.868867574586 16.319694654402 511.227682687724 16.319694654402 511.945312914 16.319694654402 C 512.655142811724 16.319694654402 513.010057760586 18.148262348185 513.71988765831 18.51356981391 C 514.4375178845819 18.878877279635 514.796332997718 18.676183374826806 515.51396322399 18.878877279635 C 516.2198929574461 19.078266392518007 516.572857824174 19.342475129503622 517.27878755763 19.518777358138 C 517.996417783902 19.69800172315762 518.3552328970379 19.713755674552004 519.07286312331 19.76769376377 C 519.7787928567619 19.821631852988 520.131757723488 19.76769376377 520.83768745694 19.821631852988 C 521.555317683216 19.875569942205995 521.914132796354 20.02102858770575 522.63176302263 20.10074425709 C 523.3376927560821 20.17916021447295 523.6906576228081 20.216960919906 524.39658735626 20.216960919906 C 525.114217582532 20.216960919906 525.473032695668 19.98970147544269 526.19066292194 19.704988892107 C 526.900492819668 19.423371010763088 527.255407768532 18.801134758207 527.96523766626 18.801134758207 C 528.6828678925319 18.801134758207 529.041683005668 19.410125812063697 529.75931323194 19.776148120179 C 530.465242965396 20.136202673272496 530.818207832124 20.199166175805225 531.52413756558 20.616326911229 C 532.241767791852 21.040401912983626 532.600582904988 21.568226487994004 533.31821313126 21.879237463125 C 534.024142864712 22.190248438256 534.3771077314381 22.190248438256 535.08303746489 22.190248438256 C 535.800667691166 22.190248438256 536.159482804304 22.18995616252825 536.87711303058 21.740344929497 C 537.5830427640319 21.29806431439825 537.9360076307579 21.740344929497 538.64193736421 19.960518817931 C 539.359567590482 18.180692706365 539.7183827036181 15.732929160256544 540.43601292989 12.389320275928 C 541.145842827618 9.082054966417346 541.500757776482 3.3333333333330017 542.21058767421 3.3333333333330017 C 542.928217900482 3.3333333333330017 543.287033013618 3.7878505390075254 544.00466323989 5.8395897257990015 C 544.7105929733459 7.8578766432511244 545.0635578400739 11.224616629639465 545.76948757353 13.508398593942001 C 546.487117799802 15.830033297972264 546.845932912938 15.366910765333209 547.56356313921 17.353131396631 C 548.269492872662 19.306967995895608 548.622457739388 21.128514344192347 549.32838747284 23.358541670348 C 550.046017699112 25.625530775391546 550.404832812248 28.507849885040997 551.12246303852 28.595672474628998 C 551.473477823112 28.683495064217 552 28.683495064217 552 28.683495064217 L 552 40 C 552 40 551.473477823112 40 551.12246303852 40 C 550.404832812248 40 550.046017699112 40 549.32838747284 40 C 548.622457739388 40 548.269492872662 40 547.56356313921 40 C 546.845932912938 40 546.487117799802 40 545.76948757353 40 C 545.0635578400739 40 544.7105929733459 40 544.00466323989 40 C 543.287033013618 40 542.928217900482 40 542.21058767421 40 C 541.500757776482 40 541.145842827618 40 540.43601292989 40 C 539.7183827036181 40 539.359567590482 40 538.64193736421 40 C 537.9360076307579 40 537.5830427640319 40 536.87711303058 40 C 536.159482804304 40 535.800667691166 40 535.08303746489 40 C 534.3771077314381 40 534.024142864712 40 533.31821313126 40 C 532.600582904988 40 532.241767791852 40 531.52413756558 40 C 530.818207832124 40 530.465242965396 40 529.75931323194 40 C 529.041683005668 40 528.6828678925319 40 527.96523766626 40 C 527.255407768532 40 526.900492819668 40 526.19066292194 40 C 525.473032695668 40 525.114217582532 40 524.39658735626 40 C 523.6906576228081 40 523.3376927560821 40 522.63176302263 40 C 521.914132796354 40 521.555317683216 40 520.83768745694 40 C 520.131757723488 40 519.7787928567619 40 519.07286312331 40 C 518.3552328970379 40 517.996417783902 40 517.27878755763 40 C 516.572857824174 40 516.2198929574461 40 515.51396322399 40 C 514.796332997718 40 514.4375178845819 40 513.71988765831 40 C 513.010057760586 40 512.655142811724 40 511.945312914 40 C 511.227682687724 40 510.868867574586 40 510.15123734831 40 C 509.44530761485805 40 509.09234274813207 40 508.38641301468 40 C 507.66878278840807 40 507.30996767527193 40 506.592337449 40 C 505.886407715544 40 505.533442848816 40 504.82751311536 40 C 504.10988288908794 40 503.75106777595204 40 503.03343754968 40 C 502.327507816228 40 501.97454294950205 40 501.26861321605 40 C 500.550982989774 40 500.192167876636 40 499.47453765036 40 C 498.76470775263607 40 498.40979280377394 40 497.69996290605 40 C 496.98233267977395 40 496.62351756663594 40 495.90588734036 40 C 495.199957606908 40 494.84699274018203 40 494.14106300673 40 C 493.42343278045803 40 493.064617667322 40 492.34698744105 40 C 491.641057707594 40 491.288092840866 40 490.58216310741 40 C 489.86453288113796 40 489.50571776800206 40 488.78808754173 40 C 488.08215780827805 40 487.729192941552 40 487.0232632081 40 C 486.30563298182403 40 485.94681786868597 40 485.22918764241 40 C 484.51935774468603 40 484.1644427958239 40 483.4546128981 40 C 482.73698267182397 40 482.37816755868596 40 481.66053733241 40 C 480.954607598958 40 480.601642732232 40 479.89571299878 40 C 479.17808277250805 40 478.81926765937203 40 478.1016374331 40 C 477.39570769964405 40 477.04274283291596 40 476.33681309946 40 C 475.61918287318804 40 475.260367760052 40 474.54273753378 40 C 473.836807800328 40 473.483842933602 40 472.77791320015 40 C 472.06028297387803 40 471.701467860742 40 470.98383763447 40 C 470.27400773674196 40 469.91909278787796 40 469.20926289015 40 C 468.491632663878 40 468.13281755074206 40 467.41518732447 40 C 466.709257591014 40 466.35629272428594 40 465.65036299083 40 C 464.932732764558 40 464.573917651422 40 463.85628742515 40 C 463.150357691698 40 462.797392824972 40 462.09146309152 40 C 461.373832865244 40 461.015017752106 40 460.29738752583 40 C 459.59145779237804 40 459.23849292565194 40 458.5325631922 40 C 457.814932965928 40 457.456117852792 40 456.73848762652 40 C 456.0286577287919 40 455.67374277992803 40 454.9639128822 40 C 454.246282655928 40 453.887467542792 40 453.16983731652 40 C 452.463907583064 40 452.110942716336 40 451.40501298288 40 C 450.687382756608 40 450.32856764347196 40 449.6109374172 40 C 448.90500768374807 40 448.55204281702197 40 447.84611308357 40 C 447.12848285729405 40 446.769667744156 40 446.05203751788 40 C 445.346107784428 40 444.99314291770196 40 444.28721318425 40 C 443.56958295797796 40 443.21076784484205 40 442.49313761857 40 C 441.783307720842 40 441.428392771978 40 440.71856287425 40 C 440.00093264797795 40 439.642117534842 40 438.92448730857 40 C 438.21855757511804 40 437.865592708392 40 437.15966297494 40 C 436.44203274866396 40 436.08321763552595 40 435.36558740925 40 C 434.65965767579803 40 434.30669280907205 40 433.60076307562 40 C 432.88313284934804 40 432.524317736212 40 431.80668750994 40 C 431.100757776484 40 430.747792909756 40 430.0418631763 40 C 429.324232950028 40 428.965417836892 40 428.24778761062 40 C 427.53795771289197 40 427.18304276402796 40 426.4732128663 40 C 425.755582640028 40 425.396767526892 40 424.67913730062 40 C 423.973207567168 40 423.620242700442 40 422.91431296699 40 C 422.196682740714 40 421.837867627576 40 421.1202374013 40 C 420.414307667848 40 420.061342801122 40 419.35541306767 40 C 418.637782841398 40 418.278967728262 40 417.56133750199 40 C 416.85540776853395 40 416.502442901806 40 415.79651316835 40 C 415.07888294207794 40 414.72006782894204 40 414.00243760267 40 C 413.29260770494204 40 412.93769275607804 40 412.22786285835 40 C 411.5102326320781 40 411.1514175189421 40 410.43378729267 40 C 409.727857559218 40 409.374892692492 40 408.66896295904 40 C 407.95133273276394 40 407.59251761962594 40 406.87488739335 40 C 406.16895765989796 40 405.815992793172 40 405.11006305972 40 C 404.39243283344797 40 404.033617720312 40 403.31598749404 40 C 402.610057760584 40 402.257092893856 40 401.5511631604 40 C 400.833532934128 40 400.474717820992 40 399.75708759472 40 C 399.04725769699604 40 398.692342748134 40 397.98251285041 40 C 397.26488262413403 40 396.90606751099597 40 396.18843728472 40 C 395.482507551268 40 395.12954268454195 40 394.42361295109 40 C 393.705982724818 40 393.34716761168204 40 392.62953738541 40 C 391.923607651954 40 391.570642785226 40 390.86471305177 40 C 390.147082825498 40 389.78826771236197 40 389.07063748609 40 C 388.364707752638 40 388.011742885912 40 387.30581315246 40 C 386.588182926184 40 386.229367813046 40 385.51173758677 40 C 384.80190768904606 40 384.446992740184 40 383.73716284246 40 C 383.019532616184 40 382.660717503046 40 381.94308727677 40 C 381.23715754331795 40 380.884192676592 40 380.17826294314 40 C 379.46063271686796 40 379.101817603732 40 378.38418737746 40 C 377.678257644004 40 377.325292777276 40 376.61936304382 40 C 375.901732817548 40 375.54291770441193 40 374.82528747814 40 C 374.119357744688 40 373.766392877962 40 373.06046314451 40 C 372.342832918234 40 371.98401780509596 40 371.26638757882 40 C 370.556557681096 40 370.201642732234 40 369.49181283451 40 C 368.774182608238 40 368.415367495102 40 367.69773726883 40 C 366.99180753537405 40 366.638842668646 40 365.93291293519 40 C 365.21528270891804 40 364.856467595782 40 364.13883736951 40 C 363.432907636058 40 363.079942769332 40 362.37401303588 40 C 361.656382809604 40 361.297567696466 40 360.57993747019 40 C 359.874007736738 40 359.52104287001197 40 358.81511313656 40 C 358.097482910288 40 357.738667797152 40 357.02103757088 40 C 356.311207673152 40 355.956292724288 40 355.24646282656 40 C 354.528832600288 40 354.170017487152 40 353.45238726088 40 C 352.746457527424 40 352.39349266069604 40 351.68756292724 40 C 350.969932700968 40 350.611117587832 40 349.89348736156 40 C 349.18755762810804 40 348.83459276138194 40 348.12866302793 40 C 347.41103280165396 40 347.05221768851595 40 346.33458746224 40 C 345.62865772878797 40 345.275692862062 40 344.56976312861 40 C 343.852132902338 40 343.493317789202 40 342.77568756293 40 C 342.06585766520203 40 341.710942716338 40 341.00111281861 40 C 340.283482592338 40 339.92466747920196 40 339.20703725293 40 C 338.501107519474 40 338.148142652746 40 337.44221291929 40 C 336.724582693018 40 336.365767579882 40 335.64813735361 40 C 334.942207620158 40 334.58924275343196 40 333.88331301998 40 C 333.165682793704 40 332.80686768056603 40 332.08923745429 40 C 331.383307720838 40 331.030342854112 40 330.32441312066 40 C 329.606782894388 40 329.247967781252 40 328.53033755498 40 C 327.820507657252 40 327.465592708388 40 326.75576281066 40 C 326.038132584388 40 325.679317471252 40 324.96168724498 40 C 324.25575751152803 40 323.902792644802 40 323.19686291135 40 C 322.479232685074 40 322.120417571936 40 321.40278734566 40 C 319.979227385936 40 319.267447406074 40 317.84388744635 40 C 316.420327486622 40 315.708547506758 40 314.28498754703 40 C 312.85752742303004 40 312.14379736103 40 310.71633723703 40 C 309.292777277302 40 308.580997297438 40 307.15743733771 40 C 305.733877377986 40 305.022097398124 40 303.5985374384 40 C 302.174977478672 40 301.463197498808 40 300.03963753908 40 C 298.61217741508 40 297.89844735308 40 296.47098722908 40 C 295.047427269356 40 294.335647289494 40 292.91208732977 40 C 291.488527370042 40 290.776747390178 40 289.35318743045 40 C 287.92962747072204 40 287.217847490858 40 285.79428753113 40 C 284.36682740713 40 283.65309734513005 40 282.22563722113 40 C 280.802077261406 40 280.090297281544 40 278.66673732182 40 C 277.243177362092 40 276.53139738222796 40 275.1078374225 40 C 273.684277462772 40 272.97249748290795 40 271.54893752318 40 C 270.12147739918 40 269.40774733718 40 267.98028721318 40 C 266.556727253456 40 265.844947273594 40 264.42138731387 40 C 262.99782735414203 40 262.286047374278 40 260.86248741455 40 C 259.438927454826 40 258.727147474964 40 257.30358751524 40 C 255.87612739123998 40 255.16239732924 40 253.73493720524 40 C 252.311377245512 40 251.59959726564801 40 250.17603730592 40 C 248.75247734619202 40 248.040697366328 40 246.6171374066 40 C 245.193577446876 40 244.481797467014 40 243.05823750729 40 C 241.63077738329002 40 240.91704732129 40 239.48958719729 40 C 238.066027237562 40 237.35424725769798 40 235.93068729797 40 C 234.507127338242 40 233.79534735837802 40 232.37178739865 40 C 230.948227438926 40 230.23644745906398 40 228.81288749934 40 C 227.38542737534 40 226.67169731334002 40 225.24423718934 40 C 223.82067722961202 40 223.108897249748 40 221.68533729002 40 C 220.26177733029598 40 219.549997350434 40 218.12643739071 40 C 216.70287743098203 40 215.991097451118 40 214.56753749139 40 C 213.14007736739 40 212.42634730538998 40 210.99888718139 40 C 209.57532722166198 40 208.86354724179802 40 207.43998728207 40 C 206.016427322346 40 205.30464734248397 40 203.88108738276 40 C 202.457527423032 40 201.745747443168 40 200.32218748344 40 C 198.89472735944 40 198.18099729744 40 196.75353717344 40 C 195.329977213712 40 194.618197233848 40 193.19463727412 40 C 191.771077314396 40 191.059297334534 40 189.63573737481 40 C 188.21217741508198 40 187.500397435218 40 186.07683747549 40 C 184.64937735149002 40 183.93564728949 40 182.50818716549 40 C 181.084627205766 40 180.37284722590397 40 178.94928726618 40 C 177.52572730645198 40 176.813947326588 40 175.39038736686 40 C 173.966827407132 40 173.255047427268 40 171.83148746754 40 C 170.40402734354 40 169.69029728154 40 168.26283715754 40 C 166.839277197816 40 166.12749721795402 40 164.70393725823 40 C 163.28037729850203 40 162.568597318638 40 161.14503735891 40 C 159.721477399182 40 159.009697419318 40 157.58613745959 40 C 156.15867733559 40 155.44494727359 40 154.01748714959 40 C 152.593927189866 40 151.882147210004 40 150.45858725028 40 C 149.035027290552 40 148.323247310688 40 146.89968735096 40 C 145.476127391236 40 144.764347411374 40 143.34078745165 40 C 141.91332732765 40 141.19959726565 40 139.77213714165 40 C 138.34857718192202 40 137.636797202058 40 136.21323724233 40 C 134.78967728260199 40 134.077897302738 40 132.65433734301 40 C 131.230777383286 40 130.518997403424 40 129.0954374437 40 C 127.6679773197 40 126.95424725769999 40 125.5267871337 40 C 124.103227173972 40 123.39144719410801 40 121.96788723438 40 C 120.544327274652 40 119.83254729478799 40 118.40898733506 40 C 116.98542737533599 40 116.27364739547401 40 114.85008743575 40 C 113.42652747602202 40 112.714747496158 40 111.29118753643 40 C 109.86762757670598 40 109.155847596844 40 107.73228763712 40 C 106.308727677392 40 105.59694769752801 40 104.1733877378 40 C 102.74982777807199 40 102.038047798208 40 100.61448783848 40 C 99.1870277144812 40 98.4732976524818 40 97.045837528483 40 C 95.6222775687562 40 94.91049758889281 40 93.486937629166 40 C 92.06337766943959 40 91.3515976895764 40 89.92803772985 40 C 88.5044777701236 40 87.7926977902604 40 86.369137830534 40 C 84.94167770653401 40 84.227947644534 40 82.800487520534 40 C 81.3769275608076 40 80.6651475809444 40 79.241587621218 40 C 77.8180276614912 40 77.1062476816278 40 75.682687721901 40 C 74.2591277621746 40 73.5473477823114 40 72.123787822585 40 C 70.69632769858501 40 69.982597636585 40 68.555137512585 40 C 67.1315775528586 40 66.4197975729954 40 64.996237613269 40 C 63.57267765354261 40 62.86089767367939 40 61.437337713953 40 C 60.013777754226204 40 59.3019977743628 40 57.878437814636 40 C 56.4509776906364 40 55.7372476286366 40 54.309787504637 40 C 52.886227544910206 40 52.174447565046805 40 50.75088760532 40 C 49.3273276455936 40 48.6155476657304 40 47.191987706004 40 C 45.768427746277595 40 45.0566477664144 40 43.633087806688 40 C 42.205627682688004 40 41.491897620688 40 40.064437496688 40 C 38.640877536961604 40 37.929097557098395 40 36.505537597372 40 C 35.081977637645196 40 34.370197657781794 40 32.946637698055 40 C 31.523077738328602 40 30.8112977584654 40 29.387737798739 40 C 27.960277674739 40 27.246547612739 40 25.819087488739 40 C 24.3955275290126 40 23.683747549149402 40 22.260187589423 40 C 20.8366276296966 40 20.124847649833402 40 18.701287690107 40 C 17.2777277303802 40 16.565947750516802 40 15.14238779079 40 C 13.714927666790402 40 13.0011976047906 40 11.573737480791 40 C 10.15017752106428 40 9.438397541200919 40 8.0148375814742 40 C 6.591277621747641 40 5.8794976418843605 40 4.4559376821578 40 C 3.38339250702136 40 1.7745747443167 40 1.7745747443167 40 Z" class="highcharts-area" data-z-index="0" aria-hidden="true"></path><path fill="none" d="M 1.7745747443167 24.610060532721 C 1.7745747443167 24.610060532721 3.38339250702136 15.546036412450999 4.4559376821578 15.546036412450999 C 5.8794976418843605 15.546036412450999 6.591277621747641 18.349708607529 8.0148375814742 18.349708607529 C 9.438397541200919 18.349708607529 10.15017752106428 15.500410247491999 11.573737480791 15.500410247491999 C 13.0011976047906 15.500410247491999 13.714927666790402 17.93907987927486 15.14238779079 19.538232731759 C 16.565947750516802 21.13301631415486 17.2777277303802 23.485251334692 18.701287690107 23.485251334692 C 20.124847649833402 23.485251334692 20.8366276296966 21.088120215506 22.260187589423 21.088120215506 C 23.683747549149402 21.088120215506 24.3955275290126 21.928141451290017 25.819087488739 22.964524933639 C 27.246547612739 24.00374782278922 27.960277674739 26.277136144254 29.387737798739 26.277136144254 C 30.8112977584654 26.277136144254 31.523077738328602 25.955542252064 32.946637698055 25.955542252064 C 34.370197657781794 25.955542252064 35.081977637645196 27.920292601855998 36.505537597372 27.920292601855998 C 37.929097557098395 27.920292601855998 38.640877536961604 26.4835055379778 40.064437496688 22.274336576426 C 41.491897620688 18.0536356451154 42.205627682688004 6.8456178697 43.633087806688 6.8456178697 C 45.0566477664144 6.8456178697 45.768427746277595 6.8456178697 47.191987706004 8.107356146872998 C 48.6155476657304 9.369094424045997 49.3273276455936 19.164558028938 50.75088760532 19.729045436162 C 52.174447565046805 20.293532843386 52.886227544910206 19.729045436162 54.309787504637 20.293532843386 C 55.7372476286366 20.85802025061 56.4509776906364 23.812445731075 57.878437814636 23.812445731075 C 59.3019977743628 23.812445731075 60.013777754226204 22.006712850497905 61.437337713953 21.272798210701 C 62.86089767367939 20.538883570904307 63.57267765354261 20.4865766696656 64.996237613269 20.142872532091 C 66.4197975729954 19.7991683945164 67.1315775528586 19.554277522828 68.555137512585 19.554277522828 C 69.982597636585 19.554277522828 70.69632769858501 22.106582461826 72.123787822585 22.106582461826 C 73.5473477823114 22.106582461826 74.2591277621746 21.897544454549333 75.682687721901 21.426553217371 C 77.1062476816278 20.955561980192535 77.8180276614912 19.751626275934 79.241587621218 19.751626275934 C 80.6651475809444 19.751626275934 81.3769275608076 22.137202167611 82.800487520534 22.137202167611 C 84.227947644534 22.137202167611 84.94167770653401 18.897055243688 86.369137830534 18.897055243688 C 87.7926977902604 18.897055243688 88.5044777701236 27.984093733683 89.92803772985 27.984093733683 C 91.3515976895764 27.984093733683 92.06337766943959 23.984480781991998 93.486937629166 23.884776076591 C 94.91049758889281 23.78507137119 95.6222775687562 23.78507137119 97.045837528483 23.78507137119 C 98.4732976524818 23.78507137119 99.1870277144812 26.533711131628 100.61448783848 26.533711131628 C 102.038047798208 26.533711131628 102.74982777807199 13.36717964399 104.1733877378 13.36717964399 C 105.59694769752801 13.36717964399 106.308727677392 15.253132224916001 107.73228763712 15.253132224916001 C 109.155847596844 15.253132224916001 109.86762757670598 14.113164211392 111.29118753643 14.113164211392 C 112.714747496158 14.113164211392 113.42652747602202 18.888028766056 114.85008743575 18.888028766056 C 116.27364739547401 18.888028766056 116.98542737533599 15.553019364290002 118.40898733506 15.553019364290002 C 119.83254729478799 15.553019364290002 120.544327274652 17.817029118145005 121.96788723438 18.789524435793 C 123.39144719410801 19.762019753441002 124.103227173972 20.41549595253 125.5267871337 20.41549595253 C 126.95424725769999 20.41549595253 127.6679773197 20.154796910815673 129.0954374437 19.662799727661 C 130.518997403424 19.17214679910607 131.230777383286 17.958870673256 132.65433734301 17.958870673256 C 134.077897302738 17.958870673256 134.78967728260199 18.1354025560602 136.21323724233 18.660874383768 C 137.636797202058 19.1863462114758 138.34857718192202 19.236431413837934 139.77213714165 20.586229811795 C 141.19959726565 21.939726287553533 141.91332732765 25.419111568056998 143.34078745165 25.419111568056998 C 144.764347411374 25.419111568056998 145.476127391236 17.236052144669 146.89968735096 17.236052144669 C 148.323247310688 17.236052144669 149.035027290552 21.00916932204 150.45858725028 21.00916932204 C 151.882147210004 21.00916932204 152.593927189866 20.899237171916404 154.01748714959 20.631105023181 C 155.44494727359 20.3622382658184 156.15867733559 19.666672056795 157.58613745959 19.666672056795 C 159.009697419318 19.666672056795 159.721477399182 21.763871382571 161.14503735891 21.906749051626 C 162.568597318638 22.049626720681 163.28037729850203 22.049626720681 164.70393725823 22.049626720681 C 166.12749721795402 22.049626720681 166.839277197816 22.049626720681 168.26283715754 20.628683702409 C 169.69029728154 19.207740684136997 170.40402734354 10.779364193233 171.83148746754 10.779364193233 C 173.255047427268 10.779364193233 173.966827407132 10.779364193233 175.39038736686 12.291655742836 C 176.813947326588 13.803947292438998 177.52572730645198 19.686325470062 178.94928726618 19.686325470062 C 180.37284722590397 19.686325470062 181.084627205766 13.664365821478 182.50818716549 13.664365821478 C 183.93564728949 13.664365821478 184.64937735149002 13.664365821478 186.07683747549 16.132705937163 C 187.500397435218 18.601046052847998 188.21217741508198 27.845766299355 189.63573737481 27.845766299355 C 191.059297334534 27.845766299355 191.771077314396 23.82473590495352 193.19463727412 21.782530057895 C 194.618197233848 19.740324210830725 195.329977213712 17.634737064048 196.75353717344 17.634737064048 C 198.18099729744 17.634737064048 198.89472735944 19.567528956948 200.32218748344 19.567528956948 C 201.745747443168 19.567528956948 202.457527423032 17.877181551564 203.88108738276 17.877181551564 C 205.30464734248397 17.877181551564 206.016427322346 20.347652967365995 207.43998728207 21.196372874241 C 208.86354724179802 22.045092781118395 209.57532722166198 22.120781085945 210.99888718139 22.120781085945 C 212.42634730538998 22.120781085945 213.14007736739 21.817887473382 214.56753749139 21.817887473382 C 215.991097451118 21.817887473382 216.70287743098203 23.172514049161258 218.12643739071 23.990830709628 C 219.549997350434 24.809147370092457 220.26177733029598 24.94412079002876 221.68533729002 25.90947077571 C 223.108897249748 26.874820761393956 223.82067722961202 26.669084605099368 225.24423718934 28.817580638041 C 226.67169731334002 30.971962961482053 227.38542737534 36.6666666666667 228.81288749934 36.6666666666667 C 230.23644745906398 36.6666666666667 230.948227438926 36.6666666666667 232.37178739865 33.1504988329521 C 233.79534735837802 29.634330999237505 234.507127338242 17.057736760160005 235.93068729797 16.444017962195 C 237.35424725769798 15.830299164229999 238.066027237562 15.830299164229999 239.48958719729 15.830299164229999 C 240.91704732129 15.830299164229999 241.63077738329002 15.830299164229999 243.05823750729 16.688026209696 C 244.481797467014 17.545753255162005 245.193577446876 18.898558293106145 246.6171374066 20.423705007954 C 248.040697366328 21.948851722806143 248.75247734619202 24.313759783946 250.17603730592 24.313759783946 C 251.59959726564801 24.313759783946 252.311377245512 19.024270065001684 253.73493720524 16.950969545329 C 255.16239732924 14.871988750261679 255.87612739123998 13.933056497096 257.30358751524 13.933056497096 C 258.727147474964 13.933056497096 259.438927454826 14.284935308589558 260.86248741455 14.970135685397 C 262.286047374278 15.655336062206358 262.99782735414203 17.359058381138 264.42138731387 17.359058381138 C 265.844947273594 17.359058381138 266.556727253456 9.034726411123 267.98028721318 9.034726411123 C 269.40774733718 9.034726411123 270.12147739918 12.845462408027998 271.54893752318 12.845462408027998 C 272.97249748290795 12.845462408027998 273.684277462772 11.897112386191 275.1078374225 11.897112386191 C 276.53139738222796 11.897112386191 277.243177362092 15.598442587942273 278.66673732182 17.263073901459 C 280.090297281544 18.927705214971073 280.802077261406 19.151689567240858 282.22563722113 20.220268953763 C 283.65309734513005 21.29177595504486 284.36682740713 21.753678782666316 285.79428753113 22.613289870969 C 287.217847490858 23.47055229509672 287.92962747072204 24.512452734839002 289.35318743045 24.512452734839002 C 290.776747390178 24.512452734839002 291.488527370042 23.510434932596 292.91208732977 23.202997104822 C 294.335647289494 22.895559277048 295.047427269356 23.202997104822 296.47098722908 22.895559277048 C 297.89844735308 22.588121449274002 298.61217741508 19.652317317224 300.03963753908 19.652317317224 C 301.463197498808 19.652317317224 302.174977478672 21.274513001795 303.5985374384 21.274513001795 C 305.022097398124 21.274513001795 305.733877377986 21.274513001795 307.15743733771 21.247754483253 C 308.580997297438 21.220995964711 309.292777277302 20.825858664732 310.71633723703 20.825858664732 C 312.14379736103 20.825858664732 312.85752742303004 22.079044712641 314.28498754703 22.079044712641 C 315.708547506758 22.079044712641 316.420327486622 21.500088694452 317.84388744635 21.500088694452 C 319.267447406074 21.500088694452 319.979227385936 25.778881671857 321.40278734566 25.778881671857 C 322.120417571936 25.778881671857 322.479232685074 24.908111187088476 323.19686291135 24.213854491101 C 323.902792644802 23.53091719776968 324.25575751152803 22.33589669856 324.96168724498 22.33589669856 C 325.679317471252 22.33589669856 326.038132584388 22.596787878168 326.75576281066 22.596787878168 C 327.465592708388 22.596787878168 327.820507657252 22.11604689246352 328.53033755498 21.471091865417 C 329.247967781252 20.81904942049312 329.606782894388 19.708722751134996 330.32441312066 19.354294198242 C 331.030342854112 18.999865645349 331.383307720838 19.190556676971056 332.08923745429 18.999865645349 C 332.80686768056603 18.806013988892257 333.165682793704 18.543059905634998 333.88331301998 18.392937478045 C 334.58924275343196 18.242815050455 334.942207620158 18.332608049535224 335.64813735361 18.242815050455 C 336.365767579882 18.151533769622024 336.724582693018 18.06930876499279 337.44221291929 17.940251778262 C 338.148142652746 17.81329898153159 338.501107519474 17.602790591802 339.20703725293 17.602790591802 C 339.92466747920196 17.602790591802 340.283482592338 18.44811785673 341.00111281861 18.44811785673 C 341.710942716338 18.44811785673 342.06585766520203 18.311394028050845 342.77568756293 18.217380033956 C 343.493317789202 18.122332919047246 343.852132902338 17.975465084221 344.56976312861 17.975465084221 C 345.275692862062 17.975465084221 345.62865772878797 18.048712543341832 346.33458746224 18.194185583056 C 347.05221768851595 18.342069778125435 347.41103280165396 18.194185583056 348.12866302793 18.70885817118 C 348.83459276138194 19.223530759304 349.18755762810804 20.898540270383 349.89348736156 20.898540270383 C 350.611117587832 20.898540270383 350.969932700968 20.898540270383 351.68756292724 20.358755539612 C 352.39349266069604 19.818970808841005 352.746457527424 17.347052323059 353.45238726088 17.347052323059 C 354.170017487152 17.347052323059 354.528832600288 17.442193187593727 355.24646282656 17.651914607805 C 355.956292724288 17.859356447362526 356.311207673152 18.12734682193798 357.02103757088 18.389960472481 C 357.738667797152 18.655459987314778 358.097482910288 18.389960472481 358.81511313656 18.972197521247 C 359.52104287001197 19.554434570013 359.874007736738 20.640407959233308 360.57993747019 21.472463671782 C 361.297567696466 22.318310362996908 361.656382809604 23.166953530656 362.37401303588 23.166953530656 C 363.079942769332 23.166953530656 363.432907636058 21.90222351139655 364.13883736951 20.198097915205 C 364.856467595782 18.465727143384946 365.21528270891804 15.99282728381069 365.93291293519 14.575712610627 C 366.638842668646 13.181703067977091 366.99180753537405 13.170287375621001 367.69773726883 13.170287375621001 C 368.415367495102 13.170287375621001 368.774182608238 14.301467587878001 369.49181283451 14.301467587878001 C 370.201642732234 14.301467587878001 370.556557681096 13.857447983657 371.26638757882 13.857447983657 C 371.98401780509596 13.857447983657 372.342832918234 14.23062304309859 373.06046314451 15.234845420709998 C 373.766392877962 16.222694607376187 374.119357744688 17.88137831886888 374.82528747814 18.837626894351 C 375.54291770441193 19.80972489373648 375.901732817548 19.756564540041 376.61936304382 20.055711857879 C 377.325292777276 20.354859175717 377.678257644004 20.354859175717 378.38418737746 20.354859175717 C 379.101817603732 20.354859175717 379.46063271686796 19.389213140554588 380.17826294314 18.17901859771 C 380.884192676592 16.98855548762979 381.23715754331795 15.073062674033 381.94308727677 14.353215043405001 C 382.660717503046 13.633367412777002 383.019532616184 13.633367412777002 383.73716284246 13.633367412777002 C 384.446992740184 13.633367412777002 384.80190768904606 13.746119869533999 385.51173758677 13.746119869533999 C 386.229367813046 13.746119869533999 386.588182926184 13.476576147475999 387.30581315246 13.476576147475999 C 388.011742885912 13.476576147475999 388.364707752638 14.333802308186737 389.07063748609 15.175046592164001 C 389.78826771236197 16.030234151566738 390.147082825498 17.049729606646892 390.86471305177 17.717655755926 C 391.570642785226 18.374691804948494 391.923607651954 18.487452087918 392.62953738541 18.487452087918 C 393.34716761168204 18.487452087918 393.705982724818 18.487452087918 394.42361295109 18.433096939554 C 395.12954268454195 18.378741791190002 395.482507551268 18.100986968622 396.18843728472 18.100986968622 C 396.90606751099597 18.100986968622 397.26488262413403 18.462223711651 397.98251285041 18.462223711651 C 398.692342748134 18.462223711651 399.04725769699604 17.720813140304 399.75708759472 17.473625287552 C 400.474717820992 17.2264374348 400.833532934128 17.2264374348 401.5511631604 17.2264374348 C 402.257092893856 17.2264374348 402.610057760584 17.368908146647 403.31598749404 17.368908146647 C 404.033617720312 17.368908146647 404.39243283344797 16.824121396263 405.11006305972 16.824121396263 C 405.815992793172 16.824121396263 406.16895765989796 17.256994283904 406.87488739335 17.256994283904 C 407.59251761962594 17.256994283904 407.95133273276394 14.167216311083 408.66896295904 14.133245425523999 C 409.374892692492 14.099274539964998 409.727857559218 14.099274539964998 410.43378729267 14.099274539964998 C 411.1514175189421 14.099274539964998 411.5102326320781 17.326173556723 412.22786285835 17.748496105399 C 412.93769275607804 18.170818654075 413.29260770494204 18.170818654075 414.00243760267 18.170818654075 C 414.72006782894204 18.170818654075 415.07888294207794 17.521998578306803 415.79651316835 17.300869715063 C 416.502442901806 17.0833462137188 416.85540776853395 17.074187742605 417.56133750199 17.074187742605 C 418.278967728262 17.074187742605 418.637782841398 18.487629945982 419.35541306767 18.487629945982 C 420.061342801122 18.487629945982 420.414307667848 17.404077023628 421.1202374013 17.404077023628 C 421.837867627576 17.404077023628 422.196682740714 17.404077023628 422.91431296699 17.731093791763 C 423.620242700442 18.058110559898005 423.973207567168 20.858587569001003 424.67913730062 20.944587555885 C 425.396767526892 21.030587542769 425.755582640028 21.030587542769 426.4732128663 21.030587542769 C 427.18304276402796 21.030587542769 427.53795771289197 20.222833056679 428.24778761062 20.222833056679 C 428.965417836892 20.222833056679 429.324232950028 21.987010476428 430.0418631763 21.987010476428 C 430.747792909756 21.987010476428 431.100757776484 21.671208059320023 431.80668750994 21.235913190311 C 432.524317736212 20.793403489221223 432.88313284934804 19.792499051181 433.60076307562 19.792499051181 C 434.30669280907205 19.792499051181 434.65965767579803 20.556672828567834 435.36558740925 20.942436339304 C 436.08321763552595 21.334593720386234 436.44203274866396 21.433142700407384 437.15966297494 21.737301280727 C 437.865592708392 22.036500753756982 438.21855757511804 22.089122098346877 438.92448730857 22.450831472678 C 439.642117534842 22.818536030009277 440.00093264797795 23.22277147235029 440.71856287425 23.560836109883 C 441.428392771978 23.89522613179149 441.783307720842 23.862821753110477 442.49313761857 24.131968121280998 C 443.21076784484205 24.404072141848076 443.56958295797796 24.913962081727 444.28721318425 24.913962081727 C 444.99314291770196 24.913962081727 445.346107784428 24.52475955095678 446.05203751788 24.361301391685 C 446.769667744156 24.19513398115358 447.12848285729405 24.089898157219 447.84611308357 24.089898157219 C 448.55204281702197 24.089898157219 448.90500768374807 24.559897162563868 449.6109374172 24.733286943911 C 450.32856764347196 24.90955058903747 450.687382756608 24.964031723403 451.40501298288 24.964031723403 C 452.110942716336 24.964031723403 452.463907583064 23.308103907649624 453.16983731652 22.476907319489 C 453.887467542792 21.63193399230242 454.246282655928 20.773606935035 454.9639128822 20.773606935035 C 455.67374277992803 20.773606935035 456.0286577287919 21.29394948046 456.73848762652 21.29394948046 C 457.456117852792 21.29394948046 457.814932965928 21.152938602726948 458.5325631922 20.953121755776 C 459.23849292565194 20.75656279219935 459.59145779237804 20.611591580891798 460.29738752583 20.303009954141 C 461.015017752106 19.989313714790196 461.373832865244 19.78463628153521 462.09146309152 19.397427090522 C 462.797392824972 19.016531092842808 463.150357691698 18.64069496788796 463.85628742515 18.38274698241 C 464.573917651422 18.120523615957158 464.932732764558 18.096998710695 465.65036299083 18.096998710695 C 466.35629272428594 18.096998710695 466.709257591014 18.673941395172438 467.41518732447 19.026792204778 C 468.13281755074206 19.385491370342038 468.491632663878 19.840408253159996 469.20926289015 19.875873648619 C 469.91909278787796 19.911339044078 470.27400773674196 19.911339044078 470.98383763447 19.911339044078 C 471.701467860742 19.911339044078 472.06028297387803 19.248359193298846 472.77791320015 18.554461758405 C 473.483842933602 17.871877868645644 473.836807800328 16.470135732445 474.54273753378 16.470135732445 C 475.260367760052 16.470135732445 475.61918287318804 17.406356837621964 476.33681309946 17.931105771488 C 477.04274283291596 18.447299016217563 477.39570769964405 19.072491178934 478.1016374331 19.072491178934 C 478.81926765937203 19.072491178934 479.17808277250805 18.946366954798 479.89571299878 18.946366954798 C 480.601642732232 18.946366954798 480.954607598958 18.946366954798 481.66053733241 19.084733197911 C 482.37816755868596 19.223099441024 482.73698267182397 20.824803791819 483.4546128981 21.028482146921 C 484.1644427958239 21.232160502023 484.51935774468603 21.180001794733194 485.22918764241 21.232160502023 C 485.94681786868597 21.28489238192079 486.30563298182403 21.232160502023 487.0232632081 21.29070861489 C 487.729192941552 21.349256727757002 488.08215780827805 21.784643165932 488.78808754173 21.784643165932 C 489.50571776800206 21.784643165932 489.86453288113796 21.115543278717187 490.58216310741 20.861297155985 C 491.288092840866 20.61119635046999 491.641057707594 20.72206034194473 492.34698744105 20.523775845314 C 493.064617667322 20.32220486531473 493.42343278045803 19.932548586285996 494.14106300673 19.86165846441 C 494.84699274018203 19.790768342534 495.199957606908 19.845964008979728 495.90588734036 19.790768342534 C 496.62351756663594 19.73465783078773 496.98233267977395 19.750459436911804 497.69996290605 19.58339301893 C 498.40979280377394 19.418142540275404 498.76470775263607 19.51841501646031 499.47453765036 18.959976100943 C 500.192167876636 18.395400494041912 500.550982989774 16.775856712884 501.26861321605 16.775856712884 C 501.97454294950205 16.775856712884 502.327507816228 17.64120290546525 503.03343754968 19.018199586957 C 503.75106777595204 20.41801941786645 504.10988288908794 23.717897993887 504.82751311536 23.717897993887 C 505.533442848816 23.717897993887 505.886407715544 23.35792237165074 506.592337449 22.811280861764 C 507.30996767527193 22.25557899536274 507.66878278840807 22.195306337156428 508.38641301468 20.962039553167 C 509.09234274813207 19.748880379786424 509.44530761485805 17.070737282276 510.15123734831 16.695215968339 C 510.868867574586 16.319694654402 511.227682687724 16.319694654402 511.945312914 16.319694654402 C 512.655142811724 16.319694654402 513.010057760586 18.148262348185 513.71988765831 18.51356981391 C 514.4375178845819 18.878877279635 514.796332997718 18.676183374826806 515.51396322399 18.878877279635 C 516.2198929574461 19.078266392518007 516.572857824174 19.342475129503622 517.27878755763 19.518777358138 C 517.996417783902 19.69800172315762 518.3552328970379 19.713755674552004 519.07286312331 19.76769376377 C 519.7787928567619 19.821631852988 520.131757723488 19.76769376377 520.83768745694 19.821631852988 C 521.555317683216 19.875569942205995 521.914132796354 20.02102858770575 522.63176302263 20.10074425709 C 523.3376927560821 20.17916021447295 523.6906576228081 20.216960919906 524.39658735626 20.216960919906 C 525.114217582532 20.216960919906 525.473032695668 19.98970147544269 526.19066292194 19.704988892107 C 526.900492819668 19.423371010763088 527.255407768532 18.801134758207 527.96523766626 18.801134758207 C 528.6828678925319 18.801134758207 529.041683005668 19.410125812063697 529.75931323194 19.776148120179 C 530.465242965396 20.136202673272496 530.818207832124 20.199166175805225 531.52413756558 20.616326911229 C 532.241767791852 21.040401912983626 532.600582904988 21.568226487994004 533.31821313126 21.879237463125 C 534.024142864712 22.190248438256 534.3771077314381 22.190248438256 535.08303746489 22.190248438256 C 535.800667691166 22.190248438256 536.159482804304 22.18995616252825 536.87711303058 21.740344929497 C 537.5830427640319 21.29806431439825 537.9360076307579 21.740344929497 538.64193736421 19.960518817931 C 539.359567590482 18.180692706365 539.7183827036181 15.732929160256544 540.43601292989 12.389320275928 C 541.145842827618 9.082054966417346 541.500757776482 3.3333333333330017 542.21058767421 3.3333333333330017 C 542.928217900482 3.3333333333330017 543.287033013618 3.7878505390075254 544.00466323989 5.8395897257990015 C 544.7105929733459 7.8578766432511244 545.0635578400739 11.224616629639465 545.76948757353 13.508398593942001 C 546.487117799802 15.830033297972264 546.845932912938 15.366910765333209 547.56356313921 17.353131396631 C 548.269492872662 19.306967995895608 548.622457739388 21.128514344192347 549.32838747284 23.358541670348 C 550.046017699112 25.625530775391546 550.404832812248 28.507849885040997 551.12246303852 28.595672474628998 C 551.473477823112 28.683495064217 552 28.683495064217 552 28.683495064217" class="highcharts-graph" data-z-index="1" stroke="black" stroke-width="1" stroke-linejoin="round" stroke-linecap="round" aria-hidden="false" role="region" tabindex="-1" aria-label="Navigator 1, series 4 of 4 with 221 data points. Y axis, navigator-y-axis. X axis, navigator-x-axis." style="outline: none;"></path></g><g class="highcharts-markers highcharts-series-3 highcharts-areaspline-series highcharts-navigator-series" data-z-index="0.1" opacity="1" transform="translate(24,431) scale(1 1)" clip-path="none" aria-hidden="true"></g></g><text x="300" text-anchor="middle" class="highcharts-title" data-z-index="4" style="color: rgb(51, 51, 51); font-size: 16px; fill: rgb(51, 51, 51);" y="22" aria-hidden="true">M2 yearly growth vs. inflation</text><text x="300" text-anchor="middle" class="highcharts-subtitle" data-z-index="4" style="color: rgb(102, 102, 102); fill: rgb(102, 102, 102);" y="49" aria-hidden="true"></text><text x="10" text-anchor="start" class="highcharts-caption" data-z-index="4" style="color: rgb(102, 102, 102); fill: rgb(102, 102, 102);" y="497" aria-hidden="true"></text><g class="highcharts-data-labels highcharts-series-3 highcharts-areaspline-series highcharts-navigator-series" data-z-index="6" opacity="1" transform="translate(24,431) scale(1 1)" aria-hidden="true"></g><g class="highcharts-axis-labels highcharts-xaxis-labels" data-z-index="7" aria-hidden="true"><text x="34.331867238973" text-anchor="middle" transform="translate(0,0)" style="color: rgb(102, 102, 102); cursor: default; font-size: 11px; fill: rgb(102, 102, 102);" y="403" opacity="1">1875</text><text x="127.87893240069" text-anchor="middle" transform="translate(0,0)" style="color: rgb(102, 102, 102); cursor: default; font-size: 11px; fill: rgb(102, 102, 102);" y="403" opacity="1">1900</text><text x="221.4259975624" text-anchor="middle" transform="translate(0,0)" style="color: rgb(102, 102, 102); cursor: default; font-size: 11px; fill: rgb(102, 102, 102);" y="403" opacity="1">1925</text><text x="314.97306272411" text-anchor="middle" transform="translate(0,0)" style="color: rgb(102, 102, 102); cursor: default; font-size: 11px; fill: rgb(102, 102, 102);" y="403" opacity="1">1950</text><text x="408.52012788582" text-anchor="middle" transform="translate(0,0)" style="color: rgb(102, 102, 102); cursor: default; font-size: 11px; fill: rgb(102, 102, 102);" y="403" opacity="1">1975</text><text x="502.06719304753" text-anchor="middle" transform="translate(0,0)" style="color: rgb(102, 102, 102); cursor: default; font-size: 11px; fill: rgb(102, 102, 102);" y="403" opacity="1">2000</text></g><g class="highcharts-axis-labels highcharts-xaxis-labels highcharts-navigator-xaxis" data-z-index="7" aria-hidden="true"><text x="139.18822531927" text-anchor="start" transform="translate(0,0)" style="color: rgb(153, 153, 153); cursor: default; font-size: 11px; fill: rgb(153, 153, 153);" y="467" opacity="1">1900</text><text x="317.25022521329" text-anchor="start" transform="translate(0,0)" style="color: rgb(153, 153, 153); cursor: default; font-size: 11px; fill: rgb(153, 153, 153);" y="467" opacity="1">1950</text><text x="495.31222510731" text-anchor="start" transform="translate(0,0)" style="color: rgb(153, 153, 153); cursor: default; font-size: 11px; fill: rgb(153, 153, 153);" y="467" opacity="1">2000</text></g><g class="highcharts-axis-labels highcharts-yaxis-labels" data-z-index="7" aria-hidden="true"><text x="590" text-anchor="end" transform="translate(0,0)" style="color: rgb(102, 102, 102); cursor: default; font-size: 11px; fill: rgb(102, 102, 102);" y="382" opacity="1">-20 %</text><text x="590" text-anchor="end" transform="translate(0,0)" style="color: rgb(102, 102, 102); cursor: default; font-size: 11px; fill: rgb(102, 102, 102);" y="322" opacity="1">-10 %</text><text x="590" text-anchor="end" transform="translate(0,0)" style="color: rgb(102, 102, 102); cursor: default; font-size: 11px; fill: rgb(102, 102, 102);" y="262" opacity="1">0 %</text><text x="590" text-anchor="end" transform="translate(0,0)" style="color: rgb(102, 102, 102); cursor: default; font-size: 11px; fill: rgb(102, 102, 102);" y="203" opacity="1">10 %</text><text x="590" text-anchor="end" transform="translate(0,0)" style="color: rgb(102, 102, 102); cursor: default; font-size: 11px; fill: rgb(102, 102, 102);" y="143" opacity="1">20 %</text><text x="0" text-anchor="end" transform="translate(0,0)" style="color: rgb(102, 102, 102); cursor: default; font-size: 11px; fill: rgb(102, 102, 102);" visibility="hidden">30 %</text></g><g class="highcharts-axis-labels highcharts-yaxis-labels highcharts-navigator-yaxis" data-z-index="7" aria-hidden="true"></g><g class="highcharts-range-selector-group" data-z-index="7" transform="translate(0,40)" aria-hidden="false"><g class="highcharts-range-selector-buttons" transform="translate(0,10)" aria-hidden="false"><g class="highcharts-label" transform="translate(10,0)" aria-hidden="true"><text x="0" data-z-index="1" y="15.5" style="color: rgb(102, 102, 102); fill: rgb(102, 102, 102);">Zoom</text></g><g class="highcharts-no-tooltip highcharts-button highcharts-button-normal" data-z-index="7" transform="translate(48,0)" style="cursor: pointer;" aria-hidden="false" tabindex="-1" role="button"><rect fill="#f7f7f7" class="highcharts-button-box" x="0" y="0" width="32" height="22" rx="2" ry="2"></rect><text x="4.912109375" data-z-index="1" y="15.5" style="color: rgb(51, 51, 51); font-weight: normal; fill: rgb(51, 51, 51);">30y</text></g><g class="highcharts-no-tooltip highcharts-button highcharts-button-normal" data-z-index="7" transform="translate(85,0)" style="cursor: pointer;" aria-hidden="false" tabindex="-1" role="button"><rect fill="#f7f7f7" class="highcharts-button-box" x="0" y="0" width="32" height="22" rx="2" ry="2"></rect><text x="4.912109375" data-z-index="1" y="15.5" style="color: rgb(51, 51, 51); font-weight: normal; fill: rgb(51, 51, 51);">50y</text></g><g class="highcharts-no-tooltip highcharts-button highcharts-button-normal" data-z-index="7" transform="translate(122,0)" style="cursor: pointer;" aria-hidden="false" tabindex="-1" role="button"><rect fill="#f7f7f7" class="highcharts-button-box" x="0" y="0" width="32" height="22" rx="2" ry="2"></rect><text x="4.912109375" data-z-index="1" y="15.5" style="color: rgb(51, 51, 51); font-weight: normal; fill: rgb(51, 51, 51);">80y</text></g><g class="highcharts-no-tooltip highcharts-button highcharts-button-normal" data-z-index="7" transform="translate(159,0)" style="cursor: pointer;" aria-hidden="false" tabindex="-1" role="button"><rect fill="#f7f7f7" class="highcharts-button-box" x="0" y="0" width="32" height="22" rx="2" ry="2"></rect><text x="1.1181640625" data-z-index="1" y="15.5" style="color: rgb(51, 51, 51); font-weight: normal; fill: rgb(51, 51, 51);">110y</text></g><g class="highcharts-no-tooltip highcharts-button highcharts-button-pressed" data-z-index="7" transform="translate(196,0)" style="cursor: pointer;" aria-hidden="false" tabindex="-1" role="button"><rect fill="#e6ebf5" class="highcharts-button-box" x="0" y="0" width="32" height="22" rx="2" ry="2"></rect><text x="7.1259765625" data-z-index="1" y="15.5" style="color: rgb(0, 0, 0); font-weight: bold; fill: rgb(0, 0, 0);">All</text></g></g><g class="highcharts-input-group" transform="translate(422,10)" aria-hidden="true"><g class="highcharts-label highcharts-range-label" transform="translate(0,0)"><text x="0" data-z-index="1" y="12" style="color: rgb(102, 102, 102); font-family: &quot;Lucida Grande&quot;, &quot;Lucida Sans Unicode&quot;, Arial, Helvetica, sans-serif; font-size: 12px; fill: rgb(102, 102, 102);"></text></g><g class="highcharts-label highcharts-range-input" transform="translate(0,0)" style="cursor: pointer;"><rect fill="none" class="highcharts-label-box" x="0.5" y="0.5" width="70" height="21" stroke="none" stroke-width="1"></rect><text x="2" data-z-index="1" y="15" style="color: rgb(51, 92, 173); font-family: &quot;Lucida Grande&quot;, &quot;Lucida Sans Unicode&quot;, Arial, Helvetica, sans-serif; font-size: 12px; fill: rgb(51, 92, 173);">Jul  1, 1868</text></g><g class="highcharts-label highcharts-range-label" transform="translate(75,0)"><text x="2" data-z-index="1" y="15" style="color: rgb(102, 102, 102); font-family: &quot;Lucida Grande&quot;, &quot;Lucida Sans Unicode&quot;, Arial, Helvetica, sans-serif; font-size: 12px; fill: rgb(102, 102, 102);"></text></g><g class="highcharts-label highcharts-range-input" transform="translate(96,0)" style="cursor: pointer;"><rect fill="none" class="highcharts-label-box" x="0.5" y="0.5" width="70" height="21" stroke="none" stroke-width="1"></rect><text x="2" data-z-index="1" y="15" style="color: rgb(51, 92, 173); font-family: &quot;Lucida Grande&quot;, &quot;Lucida Sans Unicode&quot;, Arial, Helvetica, sans-serif; font-size: 12px; fill: rgb(51, 92, 173);">Jul  2, 2023</text></g></g></g><g class="highcharts-navigator" data-z-index="8" aria-hidden="true"><rect fill="rgb(0,0,0)" fill-opacity="0" class="highcharts-navigator-mask-outside" x="24" y="431" width="0" height="40"></rect><rect fill="rgb(102,133,194)" fill-opacity="0.3" class="highcharts-navigator-mask-inside" style="cursor: ew-resize;" x="24" y="431" width="552" height="40"></rect><rect fill="rgb(0,0,0)" fill-opacity="0" class="highcharts-navigator-mask-outside" x="576" y="431" width="0" height="40"></rect><path fill="none" class="highcharts-navigator-outline" stroke="#cccccc" stroke-width="1" d="M 10 431.5 L 23.5 431.5 L 23.5 485.5 L 575.5 485.5 L 575.5 431.5 L 590 431.5 M 23 431.5 L 576 431.5"></path><path fill="#f2f2f2" d="M -4.5 0.5 L 3.5 0.5 L 3.5 15.5 L -4.5 15.5 L -4.5 0.5 M -1.5 4 L -1.5 12 M 0.5 4 L 0.5 12" data-z-index="6" class="highcharts-navigator-handle highcharts-navigator-handle-right" stroke="#999999" stroke-width="1" style="cursor: ew-resize;" transform="translate(576,443)"></path><path fill="#f2f2f2" d="M -4.5 0.5 L 3.5 0.5 L 3.5 15.5 L -4.5 15.5 L -4.5 0.5 M -1.5 4 L -1.5 12 M 0.5 4 L 0.5 12" data-z-index="7" class="highcharts-navigator-handle highcharts-navigator-handle-left" stroke="#999999" stroke-width="1" style="cursor: ew-resize;" transform="translate(24,443)"></path></g><text x="590" class="highcharts-credits" text-anchor="end" data-z-index="8" y="495" style="cursor: pointer; color: rgb(153, 153, 153); font-size: 9px; fill: rgb(153, 153, 153);" aria-label="Chart credits: Longtermtrends.net" aria-hidden="false">Longtermtrends.net</text></svg>